<svg xmlns="http://www.w3.org/2000/svg" xmlns:xlink="http://www.w3.org/1999/xlink" width="1024" zoomAndPan="magnify" viewBox="0 0 768 767.999994" height="1024" preserveAspectRatio="xMidYMid meet" version="1.0"><rect x="-76.8" width="921.6" fill="#ffffff" y="-76.799999" height="921.599993" fill-opacity="1"/><rect x="-76.8" width="921.6" fill="#c9c3c0" y="-76.799999" height="921.599993" fill-opacity="1"/><path fill="#f7e9df" d="M 477.421875 488.363281 C 475.921875 492.871094 474.597656 497.441406 474.367188 502.121094 C 474.019531 507.902344 476.726562 512.703125 476.910156 518.3125 C 477.019531 520.800781 476.214844 523.460938 474.3125 525.023438 C 473.964844 525.253906 473.617188 525.484375 473.328125 525.832031 C 472.753906 526.410156 472.582031 527.277344 472.289062 528.03125 C 471.945312 529.070312 471.308594 530.058594 470.269531 530.460938 C 469.171875 530.867188 467.785156 530.347656 466.804688 531.039062 C 465.476562 531.90625 465.824219 534.105469 464.613281 535.203125 C 463.746094 535.957031 462.421875 535.835938 461.382812 535.316406 C 458.148438 533.757812 457.222656 529.589844 455.667969 526.296875 C 453.183594 521.207031 448.566406 517.625 444.066406 514.214844 C 443.71875 513.984375 443.429688 513.695312 443.023438 513.695312 C 442.449219 513.636719 441.984375 513.984375 441.582031 514.332031 C 438.003906 517.222656 434.710938 520.515625 431.359375 523.703125 C 428.363281 526.59375 425.128906 529.082031 422.820312 532.542969 C 421.546875 534.453125 420.507812 536.59375 418.605469 537.75 C 416.523438 538.96875 413.695312 538.621094 411.964844 537 C 411.796875 536.769531 411.566406 536.539062 411.277344 536.539062 C 411.039062 536.480469 410.808594 536.597656 410.578125 536.769531 C 408.964844 537.691406 407.058594 538.679688 405.210938 538.214844 C 403.363281 537.691406 401.859375 535.902344 399.957031 536.132812 C 399.550781 536.132812 399.148438 536.304688 398.683594 536.363281 C 397.816406 536.363281 396.949219 535.785156 396.433594 535.089844 C 395.105469 533.300781 395.277344 530.757812 396.375 528.789062 C 397.472656 526.882812 399.320312 525.550781 401.339844 524.570312 C 401.976562 524.222656 402.613281 523.933594 403.128906 523.351562 C 404.105469 522.253906 403.9375 520.460938 403.476562 519.015625 C 402.320312 515.253906 400.125 511.957031 396.890625 509.703125 C 394.121094 507.683594 390.945312 506.175781 387.710938 504.90625 C 378.246094 501.265625 367.90625 499.875 357.804688 499.414062 C 338.292969 498.492188 319.355469 498.023438 300.765625 504.558594 C 295.625 506.351562 290.144531 509.066406 288.414062 514.214844 C 287.664062 516.585938 287.835938 519.1875 287.492188 521.675781 C 287.203125 524.164062 286.164062 526.882812 283.914062 527.976562 C 281.546875 529.191406 278.484375 528.207031 276.0625 529.417969 C 274.15625 530.347656 272.597656 532.539062 270.519531 532.078125 C 268.269531 531.558594 267.460938 527.976562 265.148438 527.917969 C 263.589844 527.917969 262.433594 529.535156 260.933594 529.824219 C 258.738281 530.175781 257.121094 527.574219 257.359375 525.375 C 257.589844 523.175781 258.917969 521.273438 259.605469 519.1875 C 260.296875 517.105469 260.355469 514.90625 260.355469 512.714844 C 260.355469 509.070312 260.246094 505.484375 259.957031 501.898438 C 259.777344 499.585938 259.546875 497.273438 258.628906 495.132812 C 256.78125 490.855469 252.390625 488.253906 247.945312 486.695312 C 230.164062 480.503906 212.210938 490.277344 199.742188 503 C 198.761719 503.984375 197.835938 505.082031 196.738281 506.007812 C 194.832031 507.628906 192.464844 508.839844 189.925781 508.839844 C 187.441406 508.898438 184.847656 507.625 183.75 505.3125 C 183.570312 504.90625 183.402344 504.503906 183.050781 504.273438 C 182.59375 504.042969 182.074219 504.214844 181.613281 504.332031 C 178.898438 505.082031 175.433594 504.738281 173.875 502.363281 C 173.53125 501.902344 173.355469 501.382812 173.007812 500.972656 C 172.546875 500.394531 171.96875 499.992188 171.507812 499.472656 C 169.3125 497.21875 170.179688 493.34375 172.085938 490.796875 C 175.261719 486.695312 179.476562 483.046875 183 479.117188 C 186.574219 475.125 190.097656 471.023438 193.449219 466.855469 C 207.648438 449.335938 222.316406 428.117188 223.292969 404.757812 C 223.464844 400.476562 223.183594 396.082031 221.617188 392.089844 C 220.8125 390.070312 219.882812 387.289062 218.675781 385.5 C 217.058594 383.070312 203.140625 376.828125 194.65625 368.152344 C 189.460938 362.890625 185.878906 356.183594 183.113281 349.359375 C 180.285156 342.535156 178.898438 335.078125 179.878906 327.734375 C 180.226562 325.246094 180.917969 322.703125 182.535156 320.734375 C 185.078125 317.730469 188.710938 316.632812 190.441406 312.984375 C 192.230469 309.226562 193.210938 305.007812 195.292969 301.363281 C 197.773438 296.96875 202.101562 294.078125 206.492188 291.535156 C 248.167969 283.308594 277.152344 292.632812 279.234375 293.675781 C 284.835938 296.625 291.765625 298.414062 297.246094 299.746094 C 304.695312 301.480469 312.023438 303.503906 319.414062 305.414062 C 323.164062 306.453125 506.582031 378.933594 477.421875 488.363281 Z M 477.421875 488.363281 " fill-opacity="1" fill-rule="nonzero"/><path fill="#9b8c89" d="M 208.683594 315.183594 C 216.191406 318.363281 214.976562 330.96875 222.25 334.671875 C 225.078125 336.113281 228.429688 335.773438 231.542969 335.363281 C 243.378906 333.804688 256.019531 331.78125 264.738281 323.625 C 272.074219 316.746094 275.417969 306.683594 278.246094 297.027344 C 278.59375 295.925781 278.878906 294.828125 279.226562 293.667969 C 277.148438 292.628906 275.242188 291.417969 273.683594 289.96875 C 268.949219 285.632812 268.832031 279.679688 264.042969 266.957031 C 256.015625 245.507812 241.699219 235.5 236.214844 241.867188 C 233.617188 252.097656 230.273438 262.105469 226.054688 271.816406 C 222.476562 280.144531 217.683594 285.230469 209.769531 289.683594 C 208.671875 290.265625 207.582031 290.902344 206.484375 291.535156 C 205.042969 297.027344 203.886719 302.695312 202.210938 308.015625 C 201.867188 309.113281 201.519531 310.324219 201.867188 311.425781 C 202.679688 314.027344 206.199219 314.144531 208.683594 315.183594 Z M 208.683594 315.183594 " fill-opacity="1" fill-rule="nonzero"/><path fill="#9b8c89" d="M 184.007812 335.949219 C 184.238281 336.160156 184.546875 336.320312 184.875 336.304688 C 185.199219 336.292969 185.511719 336.183594 185.742188 335.949219 C 186.042969 335.640625 186.316406 335.296875 186.554688 334.933594 C 186.574219 334.898438 186.589844 334.859375 186.613281 334.824219 C 188.554688 336.015625 191.078125 336.167969 193.046875 334.941406 C 193.59375 334.601562 193.851562 333.828125 193.488281 333.265625 C 193.136719 332.71875 192.390625 332.457031 191.8125 332.820312 C 191.707031 332.890625 191.597656 332.953125 191.480469 333.011719 C 191.429688 333.039062 191.378906 333.066406 191.328125 333.09375 C 191.292969 333.105469 191.117188 333.171875 191.28125 333.117188 C 191.246094 333.125 191.199219 333.140625 191.1875 333.144531 C 191.132812 333.160156 191.078125 333.179688 191.023438 333.199219 C 190.902344 333.238281 190.78125 333.273438 190.65625 333.296875 C 190.554688 333.324219 190.453125 333.332031 190.347656 333.355469 C 190.292969 333.355469 190.242188 333.367188 190.1875 333.367188 C 189.933594 333.382812 189.675781 333.375 189.421875 333.355469 C 189.394531 333.355469 189.359375 333.351562 189.324219 333.347656 C 189.203125 333.324219 189.074219 333.304688 188.953125 333.269531 C 188.730469 333.214844 188.488281 333.066406 188.265625 333.046875 C 188.382812 333.0625 188.457031 333.132812 188.285156 333.054688 C 188.238281 333.027344 188.183594 333.003906 188.132812 332.972656 C 188.019531 332.914062 187.914062 332.851562 187.804688 332.78125 C 187.738281 332.738281 187.605469 332.601562 187.527344 332.589844 C 187.621094 332.605469 187.699219 332.734375 187.539062 332.597656 C 187.488281 332.550781 187.433594 332.503906 187.378906 332.453125 C 187.375 332.449219 187.371094 332.453125 187.363281 332.449219 C 187.359375 332.410156 187.355469 332.371094 187.351562 332.335938 C 187.316406 331.957031 187.296875 331.582031 187.300781 331.203125 C 187.300781 331.027344 187.304688 330.855469 187.320312 330.683594 C 187.332031 330.523438 187.316406 330.25 187.375 330.09375 C 187.375 330.078125 187.378906 330.0625 187.378906 330.050781 C 187.394531 329.960938 187.410156 329.878906 187.421875 329.789062 C 187.457031 329.589844 187.507812 329.386719 187.550781 329.191406 C 187.699219 328.566406 187.355469 327.832031 186.691406 327.679688 C 186.066406 327.535156 185.347656 327.871094 185.183594 328.53125 C 184.855469 329.90625 184.851562 331.300781 185.007812 332.695312 C 184.984375 332.730469 184.933594 332.753906 184.910156 332.792969 C 184.738281 333.195312 184.511719 333.5625 184.253906 333.917969 C 184.167969 334.015625 184.089844 334.113281 184.003906 334.207031 C 183.78125 334.433594 183.644531 334.753906 183.644531 335.074219 C 183.640625 335.242188 183.675781 335.398438 183.75 335.546875 C 183.800781 335.707031 183.886719 335.835938 184.007812 335.949219 Z M 184.007812 335.949219 " fill-opacity="1" fill-rule="nonzero"/><path fill="#9b8c89" d="M 199.882812 325.675781 C 203.988281 325.175781 208.09375 325.648438 211.976562 327.082031 C 212.597656 327.304688 213.320312 326.824219 213.484375 326.222656 C 213.671875 325.539062 213.253906 324.941406 212.628906 324.710938 C 208.570312 323.21875 204.171875 322.699219 199.882812 323.222656 C 199.226562 323.304688 198.660156 323.734375 198.660156 324.449219 C 198.660156 325.054688 199.222656 325.761719 199.882812 325.675781 Z M 199.882812 325.675781 " fill-opacity="1" fill-rule="nonzero"/><path fill="#9b8c89" d="M 198.648438 329.640625 C 201.578125 330.765625 204.421875 332.910156 206.300781 335.433594 C 206.699219 335.964844 207.359375 336.234375 207.976562 335.875 C 208.496094 335.566406 208.816406 334.730469 208.414062 334.195312 C 206.070312 331.054688 202.957031 328.679688 199.300781 327.277344 C 198.683594 327.039062 197.957031 327.542969 197.792969 328.136719 C 197.605469 328.828125 198.027344 329.40625 198.648438 329.640625 Z M 198.648438 329.640625 " fill-opacity="1" fill-rule="nonzero"/><path fill="#9b8c89" d="M 286.980469 515.671875 C 287.277344 520.519531 287.160156 527.371094 280.746094 527.535156 C 278.804688 527.582031 277.011719 527.230469 275.164062 528 C 273.429688 528.722656 271.714844 531.480469 269.535156 530.058594 C 267.554688 528.765625 267.226562 526.199219 264.292969 526.574219 C 262.886719 526.75 261.945312 527.945312 260.65625 528.234375 C 255.144531 529.472656 258.828125 522.890625 259.707031 521.28125 C 263.78125 513.804688 261.558594 504.742188 260.292969 496.789062 C 258.71875 486.898438 256.695312 477.09375 254.277344 467.382812 C 253.894531 465.847656 251.527344 466.5 251.914062 468.035156 C 254.996094 480.40625 257.550781 492.980469 259.136719 505.648438 C 259.460938 508.226562 259.730469 510.847656 259.527344 513.449219 C 259.277344 516.628906 258.035156 519.074219 256.570312 521.8125 C 255.148438 524.460938 254.28125 528.386719 257.242188 530.425781 C 258.378906 531.203125 259.664062 531.210938 260.925781 530.800781 C 261.761719 530.527344 262.425781 529.910156 263.222656 529.585938 C 264.953125 528.882812 265.828125 529.398438 266.9375 530.75 C 269.042969 533.316406 271.175781 533.765625 273.925781 531.808594 C 275.582031 530.632812 276.453125 529.949219 278.578125 529.910156 C 279.773438 529.890625 280.949219 530.078125 282.152344 529.925781 C 283.867188 529.707031 285.351562 529 286.582031 527.769531 C 289.761719 524.589844 289.691406 519.855469 289.4375 515.683594 C 289.339844 514.101562 286.890625 514.09375 286.980469 515.671875 Z M 286.980469 515.671875 " fill-opacity="1" fill-rule="nonzero"/><path fill="#9b8c89" d="M 231.335938 482.433594 C 222.796875 484.914062 215.199219 489.4375 208.179688 494.824219 C 204.808594 497.410156 201.5625 500.160156 198.371094 502.960938 C 196.621094 504.492188 194.894531 506.210938 192.8125 507.285156 C 189.75 508.875 184.25 508.792969 184.660156 503.917969 C 184.738281 503.011719 183.558594 502.367188 182.816406 502.859375 C 179.226562 505.269531 174.910156 503.613281 173.886719 499.410156 C 173.761719 498.902344 173.226562 498.488281 172.703125 498.507812 C 169.09375 498.644531 172.355469 492.929688 173.109375 491.878906 C 174.574219 489.84375 176.496094 488.15625 178.359375 486.492188 C 179.535156 485.4375 177.800781 483.710938 176.625 484.753906 C 173.296875 487.730469 169.21875 491.378906 168.589844 496.089844 C 168.25 498.648438 169.46875 500.492188 171.800781 500.828125 C 173.351562 505.382812 178.066406 507.558594 182.382812 505.839844 C 183.085938 508.835938 185.992188 510.851562 189.222656 510.769531 C 194.320312 510.632812 198.085938 506.4375 201.675781 503.335938 C 210.722656 495.523438 220.359375 488.175781 231.996094 484.800781 C 233.5 484.363281 232.855469 481.992188 231.335938 482.433594 Z M 231.335938 482.433594 " fill-opacity="1" fill-rule="nonzero"/><path fill="#9b8c89" d="M 476.441406 492.9375 C 477.183594 491.542969 475.070312 490.300781 474.328125 491.699219 C 471.730469 496.5625 472.152344 502.164062 473.316406 507.378906 C 474.425781 512.3125 479.304688 522.710938 471.941406 525.046875 C 471.464844 525.199219 470.996094 525.683594 471.042969 526.230469 C 471.285156 528.839844 469.328125 530.652344 466.742188 529.910156 C 466.140625 529.738281 465.359375 530.117188 465.234375 530.761719 C 464.917969 532.386719 464.3125 534.703125 462.332031 534.980469 C 460.25 535.269531 459.9375 533.128906 459.503906 531.628906 C 458.746094 528.976562 457.601562 526.472656 456.109375 524.164062 C 453.101562 519.503906 448.957031 515.707031 444.367188 512.640625 C 446.539062 509.277344 447.785156 505.460938 447.46875 501.023438 C 446.8125 491.933594 440.984375 484.671875 435.402344 477.9375 C 434.398438 476.722656 432.667969 478.464844 433.667969 479.675781 C 438.382812 485.367188 443.378906 491.425781 444.738281 498.917969 C 446.019531 506.003906 443.121094 511.746094 437.96875 516.394531 C 434.035156 519.945312 429.480469 522.8125 425.910156 526.777344 C 424.070312 528.828125 422.785156 531.183594 421.261719 533.460938 C 419.839844 535.582031 414.429688 540.199219 412.628906 535.644531 C 412.320312 534.859375 411.25 534.347656 410.578125 535.105469 C 407.949219 538.109375 402.925781 537.558594 401.054688 534.003906 C 400.761719 533.441406 399.914062 533.203125 399.378906 533.5625 C 398.109375 534.414062 396.949219 533.753906 396.46875 532.421875 C 395.964844 531.042969 396.511719 529.675781 397.527344 528.605469 C 398.804688 527.257812 400.671875 526.523438 402.328125 525.800781 C 403.769531 525.171875 402.523438 523.058594 401.089844 523.683594 C 397.515625 525.238281 392.898438 527.984375 393.789062 532.652344 C 394.304688 535.351562 397.136719 537.015625 399.609375 536.179688 C 402.265625 539.773438 407.640625 540.535156 411.171875 537.839844 C 412.324219 539.253906 414.070312 539.929688 416.074219 539.828125 C 419.226562 539.664062 421.433594 537.535156 423.136719 535.058594 C 425.304688 531.921875 427.039062 528.898438 429.871094 526.277344 C 432.613281 523.742188 435.671875 521.585938 438.515625 519.171875 C 440.164062 517.769531 441.648438 516.246094 442.9375 514.628906 C 449.433594 518.9375 455.046875 524.917969 457.214844 532.558594 C 457.933594 535.082031 459.152344 537.703125 462.21875 537.492188 C 465.042969 537.296875 466.570312 534.964844 467.285156 532.476562 C 470.574219 532.769531 473.371094 530.394531 473.46875 527 C 479.027344 524.527344 478.757812 517.578125 477.246094 512.46875 C 475.429688 506.300781 473.199219 499.007812 476.441406 492.9375 Z M 476.441406 492.9375 " fill-opacity="1" fill-rule="nonzero"/><path fill="#9b8c89" d="M 605.675781 398.714844 C 600.1875 388.683594 588.421875 381.476562 577.304688 384.136719 C 573.289062 385.097656 569.421875 387.441406 567.511719 391.113281 C 565.777344 394.449219 565.851562 398.386719 565.75 402.144531 C 565.527344 410.25 564.175781 418.664062 559.484375 425.269531 C 547.554688 442.058594 531.214844 430.296875 520.253906 419.382812 C 499.628906 398.847656 490.355469 377.078125 465.648438 361.4375 C 443.335938 347.3125 420.613281 336.738281 399.941406 329.488281 C 399.679688 329.367188 399.410156 329.234375 399.144531 329.117188 C 377.089844 319.984375 353.878906 314.199219 330.785156 308.363281 C 326.980469 307.433594 323.167969 306.453125 319.414062 305.414062 C 320.972656 308.363281 322.648438 311.3125 323.6875 314.316406 C 327.09375 323.972656 328.132812 334.4375 326.519531 344.554688 C 325.363281 351.785156 322.882812 358.722656 321.902344 365.949219 C 320.863281 373.175781 321.496094 381.039062 325.828125 386.9375 C 328.195312 390.117188 332.0625 392.664062 335.929688 391.855469 C 338.757812 391.277344 340.953125 389.136719 342.742188 386.824219 C 348.691406 378.960938 350.886719 368.957031 355.210938 360.054688 C 359.484375 351.207031 367.511719 342.652344 377.324219 343.113281 C 381.714844 343.285156 385.753906 345.253906 389.734375 347.160156 C 397.128906 350.804688 405.097656 354.964844 408.792969 362.371094 C 412.019531 368.789062 411.386719 376.367188 412.195312 383.535156 C 414.273438 400.765625 426.515625 416.898438 443.140625 421.757812 C 450.871094 424.066406 458.839844 422.910156 464.84375 429.101562 C 469.75 434.191406 472.175781 441.824219 470.386719 448.761719 C 469.691406 451.363281 468.480469 453.851562 467.617188 456.453125 C 464.042969 467.496094 467.847656 480.570312 476.859375 487.964844 C 477.03125 488.078125 477.261719 488.253906 477.433594 488.371094 C 478.011719 486.582031 478.648438 484.84375 479.222656 483.109375 C 482.796875 472.820312 485.808594 462.238281 487.652344 451.480469 C 488.460938 446.914062 489.035156 442.34375 489.386719 437.722656 C 489.441406 437.074219 489.457031 436.425781 489.496094 435.777344 C 498.484375 446.921875 507.976562 457.484375 518.867188 467.785156 C 524.808594 473.410156 548.789062 487.679688 574.3125 479.097656 C 584.234375 475.757812 593.546875 470.269531 599.429688 461.589844 C 605.3125 452.914062 608.371094 442.578125 609.855469 432.199219 C 611.460938 420.859375 611.167969 408.75 605.675781 398.714844 Z M 605.675781 398.714844 " fill-opacity="1" fill-rule="nonzero"/><path fill="#e2a4a1" d="M 190.25 321.539062 C 190.492188 321.570312 190.722656 321.664062 190.929688 321.789062 C 191.613281 322.195312 192.066406 322.957031 192.109375 323.753906 C 192.148438 324.546875 191.765625 325.347656 191.128906 325.820312 C 190.671875 326.15625 190.113281 326.324219 189.636719 326.632812 C 188.867188 327.140625 188.378906 327.972656 188.011719 328.824219 C 187.78125 329.355469 187.578125 329.921875 187.207031 330.363281 C 186.835938 330.808594 186.234375 331.128906 185.675781 330.976562 C 185.066406 330.816406 184.71875 330.1875 184.472656 329.609375 C 183.78125 327.972656 183.390625 326.210938 183.316406 324.433594 C 183.296875 323.890625 183.308594 323.324219 183.519531 322.820312 C 183.710938 322.363281 184.125 321.957031 184.621094 321.964844 C 185.015625 321.972656 185.351562 322.238281 185.714844 322.394531 C 187.09375 323.007812 188.238281 321.847656 189.523438 321.582031 C 189.742188 321.542969 189.960938 321.515625 190.25 321.539062 Z M 190.25 321.539062 " fill-opacity="1" fill-rule="nonzero"/><path fill="#86776f" d="M 198.683594 314.085938 C 199.667969 313.769531 200.667969 313.507812 201.683594 313.292969 C 202.175781 313.191406 202.675781 313.097656 203.179688 313.023438 C 203.601562 312.957031 203.9375 312.917969 204.539062 312.859375 C 205.175781 312.792969 205.796875 312.339844 205.761719 311.632812 C 205.738281 311.019531 205.222656 310.339844 204.539062 310.40625 C 202.328125 310.621094 200.148438 311.042969 198.03125 311.71875 C 197.417969 311.914062 196.96875 312.582031 197.175781 313.230469 C 197.375 313.839844 198.027344 314.296875 198.683594 314.085938 Z M 198.683594 314.085938 " fill-opacity="1" fill-rule="nonzero"/><path fill="#f7e9df" d="M 233.335938 263.503906 C 234.328125 262.898438 235.320312 262.300781 236.308594 261.695312 C 236.148438 263.570312 235.820312 265.429688 235.320312 267.246094 C 236.03125 267.109375 236.707031 266.796875 237.265625 266.339844 C 238.140625 271.089844 239.019531 275.84375 239.894531 280.597656 C 240.011719 279.554688 241.488281 279.167969 242.378906 279.71875 C 243.269531 280.265625 243.679688 281.335938 243.96875 282.34375 C 244.261719 283.347656 244.535156 284.429688 245.300781 285.144531 C 245.914062 284.78125 246.523438 284.421875 247.136719 284.0625 C 248.335938 285.96875 249.742188 287.75 251.328125 289.359375 C 251.621094 289.660156 251.96875 289.96875 252.386719 289.941406 C 253.140625 289.886719 253.332031 288.871094 253.296875 288.109375 C 252.746094 275.945312 250.101562 263.871094 245.519531 252.582031 C 243.867188 248.519531 240.683594 241.222656 238.742188 248.980469 C 237.914062 252.328125 236.558594 261.542969 233.335938 263.503906 Z M 233.335938 263.503906 " fill-opacity="1" fill-rule="nonzero"/></svg>