<svg xmlns="http://www.w3.org/2000/svg" xmlns:xlink="http://www.w3.org/1999/xlink" width="1024" zoomAndPan="magnify" viewBox="0 0 768 767.999994" height="1024" preserveAspectRatio="xMidYMid meet" version="1.0"><rect x="-76.8" width="921.6" fill="#ffffff" y="-76.799999" height="921.599993" fill-opacity="1"/><rect x="-76.8" width="921.6" fill="#ffffff" y="-76.799999" height="921.599993" fill-opacity="1"/><rect x="-76.8" width="921.6" fill="#f4d7bf" y="-76.799999" height="921.599993" fill-opacity="1"/><path fill="#fff9f5" d="M 509.914062 448.570312 C 503.816406 457.347656 494.398438 462.855469 484.328125 466.820312 C 447.132812 465.5625 423.996094 481.417969 386.84375 473.363281 C 383.722656 472.226562 380.644531 470.886719 377.671875 469.347656 C 350.5 455.359375 333.296875 426.152344 328.582031 395.949219 C 328.433594 394.90625 328.28125 393.914062 328.132812 392.875 C 325.902344 375.914062 327.144531 358.605469 330.609375 341.839844 C 332.050781 335.09375 339.738281 315.753906 348.515625 293.925781 C 384.136719 222.328125 434.160156 150.097656 483.042969 225.292969 C 483.144531 228.167969 483.042969 231.046875 482.796875 233.921875 C 481.304688 250.636719 473.722656 265.46875 471.191406 281.832031 C 468.0625 289.589844 468.519531 297.933594 470.640625 303.054688 C 471.785156 316.691406 475.652344 330.03125 482.296875 342.039062 C 490.183594 356.324219 501.582031 368.476562 508.824219 383.105469 C 514.183594 393.765625 517.207031 405.621094 517.601562 417.519531 C 518 428.382812 516.113281 439.644531 509.914062 448.570312 Z M 509.914062 448.570312 " fill-opacity="1" fill-rule="nonzero"/><path fill="#9b8c89" d="M 474.363281 463.101562 C 473.472656 462.753906 472.53125 462.40625 471.636719 462.609375 C 471.046875 462.707031 470.496094 463.003906 469.898438 462.953125 C 469.109375 462.902344 468.511719 462.15625 468.019531 461.515625 C 466.226562 459.132812 464.398438 456.703125 462.5625 454.324219 C 461.820312 453.28125 461.027344 452.242188 460.378906 451.101562 C 458.546875 447.78125 458.246094 443.863281 457.953125 440.042969 C 456.859375 439.746094 455.570312 440.144531 454.878906 441.035156 C 454.398438 435.605469 453.265625 430.589844 451.792969 425.6875 C 452.980469 424.105469 454.265625 422.59375 455.753906 421.242188 C 456.898438 420.203125 458.140625 419.242188 459.007812 417.957031 C 460.007812 416.472656 460.429688 414.683594 460.832031 412.941406 C 462.257812 406.761719 463.679688 400.582031 465.109375 394.402344 C 462.082031 390.308594 465.574219 384.46875 464.554688 379.484375 C 463.363281 373.652344 456.636719 370.914062 453.238281 366.023438 C 451.105469 362.953125 450.1875 358.898438 447.136719 356.742188 C 444.542969 354.914062 441.109375 354.972656 438.109375 353.960938 C 433.957031 352.5625 430.816406 349.203125 427.480469 346.261719 C 442.371094 345.730469 457.355469 347.929688 471.4375 352.804688 C 469.875 348.53125 465.582031 345.871094 461.289062 344.347656 C 457 342.820312 452.410156 342.078125 448.386719 339.960938 C 445.96875 338.691406 443.816406 336.949219 441.328125 335.828125 C 439.183594 334.863281 436.855469 334.382812 434.546875 333.90625 C 429.015625 332.773438 423.488281 331.640625 417.960938 330.507812 C 408.839844 328.636719 399.59375 326.726562 391.304688 322.488281 C 386.453125 320.011719 384.222656 316.480469 385.867188 311.042969 C 386.375 309.371094 387.886719 307.652344 389.390625 305.921875 C 393.535156 305.898438 397.6875 306.28125 401.726562 307.121094 C 416.796875 310.195312 430.042969 318.921875 441.992188 328.546875 C 443.179688 329.488281 444.46875 330.527344 446.011719 330.777344 C 447.546875 331.023438 449.382812 330.179688 449.628906 328.648438 C 450.023438 326.070312 446.40625 325.128906 444.226562 323.6875 C 441.304688 321.753906 440.605469 317.144531 442.886719 314.464844 C 439.316406 312.925781 435.796875 311.339844 432.226562 309.800781 C 430.9375 309.203125 429.351562 307.867188 430.144531 306.625 C 422.410156 299.433594 414.472656 292.140625 404.757812 288.027344 C 396.277344 284.457031 386.660156 283.363281 379.222656 278.007812 C 376.195312 275.777344 374.160156 273.246094 372.625 270.570312 L 373.265625 270.570312 C 370.679688 260.34375 377.164062 250.480469 380.183594 240.457031 C 380.996094 242.917969 382.148438 245.296875 383.980469 247.503906 C 386.609375 250.675781 389.035156 253.554688 391.167969 257.125 C 392.753906 259.847656 395.179688 261.710938 397.015625 264.203125 C 398.257812 265.898438 398.777344 267.859375 399.824219 269.648438 C 401.214844 272.035156 403.382812 274.210938 405.832031 275.515625 C 406.433594 275.835938 413.738281 278.042969 413.664062 276.40625 C 413.511719 273.410156 412.535156 270.46875 410.871094 267.976562 C 410.519531 267.445312 410.125 266.910156 410.007812 266.277344 C 409.894531 265.644531 410.078125 265.003906 410.199219 264.375 C 410.941406 260.6875 409.78125 256.820312 410.457031 253.113281 C 410.988281 250.171875 412.636719 247.570312 414.25 245.054688 C 415.941406 242.414062 418.566406 239.535156 419.25 236.710938 C 419.996094 233.613281 419.539062 231.671875 422.90625 229.699219 C 425.183594 228.359375 427.859375 227.816406 430.242188 226.523438 C 432.769531 225.183594 435.695312 222.554688 436.589844 219.730469 C 437.429688 217.003906 435.894531 214.375 436.738281 211.546875 C 437.328125 209.613281 439.5625 208.027344 441.296875 208.96875 C 442.03125 209.367188 442.53125 210.167969 442.976562 210.90625 C 444.464844 213.332031 445.902344 215.816406 447.390625 218.246094 C 447.929688 219.1875 448.578125 220.179688 449.523438 220.777344 C 450.960938 221.621094 452.796875 221.269531 454.433594 221.023438 C 464.101562 219.386719 474.265625 220.921875 483.042969 225.285156 C 482.847656 215.515625 480.8125 205.796875 477.144531 196.820312 C 474.71875 190.871094 471.492188 185.164062 470.546875 178.8125 C 469.703125 173.359375 470.597656 167.609375 469.402344 162.296875 C 469.058594 160.5625 467.074219 159.820312 465.585938 160.714844 C 461.070312 163.59375 457.355469 167.761719 455.074219 172.621094 C 453.285156 176.4375 452.046875 181.050781 448.332031 183.085938 C 445.207031 184.820312 441.390625 184.375 438.015625 184.425781 C 432.957031 184.476562 429.140625 185.46875 424.578125 187.902344 C 419.667969 190.527344 413.964844 193.351562 408.757812 191.363281 C 405.488281 190.125 403.15625 187.25 400.675781 184.71875 C 395.917969 179.859375 390.015625 176.089844 383.617188 173.808594 C 382.828125 173.507812 381.984375 173.265625 381.191406 173.507812 C 380.546875 173.707031 380.046875 174.203125 379.652344 174.847656 C 377.863281 177.878906 377.226562 181.398438 377.621094 184.917969 C 378.761719 194.488281 379.851562 204.304688 378.710938 213.929688 C 378.515625 215.515625 377.917969 217.898438 376.925781 220.972656 C 374.597656 228.410156 370.285156 239.820312 365.171875 252.765625 C 362.054688 260.550781 358.679688 268.929688 355.257812 277.316406 C 353.917969 280.636719 352.578125 283.960938 351.238281 287.230469 C 351.238281 287.230469 351.238281 287.238281 351.238281 287.238281 L 350.875 286.863281 C 350.921875 287.210938 350.9375 287.566406 350.976562 287.914062 C 350.140625 289.933594 349.308594 291.957031 348.519531 293.921875 C 349.058594 297.496094 350.003906 300.964844 351.496094 304.289062 C 351.5 304.304688 351.507812 304.3125 351.511719 304.328125 C 351 314.453125 348.984375 324.5 345.480469 334.019531 C 344.332031 337.507812 343.191406 341 342.042969 344.496094 C 344.953125 344.582031 344.554688 349.027344 343.464844 351.726562 C 340.480469 359.09375 339.902344 367.179688 339.359375 375.109375 C 338.984375 380.566406 338.625 386.195312 340.394531 391.367188 C 345.125 377.527344 349.988281 363.445312 357.351562 350.90625 C 358.316406 359.015625 361.34375 367.464844 357.785156 374.71875 C 358.78125 374.925781 359.882812 374.5625 360.566406 373.800781 C 360.652344 377.128906 360.734375 380.449219 360.820312 383.777344 C 362.570312 383.269531 364.1875 382.332031 365.484375 381.054688 C 367.28125 385.570312 370.101562 389.671875 373.675781 392.960938 C 374.707031 392.273438 375.738281 391.589844 376.769531 390.902344 C 376.976562 394.796875 377.242188 398.867188 379.261719 402.1875 C 381.289062 405.515625 385.703125 407.734375 389.191406 406 C 393.636719 410.738281 397.625 415.902344 401.089844 421.394531 C 402.71875 423.980469 404.359375 426.769531 407.074219 428.179688 C 409.078125 429.226562 411.445312 429.390625 413.496094 430.355469 C 415.304688 431.210938 416.679688 432.570312 417.875 434.152344 C 418.066406 434.882812 418.242188 435.65625 418.441406 436.367188 C 417.496094 437.210938 415.8125 436.8125 415.316406 435.675781 C 415.511719 439.9375 415.117188 444.308594 414.027344 448.46875 C 413.683594 449.757812 413.234375 451.148438 412.191406 451.941406 C 411.101562 452.789062 409.320312 452.738281 408.671875 451.542969 C 408.277344 454.421875 407.382812 457.296875 406.144531 459.925781 C 402.082031 462.457031 398.757812 466.179688 396.675781 470.492188 C 396.175781 471.582031 395.683594 472.773438 394.644531 473.316406 C 392.3125 474.558594 388.742188 471.933594 386.855469 473.367188 C 398.109375 477.550781 410.078125 479.238281 422.226562 479.199219 C 413.824219 485.777344 404.492188 491.035156 393.894531 494.445312 C 383.238281 497.867188 372.128906 499.355469 360.925781 500.449219 C 360.875 500.5 360.824219 500.5 360.777344 500.449219 C 356.058594 504.363281 350.878906 503.503906 345.550781 501.832031 C 338.660156 502.429688 331.765625 503.171875 325.023438 504.363281 C 319.589844 508.265625 301.839844 513.421875 292.992188 515.371094 C 284.558594 520.183594 277.023438 526.433594 270.675781 533.773438 C 270.675781 533.773438 270.675781 533.773438 270.625 533.816406 C 270.023438 540.71875 265.738281 545.730469 258.175781 552.613281 C 256.59375 555.839844 255.203125 559.164062 254.066406 562.585938 C 252.578125 567.097656 251.433594 571.859375 250.941406 576.667969 C 258.917969 593.746094 283.792969 597.992188 299.582031 593.679688 C 300.035156 589.019531 299.886719 584.160156 300.230469 579.496094 C 300.878906 569.527344 303.945312 559.757812 308.960938 551.128906 C 308.960938 551.078125 308.960938 551.078125 308.960938 551.078125 C 308.785156 544.554688 309.695312 541.824219 315.207031 542.101562 C 316.992188 539.917969 318.921875 537.839844 321.003906 535.902344 C 324.476562 532.628906 328.289062 529.800781 332.359375 527.371094 C 336.421875 520.777344 338.089844 521.84375 342.675781 521.964844 C 345.847656 520.523438 349.117188 519.234375 352.441406 518.148438 C 357.128906 512.816406 360.046875 512.132812 362.957031 514.925781 C 363.007812 514.976562 363.007812 514.976562 363.007812 514.925781 C 367.46875 513.738281 371.882812 512.742188 376.347656 511.800781 C 399.007812 507.078125 448.972656 503.496094 455.035156 475.367188 C 461.320312 474 467.53125 472.351562 473.585938 470.484375 C 477.152344 469.394531 480.773438 468.15625 484.34375 466.816406 C 481.007812 465.582031 477.683594 464.34375 474.363281 463.101562 Z M 474.363281 463.101562 " fill-opacity="1" fill-rule="nonzero"/><path fill="#9b8c89" d="M 471.191406 281.828125 C 469.652344 283.3125 467.96875 284.652344 466.183594 285.796875 C 460.929688 289.167969 454.183594 290.707031 448.382812 288.425781 C 446.691406 287.785156 445.058594 286.835938 443.269531 286.789062 C 441.785156 286.789062 440.296875 287.332031 438.910156 286.933594 C 437.71875 286.589844 436.777344 285.59375 435.789062 284.902344 C 432.464844 282.46875 427.898438 282.519531 424.527344 280.085938 C 422.195312 278.402344 421.207031 274.285156 418.730469 273.289062 C 418.53125 276.910156 419.472656 281.273438 422 283.957031 C 425.671875 287.875 432.261719 288.121094 435.4375 292.4375 C 436.082031 293.375 436.582031 294.46875 437.515625 295.160156 C 438.558594 295.90625 439.898438 296.003906 441.191406 296.105469 C 450.359375 296.902344 459.433594 299.035156 468.019531 302.453125 C 468.863281 302.851562 469.753906 303.144531 470.648438 303.050781 C 470.203125 298.335938 470.152344 293.578125 470.398438 288.867188 C 470.546875 286.488281 470.792969 284.15625 471.191406 281.828125 Z M 471.191406 281.828125 " fill-opacity="1" fill-rule="nonzero"/><path fill="#9b8c89" d="M 446.613281 244.957031 C 445.816406 246.222656 445.019531 247.484375 444.21875 248.746094 C 443.351562 250.125 445.535156 251.394531 446.40625 250.019531 C 447.753906 247.878906 449.097656 245.742188 450.449219 243.605469 C 450.460938 243.597656 450.507812 243.527344 450.554688 243.460938 C 450.773438 243.519531 451.035156 243.585938 451.097656 243.605469 C 451.683594 243.800781 452.273438 243.984375 452.867188 244.179688 C 454.121094 244.582031 455.375 244.988281 456.628906 245.386719 C 458.183594 245.886719 458.839844 243.445312 457.300781 242.949219 C 455.902344 242.5 454.5 242.050781 453.097656 241.597656 C 452.300781 241.339844 451.375 240.96875 450.496094 240.9375 C 450.058594 239.308594 449.574219 237.695312 448.949219 236.132812 C 448.820312 235.816406 448.667969 235.554688 448.367188 235.378906 C 448.09375 235.222656 447.699219 235.152344 447.394531 235.253906 C 446.804688 235.445312 446.246094 236.152344 446.511719 236.8125 C 447.234375 238.617188 447.824219 240.472656 448.300781 242.359375 C 448.136719 242.625 447.941406 242.867188 447.78125 243.117188 C 447.390625 243.726562 447.007812 244.34375 446.613281 244.957031 Z M 446.613281 244.957031 " fill-opacity="1" fill-rule="nonzero"/><path fill="#9b8c89" d="M 431.925781 235.703125 C 426.902344 237.210938 422.550781 240.386719 419.53125 244.664062 C 419.136719 245.21875 419.433594 246.070312 419.988281 246.394531 C 420.621094 246.761719 421.324219 246.5 421.71875 245.941406 C 424.347656 242.214844 428.238281 239.449219 432.597656 238.140625 C 434.152344 237.671875 433.492188 235.234375 431.925781 235.703125 Z M 431.925781 235.703125 " fill-opacity="1" fill-rule="nonzero"/><path fill="#9b8c89" d="M 426.910156 257.660156 C 426.859375 259.289062 429.386719 259.28125 429.4375 257.660156 C 429.589844 252.234375 431.574219 246.914062 435.050781 242.738281 C 436.085938 241.492188 434.3125 239.699219 433.257812 240.945312 C 429.339844 245.65625 427.085938 251.527344 426.910156 257.660156 Z M 426.910156 257.660156 " fill-opacity="1" fill-rule="nonzero"/><path fill="#9b8c89" d="M 473.417969 225.285156 C 467.683594 224.09375 461.808594 224.699219 456.425781 226.984375 C 455.792969 227.253906 455.65625 228.179688 455.96875 228.714844 C 456.347656 229.363281 457.066406 229.4375 457.699219 229.167969 C 462.417969 227.167969 467.738281 226.675781 472.75 227.71875 C 474.335938 228.058594 475.015625 225.621094 473.417969 225.285156 Z M 473.417969 225.285156 " fill-opacity="1" fill-rule="nonzero"/><path fill="#9b8c89" d="M 473.128906 237.089844 C 469.214844 234.828125 465 233.082031 460.621094 231.925781 C 459.050781 231.507812 458.382812 233.949219 459.949219 234.363281 C 464.125 235.46875 468.109375 237.113281 471.851562 239.273438 C 473.265625 240.085938 474.539062 237.902344 473.128906 237.089844 Z M 473.128906 237.089844 " fill-opacity="1" fill-rule="nonzero"/><path fill="#7a7472" d="M 457.871094 214.707031 C 457.492188 214.15625 457.035156 213.605469 456.433594 213.3125 C 454.773438 212.492188 452.796875 212.085938 451.082031 213 C 449.472656 213.859375 448.503906 215.578125 447.929688 217.25 C 447.660156 218.054688 447.460938 218.882812 447.355469 219.730469 C 447.289062 220.230469 447.027344 221.730469 447.304688 222.101562 C 447.441406 222.292969 447.695312 222.367188 447.929688 222.363281 C 447.976562 222.363281 448.027344 222.359375 448.0625 222.332031 C 448.113281 222.296875 448.136719 222.226562 448.160156 222.167969 C 448.351562 221.578125 448.882812 221.121094 449.492188 221.011719 C 450.382812 220.863281 451.324219 221.542969 452.179688 221.695312 C 453.507812 221.921875 454.945312 221.148438 455.472656 219.90625 C 455.878906 218.964844 455.875 217.730469 456.726562 217.171875 C 457.09375 216.925781 457.566406 216.855469 457.886719 216.554688 C 458.367188 216.082031 458.246094 215.257812 457.871094 214.707031 Z M 457.871094 214.707031 " fill-opacity="1" fill-rule="nonzero"/><path fill="#7a7472" d="M 432.808594 220.308594 C 431.554688 219.066406 429.921875 217.964844 428.09375 217.910156 C 426.15625 217.859375 424.574219 219.101562 423.445312 220.574219 C 423.042969 221.105469 422.878906 221.800781 422.785156 222.464844 C 422.6875 223.125 422.957031 223.914062 423.59375 224.125 C 424.007812 224.257812 424.460938 224.109375 424.902344 224.160156 C 425.917969 224.28125 426.460938 225.386719 427.242188 226.050781 C 428.273438 226.917969 429.902344 226.976562 430.988281 226.179688 C 431.691406 225.664062 432.226562 224.628906 433.09375 224.371094 C 433.683594 224.195312 434.367188 224.371094 434.800781 224.804688 C 434.847656 224.851562 434.898438 224.90625 434.957031 224.910156 C 435.003906 224.917969 435.050781 224.902344 435.085938 224.882812 C 435.300781 224.78125 435.488281 224.597656 435.535156 224.367188 C 435.621094 223.910156 434.710938 222.683594 434.425781 222.261719 C 433.957031 221.5625 433.410156 220.90625 432.808594 220.308594 Z M 432.808594 220.308594 " fill-opacity="1" fill-rule="nonzero"/><path fill="#fff9f5" d="M 297.886719 578.363281 C 296.792969 577.269531 295.054688 576.925781 294.117188 575.683594 C 291.890625 572.660156 296.546875 568.394531 295.261719 564.820312 C 293.621094 565.265625 291.988281 565.714844 290.347656 566.109375 C 290.695312 564.375 290.992188 562.636719 291.292969 560.902344 C 290.105469 560.851562 288.910156 560.75 287.722656 560.699219 C 289.261719 559.855469 288.515625 557.226562 286.878906 556.53125 C 285.296875 555.839844 283.40625 556.433594 281.773438 556.976562 C 280.082031 557.523438 278.203125 558.019531 276.660156 557.226562 C 275.96875 556.882812 275.371094 556.335938 274.632812 556.285156 C 273.738281 556.234375 273.046875 556.882812 272.449219 557.472656 C 269.179688 560.847656 266.246094 564.5625 263.769531 568.53125 C 263.871094 566.945312 264.019531 565.40625 264.113281 563.871094 C 263.964844 565.757812 254.445312 573.441406 252.761719 575.078125 C 252.164062 575.671875 251.574219 576.167969 250.925781 576.664062 C 250.386719 581.625 250.53125 586.632812 251.625 591.496094 C 253.808594 601.019531 260.050781 609.941406 269.128906 613.714844 C 278.152344 617.484375 289.855469 615.003906 295.40625 606.96875 C 298.132812 603.050781 299.125 598.488281 299.570312 593.679688 C 298.875 591.742188 298.378906 589.761719 298.476562 587.730469 C 298.683594 584.46875 300.214844 580.59375 297.886719 578.363281 Z M 297.886719 578.363281 " fill-opacity="1" fill-rule="nonzero"/><path fill="#fff9f5" d="M 313.703125 535.117188 C 313.453125 534.171875 313.203125 533.128906 312.414062 532.539062 C 310.828125 531.394531 308.148438 532.835938 306.859375 531.351562 C 305.914062 530.160156 306.757812 528.128906 305.714844 526.984375 C 304.871094 525.996094 303.238281 526.34375 301.996094 526.785156 L 294.558594 529.464844 C 294.113281 527.925781 293.714844 526.339844 293.320312 524.75 C 288.804688 525.394531 284.492188 527.425781 281.171875 530.601562 C 281.121094 529.558594 280.828125 528.519531 280.230469 527.671875 C 280.230469 528.074219 275.914062 530.699219 270.65625 533.777344 C 270.65625 533.777344 270.65625 533.777344 270.605469 533.824219 C 265.597656 539.527344 261.433594 545.828125 258.15625 552.617188 C 259.148438 551.976562 259.992188 551.476562 260.539062 551.132812 C 266.640625 547.511719 273.234375 544.734375 280.074219 542.945312 C 281.113281 542.699219 282.207031 542.449219 283.199219 542.84375 C 284.1875 543.242188 284.835938 544.527344 284.1875 545.371094 C 288.257812 546.710938 292.71875 542.246094 296.585938 543.980469 C 298.816406 544.925781 299.957031 547.703125 302.289062 548.398438 C 304.117188 548.890625 306.351562 548.046875 307.84375 549.285156 C 308.386719 549.730469 308.683594 550.378906 308.9375 551.078125 C 310.765625 547.902344 312.851562 544.878906 315.179688 542.101562 C 314.984375 540.863281 314.679688 539.621094 314.4375 538.429688 C 314.199219 537.347656 313.953125 536.210938 313.703125 535.117188 Z M 313.703125 535.117188 " fill-opacity="1" fill-rule="nonzero"/><path fill="#fff9f5" d="M 325.015625 504.367188 C 318.167969 505.558594 311.425781 507.195312 304.925781 509.675781 C 300.8125 511.214844 296.796875 513.152344 292.980469 515.375 C 296.996094 515.820312 302.84375 514.289062 306.316406 513.941406 C 308.253906 513.742188 310.585938 513.691406 311.824219 515.230469 C 312.566406 516.125 312.71875 517.363281 313.457031 518.257812 C 315.9375 521.429688 322.085938 517.710938 324.761719 520.683594 C 325.503906 521.53125 325.804688 522.769531 326.75 523.359375 C 328.382812 524.402344 330.914062 522.914062 332.351562 524.203125 C 332.300781 525.246094 332.300781 526.339844 332.351562 527.375 C 335.621094 525.34375 339.09375 523.558594 342.664062 521.96875 C 342.664062 521.917969 342.664062 521.917969 342.664062 521.867188 C 341.671875 514.777344 333.09375 508.183594 325.015625 504.367188 Z M 325.015625 504.367188 " fill-opacity="1" fill-rule="nonzero"/><path fill="#fff9f5" d="M 371.816406 500.5 L 361.554688 500.5 C 361.355469 500.5 361.160156 500.5 360.910156 500.449219 C 360.859375 500.5 360.808594 500.5 360.765625 500.449219 C 355.703125 500.945312 350.597656 501.335938 345.535156 501.832031 C 345.683594 503.074219 345.839844 504.363281 345.433594 505.703125 C 347.371094 505.257812 352.726562 506 351.1875 509.273438 C 351.886719 509.570312 352.574219 509.867188 353.269531 510.21875 C 352.375 511.851562 351.4375 513.636719 351.488281 515.574219 C 351.488281 516.511719 351.832031 517.410156 352.425781 518.152344 C 355.898438 516.914062 359.417969 515.871094 362.941406 514.929688 C 362.992188 514.980469 362.992188 514.980469 362.992188 514.929688 C 367.253906 511.804688 371.023438 507.9375 374 503.625 C 374.34375 503.078125 374.742188 502.433594 374.597656 501.789062 C 374.34375 500.695312 372.90625 500.5 371.816406 500.5 Z M 371.816406 500.5 " fill-opacity="1" fill-rule="nonzero"/><path fill="#e2a4a1" d="M 449.003906 236.753906 C 448.835938 237.09375 448.578125 237.417969 448.222656 237.554688 C 447.699219 237.757812 447.097656 237.488281 446.652344 237.132812 C 445.363281 236.101562 444.714844 235.773438 443.027344 235.871094 C 441.597656 235.949219 440.265625 236.21875 439.421875 234.777344 C 438.6875 233.535156 439.132812 232.960938 440.328125 232.425781 C 441.84375 231.742188 443.679688 231.734375 445.261719 231.1875 C 446.667969 230.703125 449.351562 228.1875 450.753906 229.589844 C 451.957031 230.78125 450.1875 231.75 449.757812 232.847656 C 449.261719 234.089844 449.609375 235.527344 449.003906 236.753906 Z M 449.003906 236.753906 " fill-opacity="1" fill-rule="nonzero"/><path fill="#fff9f5" d="M 392.917969 186.777344 C 392.179688 186.332031 391.46875 185.851562 390.882812 185.25 C 391.304688 185.25 391.734375 185.25 392.164062 185.25 C 389.699219 183.621094 387.4375 181.675781 385.457031 179.488281 C 385.035156 179.019531 384.585938 178.519531 383.976562 178.394531 C 383.308594 178.257812 382.609375 178.625 382.199219 179.171875 C 381.191406 180.539062 380.925781 182.539062 381.027344 184.175781 C 381.160156 186.269531 381.777344 188.289062 382.292969 190.324219 C 384.21875 197.953125 384.128906 205.640625 385.113281 213.371094 C 386.003906 212.015625 387.273438 210.257812 387.738281 208.691406 C 388.449219 206.277344 388.6875 203.628906 389.148438 201.160156 C 389.460938 201.421875 389.824219 201.621094 390.21875 201.726562 C 390.417969 200.960938 390.613281 200.195312 390.8125 199.425781 C 391.195312 199.492188 391.578125 199.558594 391.96875 199.628906 C 392.179688 198.90625 392.25 198.136719 392.164062 197.386719 C 392.449219 197.308594 392.742188 197.292969 393.035156 197.34375 C 392.757812 196.492188 392.457031 195.652344 392.140625 194.8125 C 393.855469 195.816406 395.542969 196.855469 397.207031 197.9375 C 396.679688 196.269531 396.148438 194.605469 395.625 192.941406 C 395.546875 192.707031 395.472656 192.453125 395.539062 192.214844 C 395.605469 191.976562 395.867188 191.78125 396.09375 191.875 C 395.675781 191.601562 395.425781 191.085938 395.476562 190.585938 C 396.195312 190.574219 396.90625 190.5625 397.625 190.546875 C 396.699219 188.710938 394.71875 187.855469 392.917969 186.777344 Z M 392.917969 186.777344 " fill-opacity="1" fill-rule="nonzero"/><path fill="#fff9f5" d="M 467.453125 171.222656 C 467.632812 168.78125 468.28125 166.289062 467.648438 163.925781 C 467.515625 163.414062 467.25 162.855469 466.734375 162.734375 C 464.539062 162.203125 460.925781 175.558594 460.289062 177.351562 C 460.953125 176.976562 461.617188 176.609375 462.285156 176.234375 C 462.050781 177.550781 461.605469 178.835938 460.980469 180.011719 C 461.441406 179.953125 461.894531 179.890625 462.351562 179.824219 C 462.367188 181.070312 462.378906 182.308594 462.390625 183.550781 C 462.394531 183.875 462.402344 184.214844 462.539062 184.507812 C 462.664062 184.796875 462.90625 185.011719 463.105469 185.257812 C 463.628906 185.917969 463.84375 186.773438 464.039062 187.601562 C 463.941406 186.933594 464.875 186.511719 465.46875 186.808594 C 466.070312 187.105469 466.359375 187.800781 466.535156 188.445312 C 466.714844 189.09375 466.855469 189.796875 467.316406 190.28125 C 467.78125 190.769531 468.707031 190.878906 469.066406 190.308594 C 469.199219 190.082031 469.222656 189.796875 469.230469 189.53125 C 469.464844 183.386719 466.988281 177.347656 467.453125 171.222656 Z M 467.453125 171.222656 " fill-opacity="1" fill-rule="nonzero"/></svg>