<svg xmlns="http://www.w3.org/2000/svg" xmlns:xlink="http://www.w3.org/1999/xlink" width="1024" zoomAndPan="magnify" viewBox="0 0 768 767.999994" height="1024" preserveAspectRatio="xMidYMid meet" version="1.0"><defs><clipPath id="7b97be4651"><path d="M 280 213 L 509.09375 213 L 509.09375 542 L 280 542 Z M 280 213 " clip-rule="nonzero"/></clipPath><clipPath id="c721881718"><path d="M 465 189.15625 L 506 189.15625 L 506 253 L 465 253 Z M 465 189.15625 " clip-rule="nonzero"/></clipPath><clipPath id="8496b71ed5"><path d="M 258.59375 441 L 439 441 L 439 578 L 258.59375 578 Z M 258.59375 441 " clip-rule="nonzero"/></clipPath></defs><rect x="-76.8" width="921.6" fill="#ffffff" y="-76.799999" height="921.599993" fill-opacity="1"/><rect x="-76.8" width="921.6" fill="#f4d7bf" y="-76.799999" height="921.599993" fill-opacity="1"/><g clip-path="url(#7b97be4651)"><path fill="#fff5ee" d="M 508.832031 327.917969 C 508.488281 335.25 507.671875 342.539062 506.8125 349.828125 C 506.726562 350.863281 506.597656 351.855469 506.464844 352.890625 C 503.328125 379.84375 497.472656 406.367188 490.84375 432.675781 C 488 443.847656 485.074219 454.972656 482.148438 466.144531 C 481.714844 467.609375 481.332031 469.121094 480.941406 470.585938 C 475.648438 477.359375 452.40625 553.652344 401.445312 539.636719 C 386.984375 535.667969 375.015625 531.871094 360.039062 535.582031 C 348.71875 538.34375 342.605469 533.855469 332.015625 530.835938 C 326.464844 529.199219 321.210938 527.300781 316.308594 524.972656 C 310.242188 522.125 271.503906 436.429688 282.738281 385.625 C 295.003906 360.523438 314.460938 338.355469 336.882812 323.171875 C 338.644531 321.964844 340.453125 320.757812 342.351562 319.636719 C 344.375 318.34375 346.480469 317.09375 348.546875 315.886719 C 350.09375 314.980469 351.730469 314.074219 353.320312 313.167969 C 357.582031 310.625 361.714844 307.820312 364.6875 303.9375 C 367.011719 300.875 368.519531 297.296875 370.070312 293.761719 C 370.925781 291.691406 371.828125 289.621094 372.652344 287.550781 C 374.71875 282.71875 376.699219 277.886719 378.71875 273.101562 C 379.363281 271.589844 380.011719 270.082031 380.65625 268.574219 C 381.214844 267.234375 381.777344 265.855469 382.335938 264.519531 C 382.464844 264.304688 382.550781 264 382.636719 263.785156 C 390.6875 251.277344 388.230469 223.460938 415.558594 224.882812 C 416.378906 225.316406 417.28125 224.96875 418.613281 224.410156 C 420.640625 223.546875 422.53125 222.382812 424.46875 221.261719 C 427.394531 219.621094 430.234375 217.941406 433.121094 216.257812 C 433.9375 215.785156 434.753906 215.265625 435.707031 215.136719 C 436.953125 214.878906 438.542969 215.007812 439.105469 213.886719 C 439.191406 213.757812 439.230469 213.582031 439.324219 213.496094 C 439.621094 213.152344 440.136719 213.367188 440.613281 213.496094 C 443.582031 214.707031 447.027344 214.015625 450.296875 214.1875 C 455.03125 214.445312 459.378906 217.078125 464.242188 216.515625 C 464.328125 216.515625 464.457031 216.472656 464.585938 216.425781 C 464.976562 216.382812 465.402344 216.296875 465.789062 216.167969 C 500.179688 215.433594 498.027344 225.871094 504.09375 249.765625 C 504.003906 250.671875 504.003906 251.488281 504.003906 252.394531 L 504.003906 252.871094 C 504.003906 253.386719 503.960938 253.863281 503.960938 254.378906 C 503.917969 258.519531 503.960938 262.617188 504.050781 266.671875 C 504.4375 279.179688 505.644531 291.726562 507.667969 304.0625 C 509.007812 311.960938 509.222656 319.9375 508.832031 327.917969 Z M 508.832031 327.917969 " fill-opacity="1" fill-rule="nonzero"/></g><path fill="#e1c4ac" d="M 504.054688 252.398438 C 504.054688 251.535156 504.054688 250.675781 504.140625 249.8125 L 503.539062 249.207031 C 503.367188 249.078125 503.238281 248.90625 503.066406 248.777344 C 502.980469 246.535156 502.679688 244.207031 502.722656 241.960938 C 502.769531 241.011719 502.894531 240.28125 502.769531 239.332031 C 502.597656 238.167969 502.335938 237.046875 502.125 235.882812 C 500.402344 227.816406 499.542969 219.535156 499.585938 211.296875 C 499.585938 208.539062 499.492188 205.390625 497.390625 203.707031 C 495.238281 202.023438 491.960938 202.757812 489.765625 204.355469 C 486.882812 206.382812 484.988281 209.445312 481.890625 211.210938 C 479.351562 212.679688 476.601562 213.023438 473.753906 213.582031 C 468.976562 214.488281 462.433594 221 470.996094 221.605469 C 472.507812 221.734375 473.964844 221.992188 475.390625 222.425781 C 476.03125 222.640625 476.726562 222.855469 477.28125 223.289062 C 477.714844 223.589844 478.097656 223.976562 478.574219 224.148438 C 479.308594 224.367188 480.082031 224.105469 480.769531 223.847656 C 483.136719 222.941406 485.546875 221.992188 487.914062 221.089844 C 487.308594 224.753906 488.132812 228.679688 490.238281 231.742188 C 490.628906 232.34375 491.144531 232.992188 491.359375 233.683594 C 491.832031 235.191406 491.488281 237.476562 493.039062 237.820312 C 493.511719 237.910156 493.988281 237.777344 494.457031 237.863281 C 495.625 238.125 495.796875 239.503906 496.140625 240.410156 C 496.699219 241.832031 497.476562 243.125 498.03125 244.550781 C 498.074219 244.335938 498.246094 244.117188 498.464844 244.03125 C 498.589844 244.421875 498.679688 244.808594 498.804688 245.195312 C 498.804688 245.285156 498.851562 245.414062 498.976562 245.5 C 499.105469 245.585938 499.277344 245.542969 499.449219 245.585938 C 499.925781 245.671875 500.097656 246.273438 500.398438 246.664062 C 498.375 245.285156 496.3125 244.25 494.160156 242.910156 C 491.019531 240.96875 488.652344 238.039062 485.378906 236.183594 C 484.257812 235.535156 482.925781 234.714844 482.835938 233.378906 C 482.835938 232.863281 483.007812 232.300781 482.75 231.828125 C 482.621094 231.613281 482.40625 231.4375 482.191406 231.265625 C 480.640625 230.144531 478.871094 229.324219 477.15625 228.464844 C 475.90625 227.859375 474.703125 227.253906 473.453125 226.652344 C 473.152344 226.523438 472.808594 226.394531 472.507812 226.4375 C 471.863281 226.523438 471.558594 227.210938 471.042969 227.601562 C 470.3125 228.203125 469.234375 228.074219 468.332031 227.816406 C 466.179688 227.296875 464.152344 226.394531 462.304688 225.183594 C 461.703125 224.753906 461.015625 224.28125 460.285156 224.238281 C 459.503906 224.195312 458.648438 224.796875 458.773438 225.53125 C 455.027344 222.511719 450.550781 220.355469 445.816406 219.363281 C 444.871094 219.148438 443.792969 219.019531 443.019531 219.621094 C 442.507812 219.96875 442.207031 220.570312 441.597656 220.699219 C 441.128906 220.785156 440.652344 220.484375 440.136719 220.441406 C 438.15625 220.226562 437.210938 223.546875 435.230469 223.375 C 435.230469 222.597656 433.980469 222.855469 433.378906 223.375 C 431.785156 224.710938 430.148438 226.089844 428.515625 227.472656 C 428.214844 226.867188 427.867188 226.308594 427.5625 225.703125 C 424.164062 228.507812 422.617188 233.335938 418.78125 235.449219 C 416.199219 236.875 412.886719 236.917969 410.78125 238.945312 C 410.308594 239.375 409.792969 239.976562 409.144531 239.890625 C 408.800781 239.847656 408.539062 239.675781 408.238281 239.589844 C 406.429688 239.203125 405.3125 242.867188 403.71875 241.960938 C 403.332031 241.703125 403.117188 241.230469 402.691406 241.011719 C 402.042969 240.710938 401.3125 241.230469 400.796875 241.746094 C 396.964844 245.414062 392.789062 248.777344 389.390625 252.789062 C 388.75 253.519531 388.140625 254.253906 387.5 254.988281 C 387.347656 255.179688 387.191406 255.375 387.035156 255.570312 C 387.453125 254.582031 387.855469 253.59375 388.234375 252.917969 C 389.738281 249.941406 390.902344 246.792969 391.632812 243.558594 C 391.890625 243.773438 392.101562 243.902344 392.320312 244.074219 C 393.097656 242.222656 393.742188 240.324219 394.300781 238.382812 C 394.386719 238.8125 394.902344 238.945312 395.25 238.8125 C 395.59375 238.640625 395.851562 238.339844 396.066406 237.996094 C 397.09375 236.484375 398.089844 235.105469 399.121094 233.636719 C 399.121094 234.113281 399.804688 234.5 400.324219 234.371094 C 400.839844 234.199219 401.273438 233.726562 401.617188 233.335938 C 402.046875 232.777344 402.523438 232.214844 402.953125 231.65625 C 403.46875 231.007812 404.15625 230.273438 404.976562 230.445312 C 405.148438 230.488281 405.363281 230.621094 405.582031 230.621094 C 405.925781 230.621094 406.183594 230.445312 406.4375 230.273438 C 407.988281 229.238281 409.496094 228.117188 411.003906 227.082031 C 411.089844 227.039062 411.132812 226.996094 411.222656 226.910156 C 411.351562 226.867188 411.480469 226.78125 411.566406 226.695312 C 411.652344 226.566406 411.738281 226.394531 411.824219 226.21875 C 412.726562 224.324219 409.84375 223.890625 408.765625 223.460938 C 401.707031 220.570312 394.433594 218.070312 387.074219 215.957031 C 386.128906 215.695312 385.09375 215.4375 384.191406 215.828125 C 383.113281 216.257812 382.554688 217.507812 382.257812 218.628906 C 379.886719 228.117188 388.800781 237.648438 386.730469 247.179688 C 386.421875 248.441406 385.691406 255.382812 385.542969 257.789062 C 384.785156 259.335938 384.417969 260.949219 383.503906 262.40625 C 382.644531 263.828125 382.515625 265.425781 381.824219 266.890625 C 381.523438 267.496094 381.136719 268.054688 380.660156 268.574219 C 380.015625 270.082031 379.367188 271.589844 378.726562 273.101562 C 376.703125 277.886719 374.722656 282.71875 372.65625 287.507812 C 371.796875 289.621094 370.933594 291.648438 370.03125 293.761719 C 368.566406 297.296875 367.023438 300.875 364.699219 303.9375 C 361.726562 307.863281 357.597656 310.625 353.332031 313.125 C 351.738281 314.074219 350.101562 314.980469 348.558594 315.886719 C 346.449219 317.09375 344.378906 318.34375 342.316406 319.59375 C 342.613281 319.808594 342.875 320.023438 343.128906 320.285156 C 343.738281 321.015625 343.859375 321.964844 344.035156 322.914062 C 344.851562 327.703125 346.578125 332.316406 349.117188 336.542969 C 349.546875 337.234375 350.0625 337.964844 350.832031 338.355469 C 351.738281 338.828125 352.898438 338.699219 353.71875 339.21875 C 354.75 339.820312 355.09375 341.15625 355.359375 342.324219 C 355.574219 343.53125 355.828125 344.824219 356.601562 345.730469 C 357.378906 346.722656 358.972656 347.152344 359.875 346.332031 C 362.546875 350.515625 366.417969 353.96875 370.980469 355.953125 C 368.871094 352.285156 367.023438 348.402344 365.429688 344.4375 C 363.746094 340.382812 362.417969 335.378906 365.085938 331.886719 C 365.429688 331.410156 365.859375 331.023438 366.03125 330.417969 C 366.160156 329.859375 365.988281 329.253906 365.773438 328.652344 C 364.351562 324.207031 362.671875 319.121094 365.042969 315.066406 C 365.644531 313.988281 366.585938 312.910156 366.503906 311.65625 C 366.457031 310.925781 366.070312 310.277344 365.859375 309.589844 C 364.828125 306.308594 367.367188 303.117188 369.691406 300.660156 C 371.199219 298.976562 372.832031 297.296875 374.855469 296.304688 C 376.578125 295.484375 378.691406 295.183594 380.019531 293.761719 C 380.792969 292.898438 381.269531 291.777344 381.957031 290.914062 C 382.644531 289.964844 383.894531 289.273438 385.011719 289.746094 C 385.441406 289.960938 385.789062 290.390625 386.261719 290.476562 C 387.121094 290.738281 387.898438 290.046875 388.628906 289.527344 C 390.824219 287.890625 393.707031 287.199219 396.460938 287.675781 C 396.503906 288.492188 396.546875 289.226562 396.632812 290.003906 C 398.097656 289.789062 399.214844 288.625 400.207031 287.546875 C 401.191406 286.464844 402.230469 285.257812 403.691406 284.914062 C 406.792969 284.050781 406.449219 287.328125 407.996094 288.625 C 409.164062 289.613281 411.785156 288.882812 411.957031 290.996094 C 412 291.425781 411.785156 291.945312 412 292.332031 C 412.171875 292.761719 412.644531 292.894531 413.03125 293.023438 C 414.839844 293.625 416.648438 294.230469 418.503906 294.832031 C 419.105469 295.050781 419.792969 295.265625 420.4375 295.265625 C 421.253906 295.222656 421.984375 294.832031 422.808594 294.703125 C 423.539062 294.660156 424.269531 294.746094 424.960938 294.875 C 427.753906 295.4375 430.425781 296.386719 432.960938 297.636719 C 433.691406 297.980469 434.425781 298.328125 435.203125 298.5 C 436.1875 298.714844 437.183594 298.585938 438.167969 298.757812 C 439.890625 299.015625 441.273438 300.183594 442.773438 301.128906 C 447.765625 304.320312 454.394531 304.667969 459.691406 302.078125 C 460.894531 301.519531 462.058594 300.742188 462.964844 299.75 C 463.820312 298.757812 464.382812 297.507812 465.070312 296.34375 C 467.050781 292.9375 470.019531 290.261719 473.332031 288.148438 C 474.457031 287.414062 475.707031 286.726562 476.347656 285.5625 C 477.078125 284.398438 477.078125 282.628906 475.917969 281.894531 C 479.785156 280.773438 483.320312 278.703125 486.160156 275.898438 C 487.144531 274.953125 488.050781 273.917969 489.257812 273.269531 C 490.335938 272.664062 491.671875 272.449219 492.75 271.804688 C 493.5625 271.371094 494.210938 270.726562 494.945312 270.164062 C 496.710938 268.742188 498.8125 267.75 501.097656 267.273438 C 502.046875 267.058594 503.078125 266.929688 504.113281 266.671875 C 503.984375 262.574219 503.941406 258.476562 504.023438 254.421875 C 504.011719 253.738281 504.054688 253.089844 504.054688 252.398438 Z M 504.054688 252.398438 " fill-opacity="1" fill-rule="nonzero"/><path fill="#e1c4ac" d="M 345.203125 452.359375 C 344.234375 452.558594 343.277344 453.125 342.351562 452.761719 C 341.507812 452.4375 341.101562 451.472656 340.378906 450.949219 C 338.210938 449.335938 334.957031 452.195312 332.625 450.867188 C 330.613281 449.660156 331.097656 446.238281 329.167969 444.863281 C 327.480469 443.617188 325.070312 444.78125 322.976562 444.503906 C 319.199219 443.980469 317.753906 439.1875 314.5 437.21875 C 312.207031 435.851562 309.234375 436.011719 306.945312 434.640625 C 303.609375 432.664062 302.523438 428.035156 299.144531 426.144531 C 297.738281 425.378906 296.050781 425.09375 294.890625 424.007812 C 293.121094 422.277344 293.398438 419.253906 291.875 417.328125 C 290.546875 415.597656 288.054688 415.070312 286.734375 413.34375 C 285.925781 412.292969 285.648438 410.964844 285.40625 409.636719 C 283.917969 401.707031 283.03125 393.691406 282.753906 385.640625 C 276.085938 399.292969 271.503906 413.863281 269.734375 428.683594 C 267.285156 448.980469 270.015625 469.753906 279.621094 489.480469 C 284.644531 499.828125 291.433594 508.082031 299.554688 514.609375 C 304.617188 518.71875 310.242188 522.136719 316.265625 524.960938 C 317.191406 519.722656 309.4375 508.8125 308.433594 506.480469 C 309.519531 507.925781 307.550781 501.527344 305.585938 496.8125 C 306.0625 497.214844 307.191406 496.089844 307.234375 495.121094 C 307.550781 489.042969 307.316406 483.003906 306.503906 477.003906 C 309.441406 474.425781 311.210938 470.5625 311.167969 466.65625 C 313.417969 467.34375 316.03125 465.289062 315.910156 462.914062 C 316.835938 463.277344 317.761719 463.640625 318.6875 464 C 318.007812 462.355469 320.210938 460.863281 321.984375 461.023438 C 323.710938 461.222656 325.359375 462.234375 327.125 462.113281 C 328.773438 462.03125 330.179688 460.980469 331.746094 460.542969 C 336.527344 459.175781 341.710938 463.523438 346.453125 461.910156 C 348.742188 461.144531 350.507812 458.769531 350.269531 456.355469 C 350.0625 453.929688 347.574219 451.839844 345.203125 452.359375 Z M 345.203125 452.359375 " fill-opacity="1" fill-rule="nonzero"/><path fill="#9b8c89" d="M 480.863281 470.398438 C 480.703125 470.199219 480.417969 470.117188 480.136719 470.117188 C 478.609375 469.996094 477.363281 471.285156 476.15625 472.25 C 474.953125 473.257812 473.105469 474.023438 471.976562 473.015625 C 471.773438 472.816406 471.617188 472.613281 471.375 472.53125 C 471.09375 472.449219 470.769531 472.613281 470.53125 472.773438 C 468.964844 473.859375 467.878906 475.953125 465.992188 475.996094 C 465.464844 475.996094 464.945312 475.835938 464.460938 475.996094 C 463.539062 476.238281 463.136719 477.285156 462.699219 478.167969 C 462.292969 479.054688 461.367188 479.941406 460.484375 479.535156 C 459.882812 479.535156 457.792969 484.851562 457.511719 485.574219 C 456.832031 487.550781 457.351562 489.316406 457.632812 491.371094 C 457.835938 492.539062 457.992188 493.746094 457.835938 494.914062 C 457.835938 494.925781 457.824219 494.933594 457.824219 494.945312 C 457.796875 494.339844 457.777344 493.730469 457.734375 493.121094 C 457.617188 491.578125 457.691406 490.695312 456.292969 489.769531 C 455.527344 489.269531 451.152344 488.640625 451.074219 490.457031 C 451.125 489.328125 450.152344 488.253906 449.023438 488.191406 C 448.574219 488.167969 448.121094 488.28125 447.671875 488.25 C 445.277344 488.058594 444.550781 484.058594 442.160156 484.042969 C 441.019531 484.035156 439.953125 485.019531 438.851562 484.71875 C 436.859375 484.179688 436.976562 480.195312 434.925781 480.421875 C 434.0625 480.515625 433.234375 481.46875 432.484375 481.03125 C 432.210938 480.878906 432.0625 480.589844 431.925781 480.3125 C 431.390625 479.234375 430.851562 478.15625 430.3125 477.078125 C 428.652344 480.546875 426.996094 484.011719 425.339844 487.484375 C 425.558594 487.042969 424.941406 486.574219 424.476562 486.71875 C 424.011719 486.859375 423.726562 487.324219 423.492188 487.753906 C 422.480469 489.597656 421.460938 491.445312 420.449219 493.289062 C 419.898438 492.734375 419.34375 492.171875 418.792969 491.613281 C 416.542969 495.84375 419.472656 504.808594 420.453125 509.496094 C 423.0625 522.03125 425.277344 531.121094 429.472656 543.210938 C 429.800781 544.15625 429.230469 544.570312 429.863281 545.347656 C 430.683594 546.351562 431.914062 546.933594 433.140625 547.34375 C 435.980469 548.296875 435.71875 547.042969 438.660156 546.46875 C 441.445312 545.929688 447.433594 546.175781 450.25 545.800781 C 454.40625 545.246094 458.570312 546.574219 462.753906 546.789062 C 466.945312 547.011719 471.808594 545.597656 473.375 541.691406 C 474.503906 538.882812 473.511719 535.613281 471.828125 533.09375 C 471.109375 532.015625 470.238281 531.054688 469.363281 530.089844 C 471.050781 526.386719 471.21875 521.664062 471.382812 517.421875 C 471.703125 509.890625 473.03125 502.523438 474.675781 495.195312 C 475.601562 491.089844 476.648438 487.023438 477.730469 482.957031 C 478.777344 478.808594 479.863281 474.703125 480.984375 470.59375 C 480.9375 470.523438 480.894531 470.441406 480.863281 470.398438 Z M 480.863281 470.398438 " fill-opacity="1" fill-rule="nonzero"/><path fill="#fff5ee" d="M 454.820312 483.597656 C 457.917969 492.746094 456.253906 502.484375 457.808594 511.875 C 458.5 516.03125 459.953125 520.007812 462.578125 523.332031 C 465.25 526.726562 469.066406 529.253906 471.285156 533.007812 C 474.707031 538.792969 470.890625 546.632812 463.714844 545.984375 C 462.484375 545.875 461.453125 545.140625 460.277344 544.972656 C 459.082031 544.796875 457.648438 545.03125 456.421875 545.066406 C 453.121094 545.167969 449.828125 545.273438 446.527344 545.375 C 440.804688 545.558594 434.179688 546.511719 430.539062 541.023438 C 427.554688 536.535156 426.503906 530.417969 425.121094 525.292969 C 421.597656 512.226562 418.914062 498.957031 417.007812 485.558594 C 416.816406 484.191406 414.742188 484.773438 414.933594 486.128906 C 416.894531 499.925781 419.6875 513.589844 423.367188 527.03125 C 424.824219 532.351562 425.953125 538.773438 429.460938 543.210938 C 432.550781 547.113281 437.109375 547.757812 441.808594 547.675781 C 448.25 547.5625 455.324219 546.328125 461.582031 547.765625 C 465.980469 548.773438 470.542969 547.46875 473.101562 543.554688 C 479.609375 533.609375 467.359375 527.261719 462.9375 520.128906 C 456.195312 509.226562 460.886719 494.851562 456.886719 483.019531 C 456.453125 481.71875 454.371094 482.277344 454.820312 483.597656 Z M 454.820312 483.597656 " fill-opacity="1" fill-rule="nonzero"/><path fill="#9b8c89" d="M 482.832031 264.335938 C 482.40625 263.960938 481.804688 263.851562 481.355469 263.503906 C 481.027344 263.25 480.808594 262.894531 480.539062 262.582031 C 479.597656 261.496094 477.992188 261.035156 476.613281 261.457031 C 476.632812 261.0625 476.652344 260.675781 476.671875 260.285156 C 474.023438 258.855469 470.367188 259.832031 468.089844 257.855469 C 466.851562 256.785156 466.085938 254.90625 464.460938 254.722656 C 464.808594 252.84375 464.03125 250.800781 462.535156 249.617188 C 462.078125 249.253906 461.546875 248.960938 461.191406 248.496094 C 460.90625 248.117188 460.753906 247.660156 460.59375 247.210938 C 459.953125 245.410156 458.820312 243.480469 456.9375 243.132812 C 456.433594 243.035156 455.859375 243.042969 455.488281 242.6875 C 455.007812 242.226562 455.148438 241.433594 455.054688 240.769531 C 454.800781 238.964844 452.773438 238.078125 451.035156 237.523438 C 450.511719 237.355469 449.976562 237.1875 449.433594 237.253906 C 447.242188 237.496094 446.503906 241.046875 444.304688 241.074219 C 444.28125 240.855469 444.253906 240.632812 444.230469 240.414062 C 439.558594 245.445312 436.015625 251.523438 433.929688 258.066406 C 433.75 258.632812 433.578125 259.210938 433.265625 259.710938 C 432.195312 261.433594 429.886719 261.816406 427.867188 262.023438 C 426.242188 262.191406 424.613281 262.355469 422.988281 262.523438 C 423.152344 263.476562 422.121094 264.191406 421.203125 264.488281 C 420.28125 264.785156 419.1875 265.03125 418.773438 265.90625 C 418.558594 266.347656 418.578125 266.863281 418.464844 267.339844 C 418.132812 268.699219 416.820312 269.53125 415.820312 270.503906 C 414.746094 271.542969 413.949219 272.867188 413.535156 274.308594 C 413.390625 274.832031 413.285156 275.375 413.355469 275.910156 C 413.472656 276.792969 414.039062 277.613281 413.933594 278.492188 C 413.878906 278.90625 413.691406 279.296875 413.457031 279.683594 C 412.808594 280.734375 411.808594 281.695312 412.421875 282.660156 C 413.269531 283.996094 415.886719 282.71875 416.710938 284.070312 C 417.152344 284.785156 416.722656 285.808594 417.183594 286.5 C 418.082031 287.851562 420.734375 286.238281 421.65625 287.570312 C 421.882812 287.890625 421.945312 288.335938 422.277344 288.542969 C 422.753906 288.847656 423.339844 288.421875 423.828125 288.136719 C 424.878906 287.519531 426.273438 287.539062 427.304688 288.191406 C 428.128906 288.714844 428.660156 289.539062 429.410156 290.136719 C 430.183594 290.753906 430.800781 290.722656 431.644531 291.054688 C 433.847656 291.925781 435.566406 293.253906 438.007812 293.566406 C 438.921875 293.683594 439.917969 293.710938 440.636719 294.285156 C 441.40625 294.902344 441.792969 296.089844 442.765625 296.257812 C 443.617188 296.402344 444.503906 295.632812 445.304688 295.972656 C 445.898438 296.226562 446.238281 297.039062 446.878906 297.019531 C 447.417969 297.007812 447.753906 296.414062 448.261719 296.25 C 449.109375 295.976562 449.804688 296.941406 450.625 297.300781 C 451.609375 297.734375 452.914062 297.054688 453.128906 296 C 455.757812 297.585938 459.175781 295.769531 461.222656 293.476562 C 463.269531 291.179688 464.847656 288.285156 467.597656 286.917969 C 468.222656 286.605469 468.914062 286.378906 469.460938 285.9375 C 469.960938 285.53125 470.3125 284.980469 470.667969 284.445312 C 473.167969 280.683594 476.40625 276.511719 480.535156 274.496094 C 481.882812 273.835938 482.992188 273.386719 483.621094 271.910156 C 484.480469 269.882812 484.28125 267.269531 483.429688 265.285156 C 483.285156 264.929688 483.109375 264.582031 482.832031 264.335938 Z M 482.832031 264.335938 " fill-opacity="1" fill-rule="nonzero"/><path fill="#9b8c89" d="M 376.039062 213.066406 C 377.378906 215.789062 378.195312 218.726562 378.796875 221.703125 C 379.230469 223.910156 379.578125 226.113281 379.964844 228.316406 C 380.742188 232.71875 381.6875 237.042969 382.679688 241.40625 C 383.152344 243.4375 383.417969 245.722656 384.191406 247.667969 C 384.753906 249.097656 384.878906 250.304688 385.269531 251.8125 C 385.3125 251.984375 385.3125 252.070312 385.3125 252.246094 C 385.40625 253.5 385.355469 254.75 385.140625 256.003906 C 385.011719 256.652344 384.925781 257.300781 384.707031 257.902344 C 384.621094 258.378906 384.449219 258.808594 384.320312 259.28125 C 383.847656 260.839844 383.242188 262.261719 382.636719 263.777344 C 383.71875 262.222656 384.75 260.710938 385.828125 259.195312 C 386.089844 258.894531 386.558594 258.550781 386.777344 258.894531 C 387.25 256.90625 387.722656 254.921875 388.242188 252.933594 C 388.542969 251.59375 388.847656 250.300781 389.148438 249.003906 C 389.234375 248.617188 389.320312 248.226562 389.578125 247.925781 C 389.707031 247.796875 389.84375 247.625 389.972656 247.410156 C 390.097656 247.152344 390.097656 246.847656 390.058594 246.546875 C 389.800781 242.914062 390.058594 238.855469 389.324219 235.316406 C 389.0625 233.800781 388.417969 232.335938 387.988281 230.824219 C 387.859375 230.175781 387.167969 226.242188 386.691406 226.027344 C 389.148438 227.019531 391.519531 228.1875 393.800781 229.566406 C 393.714844 228.703125 393.675781 227.792969 393.585938 226.933594 C 395.226562 227.148438 396.820312 227.578125 398.367188 228.1875 C 398.199219 227.109375 398.023438 225.984375 397.898438 224.90625 C 397.984375 225.335938 399.621094 225.898438 399.964844 226.074219 C 401.132812 226.632812 402.207031 227.414062 403.328125 228.058594 C 403.671875 228.320312 404.058594 228.492188 404.492188 228.445312 C 404.921875 228.359375 405.269531 227.886719 405.054688 227.539062 C 405.871094 227.496094 406.773438 227.886719 407.597656 227.886719 C 408.503906 227.929688 409.539062 227.28125 409.367188 226.460938 C 409.839844 227.023438 410.53125 227.109375 411.21875 226.9375 C 411.566406 226.894531 411.910156 226.765625 412.210938 226.632812 C 413.113281 226.160156 413.933594 225.464844 414.925781 225.292969 C 415.183594 225.25 415.527344 225.207031 415.832031 225.164062 C 415.789062 225.078125 415.65625 224.992188 415.570312 224.90625 C 415.523438 224.90625 415.480469 224.863281 415.441406 224.820312 C 414.835938 224.257812 414.191406 223.742188 413.542969 223.179688 C 413.457031 223.136719 413.421875 223.09375 413.328125 223.007812 C 412.640625 222.402344 411.953125 221.753906 411.300781 221.105469 C 410.441406 220.15625 409.539062 219.246094 408.585938 218.382812 C 404.621094 214.5 400.226562 211.039062 395.609375 207.972656 C 391.597656 205.292969 387.117188 202.921875 382.289062 202.835938 C 380.476562 202.792969 378.621094 203.136719 377.070312 204.128906 C 376.554688 204.476562 376.039062 204.90625 375.652344 205.429688 C 374.960938 206.246094 374.527344 207.199219 374.445312 208.234375 L 374.445312 208.625 C 374.445312 208.925781 374.488281 209.230469 374.570312 209.53125 C 374.789062 210.777344 375.4375 211.898438 376.039062 213.066406 Z M 376.039062 213.066406 " fill-opacity="1" fill-rule="nonzero"/><g clip-path="url(#c721881718)"><path fill="#9b8c89" d="M 505.0625 215.183594 C 505.015625 214.449219 505.015625 213.671875 504.972656 212.9375 C 504.886719 208.964844 504.972656 205.03125 505.316406 201.144531 C 505.488281 198.8125 505.789062 196.480469 505.617188 194.144531 C 505.617188 193.84375 505.617188 193.585938 505.574219 193.328125 C 505.527344 193.023438 505.484375 192.679688 505.402344 192.378906 C 505.355469 192.160156 505.3125 191.988281 505.273438 191.773438 C 505.101562 191.257812 504.839844 190.78125 504.542969 190.390625 C 504.28125 190.042969 503.9375 189.785156 503.550781 189.613281 C 503.25 189.527344 502.945312 189.484375 502.644531 189.484375 C 502.300781 189.398438 501.914062 189.441406 501.570312 189.484375 C 500.921875 189.527344 500.316406 189.65625 499.675781 189.785156 C 497.476562 190.214844 495.320312 191.039062 493.378906 192.25 C 492.085938 192.980469 490.925781 193.890625 489.84375 194.925781 C 487.863281 196.824219 486.308594 199.070312 484.503906 201.144531 C 482.433594 203.4375 480.105469 205.460938 477.730469 207.449219 C 477.609375 207.582031 477.472656 207.667969 477.34375 207.800781 C 477.34375 207.800781 477.300781 207.800781 477.300781 207.84375 C 475.144531 209.703125 473.035156 211.902344 470.707031 213.632812 C 469.972656 214.148438 469.242188 214.625 468.464844 215.011719 C 468.078125 215.269531 467.691406 215.441406 467.261719 215.613281 C 466.785156 215.832031 466.3125 216.003906 465.796875 216.175781 C 466.226562 216.78125 466.742188 217.296875 467.347656 217.726562 C 468.511719 218.632812 470.019531 219.242188 471.441406 219.585938 C 477.6875 221.144531 484.589844 219.371094 489.328125 215.054688 C 489.800781 214.617188 490.359375 214.101562 490.96875 214.234375 C 492.171875 214.40625 492.089844 216.21875 491.574219 217.34375 C 493.296875 216.21875 495.023438 215.183594 496.785156 214.234375 C 497.007812 215.488281 496.742188 216.828125 496.011719 217.863281 C 496.527344 216.957031 497.824219 216.519531 498.726562 217.042969 C 497.480469 219.851562 496.484375 222.789062 495.710938 225.8125 C 496.355469 225.636719 497.007812 225.464844 497.605469 225.335938 C 496.4375 229.222656 497.347656 233.457031 498.464844 237.34375 C 499.152344 239.632812 499.890625 241.964844 500.75 244.214844 C 501.4375 245.984375 502.34375 247.367188 502.300781 249.269531 L 502.300781 249.3125 C 502.300781 249.613281 502.300781 249.871094 502.214844 250.175781 C 502.300781 250.042969 502.472656 249.957031 502.601562 249.957031 C 502.601562 250.390625 502.816406 250.863281 503.207031 251.078125 C 503.378906 251.726562 503.675781 252.335938 504.023438 252.894531 L 504.023438 252.421875 C 504.023438 251.515625 504.023438 250.695312 504.113281 249.785156 C 504.113281 249.226562 504.113281 248.660156 504.15625 248.097656 C 504.203125 247.152344 504.246094 246.242188 504.285156 245.292969 C 504.328125 244.386719 504.328125 243.476562 504.375 242.527344 C 504.375 242.140625 504.375 241.707031 504.417969 241.273438 C 504.460938 239.84375 504.546875 238.421875 504.675781 236.957031 C 505.148438 232.636719 505.492188 228.316406 505.457031 223.996094 C 505.457031 223.347656 505.414062 222.65625 505.414062 222.011719 C 505.316406 219.714844 505.1875 217.46875 505.0625 215.183594 Z M 505.0625 215.183594 " fill-opacity="1" fill-rule="nonzero"/></g><g clip-path="url(#8496b71ed5)"><path fill="#9b8c89" d="M 429.613281 536.382812 C 424.867188 532.832031 418.917969 531.328125 413.046875 530.53125 C 398.519531 528.558594 385.988281 530.945312 372.070312 533.667969 C 358.199219 536.375 339.523438 532.792969 326.332031 528.359375 C 309.257812 522.617188 294.199219 511.023438 284.265625 495.976562 C 274.324219 480.925781 269.570312 462.507812 270.976562 444.515625 C 271.074219 443.238281 270.972656 441.582031 269.757812 441.191406 C 262.023438 438.6875 259.621094 463.207031 259.199219 467.492188 C 258.820312 471.339844 258.691406 475.21875 258.816406 479.082031 C 259.105469 487.882812 260.703125 496.632812 263.597656 504.9375 C 266.925781 514.464844 271.878906 523.328125 276.898438 532.078125 C 280.175781 537.796875 283.527344 543.535156 287.898438 548.464844 C 293.371094 554.640625 300.304688 559.371094 307.582031 563.238281 C 317.429688 568.476562 328.046875 572.253906 338.984375 574.40625 C 350.730469 576.71875 362.753906 577.15625 374.722656 577.589844 C 389.820312 578.136719 405.1875 578.652344 419.785156 574.738281 C 424.507812 573.472656 429.21875 571.683594 432.878906 568.4375 C 442.503906 559.910156 439.183594 543.566406 429.613281 536.382812 Z M 429.613281 536.382812 " fill-opacity="1" fill-rule="nonzero"/></g><path fill="#7a7472" d="M 453.667969 284.570312 C 453.667969 283.757812 453.667969 282.953125 453.667969 282.140625 C 455.011719 281.191406 455.652344 279.515625 456.710938 278.234375 C 457.230469 277.605469 457.878906 277.066406 458.320312 276.378906 C 458.769531 275.691406 458.984375 274.769531 458.582031 274.054688 C 457.972656 272.976562 456.375 273.011719 455.242188 273.511719 C 454.109375 274.011719 453.058594 274.839844 451.816406 274.894531 C 451.316406 274.917969 450.824219 274.808594 450.332031 274.703125 C 449.027344 274.417969 446.714844 273.40625 445.386719 273.949219 C 444.15625 274.449219 443.539062 276.535156 444.367188 277.609375 C 444.890625 278.355469 445.882812 278.566406 446.753906 278.832031 C 448.566406 279.386719 450.214844 280.429688 451.519531 281.800781 C 451.519531 282.824219 451.519531 283.847656 451.519531 284.871094 C 451.1875 285.25 450.839844 285.621094 450.46875 285.972656 C 450.28125 286.148438 450.089844 286.324219 449.894531 286.492188 C 449.796875 286.578125 449.695312 286.660156 449.601562 286.742188 C 449.539062 286.785156 449.488281 286.832031 449.433594 286.875 C 449.425781 286.878906 449.414062 286.890625 449.40625 286.894531 C 448.605469 287.570312 447.640625 288.109375 446.703125 288.566406 C 446.199219 288.816406 446.019531 289.578125 446.316406 290.042969 C 446.652344 290.5625 447.25 290.695312 447.792969 290.425781 C 449.695312 289.488281 451.417969 288.152344 452.839844 286.574219 C 454.304688 287.566406 455.804688 288.503906 457.398438 289.265625 C 457.90625 289.507812 458.582031 289.425781 458.875 288.878906 C 459.128906 288.398438 459.03125 287.660156 458.488281 287.402344 C 456.796875 286.601562 455.207031 285.625 453.667969 284.570312 Z M 453.667969 284.570312 " fill-opacity="1" fill-rule="nonzero"/><path fill="#7a7472" d="M 469.019531 263.78125 C 468.910156 263.273438 468.742188 262.679688 469.082031 262.289062 C 469.210938 262.136719 469.394531 262.050781 469.546875 261.921875 C 470.34375 261.238281 469.804688 260.214844 468.949219 259.996094 C 468.210938 259.804688 467.398438 259.964844 466.65625 260.046875 C 464.988281 260.234375 463.355469 260.835938 461.996094 261.828125 C 460.03125 263.261719 458.664062 265.550781 458.472656 267.984375 C 458.417969 268.601562 458.460938 269.277344 458.863281 269.746094 C 459.269531 270.214844 460.128906 270.300781 460.445312 269.773438 C 460.597656 269.523438 460.554688 269.078125 460.785156 268.894531 C 461.039062 268.699219 461.558594 268.847656 461.808594 268.964844 C 462.195312 269.140625 462.527344 269.421875 462.898438 269.621094 C 463.871094 270.132812 465.078125 270.035156 466.082031 269.589844 C 468.230469 268.640625 469.523438 266.074219 469.019531 263.78125 Z M 469.019531 263.78125 " fill-opacity="1" fill-rule="nonzero"/><path fill="#7a7472" d="M 444.148438 268.339844 C 443.261719 266.066406 441.292969 264.273438 438.996094 263.460938 C 437.40625 262.90625 435.675781 262.804688 434.023438 263.105469 C 433.289062 263.238281 432.464844 263.320312 431.8125 263.714844 C 431.058594 264.171875 430.835938 265.308594 431.796875 265.734375 C 431.980469 265.816406 432.183594 265.847656 432.351562 265.953125 C 432.789062 266.230469 432.796875 266.847656 432.835938 267.363281 C 433.011719 269.707031 434.988281 271.789062 437.316406 272.078125 C 438.40625 272.21875 439.589844 271.960938 440.371094 271.191406 C 440.671875 270.894531 440.910156 270.527344 441.230469 270.246094 C 441.441406 270.066406 441.886719 269.765625 442.1875 269.882812 C 442.460938 269.988281 442.550781 270.425781 442.765625 270.625 C 443.222656 271.039062 444.027344 270.707031 444.277344 270.144531 C 444.523438 269.574219 444.371094 268.917969 444.148438 268.339844 Z M 444.148438 268.339844 " fill-opacity="1" fill-rule="nonzero"/><path fill="#7a7472" d="M 490.78125 279.578125 C 483.433594 276.867188 475.820312 274.152344 467.871094 274.679688 C 466.496094 274.769531 466.484375 276.925781 467.871094 276.835938 C 475.636719 276.320312 483.035156 279.011719 490.210938 281.65625 C 491.511719 282.140625 492.074219 280.058594 490.78125 279.578125 Z M 490.78125 279.578125 " fill-opacity="1" fill-rule="nonzero"/><path fill="#7a7472" d="M 467.621094 279.683594 C 466.292969 279.277344 465.726562 281.359375 467.050781 281.761719 C 472.496094 283.425781 477.597656 286.128906 482.015625 289.734375 C 483.082031 290.605469 484.613281 289.089844 483.539062 288.210938 C 478.824219 284.363281 473.441406 281.460938 467.621094 279.683594 Z M 467.621094 279.683594 " fill-opacity="1" fill-rule="nonzero"/><path fill="#7a7472" d="M 437.691406 277.050781 C 430.089844 276.808594 422.640625 279.449219 416.820312 284.332031 C 415.757812 285.226562 417.285156 286.742188 418.34375 285.859375 C 423.726562 281.339844 430.683594 278.988281 437.691406 279.207031 C 439.078125 279.25 439.078125 277.09375 437.691406 277.050781 Z M 437.691406 277.050781 " fill-opacity="1" fill-rule="nonzero"/><path fill="#7a7472" d="M 439.140625 281.542969 C 433.453125 284.097656 428.277344 287.742188 423.925781 292.21875 C 422.957031 293.210938 424.476562 294.742188 425.449219 293.746094 C 429.679688 289.390625 434.691406 285.894531 440.234375 283.410156 C 440.769531 283.167969 440.882812 282.398438 440.621094 281.933594 C 440.304688 281.378906 439.671875 281.304688 439.140625 281.542969 Z M 439.140625 281.542969 " fill-opacity="1" fill-rule="nonzero"/></svg>