<svg xmlns="http://www.w3.org/2000/svg" xmlns:xlink="http://www.w3.org/1999/xlink" width="1024" zoomAndPan="magnify" viewBox="0 0 768 767.999994" height="1024" preserveAspectRatio="xMidYMid meet" version="1.0"><defs><clipPath id="5ac6cb90d7"><path d="M 407 243 L 546 243 L 546 526.722656 L 407 526.722656 Z M 407 243 " clip-rule="nonzero"/></clipPath></defs><rect x="-76.8" width="921.6" fill="#ffffff" y="-76.799999" height="921.599993" fill-opacity="1"/><rect x="-76.8" width="921.6" fill="#c9c3c0" y="-76.799999" height="921.599993" fill-opacity="1"/><path fill="#7f746f" d="M 592.71875 386.476562 C 592.417969 387.773438 592.121094 389.074219 591.71875 390.320312 C 591.421875 391.46875 591.066406 392.570312 590.621094 393.714844 C 588.820312 398.960938 586.324219 403.953125 583.378906 408.691406 C 581.832031 411.238281 580.179688 413.6875 578.386719 416.035156 C 574.539062 421.175781 570.199219 425.921875 565.355469 430.0625 C 563.855469 431.359375 562.257812 432.605469 560.660156 433.804688 C 546.226562 444.339844 528.449219 449.578125 510.671875 451.328125 C 505.828125 451.824219 500.386719 451.878906 496.792969 448.582031 C 492.542969 444.6875 492.898438 437.449219 496.339844 432.855469 C 499.785156 428.210938 505.425781 425.761719 511.023438 424.371094 C 517.914062 422.621094 544.675781 414.035156 559.804688 394.714844 C 561.457031 392.570312 563.003906 390.320312 564.351562 387.921875 C 565.550781 385.777344 566.648438 383.480469 567.5 381.082031 C 568.695312 377.789062 569.597656 374.34375 569.992188 370.597656 C 570.292969 368.253906 570.445312 365.808594 570.34375 363.261719 C 570.34375 362.808594 570.292969 362.3125 570.292969 361.863281 C 570.140625 359.019531 569.894531 356.273438 569.644531 353.726562 C 569.496094 351.878906 569.292969 350.128906 569.046875 348.433594 L 569.046875 348.382812 C 568.75 346.285156 568.445312 344.339844 568.09375 342.492188 L 568.09375 342.4375 C 566.300781 317.320312 540.097656 286.753906 555.660156 285.230469 L 555.710938 285.28125 C 565.148438 294.417969 572.84375 305.101562 578.882812 316.730469 C 584.476562 327.511719 588.621094 339.050781 591.320312 350.828125 C 593.96875 362.515625 595.265625 374.792969 592.71875 386.476562 Z M 592.71875 386.476562 " fill-opacity="1" fill-rule="nonzero"/><path fill="#f7e9df" d="M 559.589844 351.117188 C 558.796875 363.566406 559.03125 375.824219 557.445312 388.222656 C 554.929688 407.941406 549.894531 427.382812 542.621094 445.933594 C 539.589844 453.765625 534.972656 460.199219 532.128906 468.121094 C 528.910156 476.980469 525.367188 485.742188 520.285156 493.761719 C 513.246094 504.761719 503.035156 514.273438 490.492188 517.859375 C 483.3125 519.957031 475.386719 519.679688 468.53125 522.988281 C 467.226562 523.640625 465.921875 524.386719 464.523438 524.851562 C 461.210938 525.878906 457.4375 525.085938 454.871094 522.753906 C 454.171875 522.148438 453.519531 521.449219 452.726562 520.984375 C 451 520.003906 448.902344 520.472656 446.945312 520.097656 C 442.421875 519.210938 439.90625 513.617188 441.304688 509.191406 C 442.65625 504.808594 446.945312 501.777344 451.46875 500.707031 C 452.960938 500.332031 454.589844 500.148438 455.992188 499.496094 C 459.675781 497.722656 459.394531 492.457031 455.058594 492.175781 C 451.886719 491.988281 448.4375 494.507812 445.78125 495.859375 C 411.835938 512.875 373.042969 517.394531 335.136719 517.207031 C 321.152344 517.160156 307.117188 516.507812 293.128906 515.714844 C 283.851562 515.203125 274.574219 514.597656 265.339844 514.085938 C 260.679688 513.851562 256.0625 513.574219 251.445312 513.386719 C 249.300781 513.292969 246.832031 513.527344 244.78125 513.011719 C 242.960938 512.59375 241.84375 512.6875 239.929688 512.875 C 238.90625 512.964844 237.878906 512.917969 236.804688 512.875 C 232.84375 512.640625 228.878906 512.453125 224.917969 512.21875 C 221.933594 512.035156 218.902344 511.894531 215.917969 511.476562 C 214.195312 511.289062 212.46875 510.960938 210.789062 510.589844 C 208.925781 510.167969 206.964844 509.703125 205.101562 510.121094 C 203.421875 510.496094 201.976562 511.566406 200.347656 512.21875 C 199.085938 512.6875 197.78125 512.828125 196.429688 512.78125 C 195.355469 512.734375 194.191406 512.21875 193.164062 512.5 C 192.234375 512.734375 191.582031 513.527344 190.882812 514.132812 C 189.0625 515.578125 186.40625 515.855469 184.351562 514.832031 C 184.027344 514.691406 183.699219 514.457031 183.328125 514.503906 C 183 514.550781 182.769531 514.738281 182.488281 514.878906 C 180.671875 515.902344 178.199219 515.34375 176.660156 513.898438 C 175.121094 512.453125 174.46875 510.261719 174.46875 508.164062 C 174.46875 505.835938 175.261719 503.503906 176.660156 501.640625 C 177.78125 500.148438 179.269531 498.933594 180.855469 497.863281 C 182.953125 496.371094 185.144531 495.019531 187.570312 494.179688 C 189.390625 493.527344 191.300781 493.15625 193.164062 492.828125 C 201 491.335938 208.832031 490.542969 215.917969 486.628906 C 222.074219 483.273438 227.386719 478.519531 231.398438 472.785156 C 235.035156 467.609375 237.597656 460.992188 235.734375 454.976562 C 233.214844 446.867188 221.699219 442.019531 215.03125 438.101562 C 211.394531 436.003906 206.921875 434.605469 204.027344 431.484375 C 200.8125 427.988281 198.339844 423.792969 196.847656 419.269531 C 195.871094 416.148438 195.355469 412.699219 196.710938 409.761719 C 197.828125 407.429688 199.925781 405.75 201.605469 403.835938 C 205.613281 399.222656 205.566406 393.765625 207.664062 388.40625 C 208.367188 386.636719 209.25 385.097656 210.371094 383.699219 C 211.257812 382.394531 212.375 381.179688 213.449219 379.96875 C 215.171875 378.246094 216.851562 376.519531 218.34375 374.421875 C 221.1875 370.507812 222.304688 365.332031 222.398438 360.53125 C 222.445312 360.15625 222.445312 359.691406 222.445312 359.273438 C 222.445312 351.8125 220.8125 344.355469 222.167969 336.988281 C 222.351562 336.105469 222.585938 335.078125 223.472656 334.707031 C 223.84375 334.472656 224.265625 334.472656 224.730469 334.519531 C 224.871094 334.566406 225.011719 334.613281 225.148438 334.660156 C 225.476562 334.707031 225.851562 334.847656 226.128906 334.984375 C 229.625 336.476562 233.03125 337.96875 236.480469 339.460938 L 236.527344 339.460938 C 237.414062 334.800781 238.671875 329.996094 238.71875 325.335938 C 238.71875 322.214844 237.878906 317.457031 240.863281 315.3125 C 243.660156 313.214844 247.578125 315.78125 250 318.34375 C 256.390625 325.011719 261.703125 332.703125 265.761719 341.046875 C 266.085938 341.746094 266.414062 342.492188 266.738281 343.238281 C 267.019531 343.890625 267.347656 344.589844 267.625 345.335938 C 269.628906 350.320312 271.636719 356.195312 274.292969 361.371094 C 277.417969 368.640625 281.796875 375.738281 287.90625 377.3125 C 312.292969 383.605469 375.144531 305.105469 382.601562 281.566406 C 384.375 279.839844 386.191406 278.070312 388.058594 276.4375 C 389.363281 275.226562 390.714844 274.105469 392.066406 272.941406 C 398.921875 273.546875 408.433594 272.148438 418.878906 269.722656 C 450.023438 262.40625 536.511719 269.421875 545.605469 289.441406 C 549.566406 298.8125 552.085938 309.019531 554.414062 318.902344 C 556.980469 329.769531 560.289062 340.117188 559.589844 351.117188 Z M 559.589844 351.117188 " fill-opacity="1" fill-rule="nonzero"/><path fill="#f0c3a3" d="M 568.101562 342.445312 C 563.65625 319.082031 554.265625 312.089844 545.730469 302.605469 C 538.988281 295.121094 530.601562 289.675781 521.558594 285.234375 C 517.914062 283.386719 514.117188 281.738281 510.277344 280.144531 C 510.023438 279.09375 509.925781 278.046875 509.925781 276.996094 C 509.925781 274.351562 510.425781 270.257812 511.871094 267.109375 C 511.871094 267.058594 511.921875 267.011719 511.921875 266.960938 C 512.574219 265.015625 514.117188 262.917969 516.066406 261.171875 C 517.066406 261.519531 518.113281 261.871094 519.113281 262.265625 C 532.34375 267.058594 544.527344 274.648438 554.714844 284.332031 C 555.011719 284.632812 555.363281 284.929688 555.660156 285.234375 L 555.710938 285.285156 C 555.964844 286.132812 556.507812 286.882812 557.0625 287.679688 C 560.40625 292.472656 563.804688 297.265625 567.148438 302.109375 C 565.355469 301.609375 563.605469 301.109375 561.804688 300.660156 C 562.058594 304.800781 563.003906 308.945312 564.648438 312.792969 C 563.898438 312.890625 563.101562 312.988281 562.351562 313.140625 C 562.902344 317.785156 565.050781 322.078125 566.398438 326.519531 C 568.003906 331.660156 568.597656 337.101562 568.101562 342.445312 Z M 568.101562 342.445312 " fill-opacity="1" fill-rule="nonzero"/><path fill="#f0c3a3" d="M 274.292969 361.375 C 271.636719 356.199219 269.628906 350.328125 267.625 345.339844 C 267.347656 344.59375 267.019531 343.894531 266.738281 343.242188 C 266.414062 342.496094 266.085938 341.75 265.761719 341.050781 C 261.703125 332.707031 256.390625 325.015625 250 318.347656 C 247.578125 315.785156 243.660156 313.222656 240.863281 315.320312 C 237.878906 317.464844 238.71875 322.21875 238.71875 325.339844 C 238.671875 330.003906 237.414062 334.804688 236.527344 339.464844 L 236.480469 339.464844 C 233.03125 337.972656 229.625 336.480469 226.128906 334.992188 C 225.851562 334.851562 225.476562 334.710938 225.148438 334.664062 C 225.011719 334.617188 224.871094 334.570312 224.730469 334.523438 C 224.265625 334.476562 223.84375 334.476562 223.472656 334.710938 C 222.585938 335.082031 222.351562 336.109375 222.167969 336.996094 C 220.8125 344.359375 222.445312 351.816406 222.445312 359.277344 C 222.445312 359.695312 222.445312 360.164062 222.398438 360.535156 C 222.304688 365.335938 221.1875 370.511719 218.34375 374.425781 C 216.851562 376.523438 215.171875 378.25 213.449219 379.972656 C 212.375 381.1875 211.257812 382.398438 210.371094 383.703125 C 213.167969 382.585938 215.546875 379.832031 218.390625 380.578125 C 218.390625 380.8125 218.34375 381.09375 218.25 381.324219 C 218.015625 382.210938 217.503906 383.050781 217.175781 383.890625 C 216.851562 384.773438 216.664062 385.847656 216.992188 386.6875 C 217.039062 386.6875 217.039062 386.6875 217.039062 386.6875 C 218.53125 386.871094 220.488281 385.800781 221.792969 386.640625 C 223.519531 387.757812 222.121094 390.460938 222.445312 392.464844 C 222.773438 394.378906 224.730469 395.542969 226.640625 395.917969 C 228.601562 396.242188 230.558594 396.007812 232.425781 396.429688 C 234.148438 396.753906 235.734375 397.59375 236.898438 398.851562 C 238.578125 399.414062 240.117188 400.15625 241.609375 401.089844 C 244.125 402.675781 246.269531 404.726562 248.742188 406.40625 C 249.207031 406.730469 249.769531 407.105469 250.328125 407.382812 C 252.378906 408.546875 254.664062 409.292969 256.949219 409.0625 C 258.207031 408.921875 259.511719 408.503906 260.773438 408.734375 C 261.84375 408.921875 262.871094 409.574219 263.988281 409.855469 C 266.554688 410.273438 268.839844 408.316406 270.328125 406.21875 C 273.265625 402.164062 274.898438 397.269531 277.882812 393.210938 C 280.539062 389.578125 284.363281 386.734375 286.554688 382.722656 C 287.582031 380.90625 287.90625 379.132812 287.90625 377.316406 C 281.941406 375.265625 277.417969 368.644531 274.292969 361.375 Z M 274.292969 361.375 " fill-opacity="1" fill-rule="nonzero"/><path fill="#f0c3a3" d="M 386.390625 316.230469 C 383.695312 315.683594 380.746094 315.835938 377.949219 315.785156 L 377.898438 315.785156 C 375.101562 315.6875 372.457031 315.382812 370.210938 313.738281 C 366.914062 311.394531 356.074219 323.476562 338.699219 332.210938 C 332.457031 338.648438 326.21875 345.089844 321.070312 352.128906 C 318.972656 355.03125 316.777344 358.023438 314.382812 360.820312 C 312.011719 366.972656 302.546875 377.597656 302.101562 380.9375 C 301.699219 384.285156 301.050781 387.628906 299.851562 390.921875 C 298.453125 394.71875 295.261719 398.660156 296.453125 402.953125 C 299.453125 414.085938 308.539062 399.910156 314.132812 402.308594 C 316.277344 403.207031 317.179688 405.851562 319.078125 407.195312 C 322.074219 409.347656 326.367188 407.695312 329.011719 405.152344 C 335.652344 398.8125 337.351562 388.425781 341.296875 380.488281 C 345.042969 372.800781 355.378906 367.808594 363.519531 373.046875 C 368.363281 376.140625 369.910156 382.480469 370.160156 388.171875 C 370.410156 393.910156 369.808594 399.90625 371.957031 405.195312 C 372.910156 407.542969 374.457031 409.742188 376.75 410.738281 C 379.894531 412.035156 383.542969 410.789062 386.589844 409.289062 C 388.382812 408.390625 390.234375 407.339844 390.980469 405.496094 C 391.578125 404.046875 391.378906 402.453125 390.980469 400.949219 C 389.382812 394.007812 384.886719 387.417969 385.9375 380.378906 C 387.089844 372.589844 394.226562 366.449219 397.421875 359.410156 C 400.769531 352.121094 402.0625 343.882812 401.015625 335.898438 C 399.871094 327.265625 394.929688 318.078125 386.390625 316.230469 Z M 386.390625 316.230469 " fill-opacity="1" fill-rule="nonzero"/><g clip-path="url(#5ac6cb90d7)"><path fill="#f0c3a3" d="M 532.546875 268.9375 C 532.035156 268.46875 531.570312 267.957031 531.058594 267.539062 C 526.628906 263.296875 521.5 259.800781 516.371094 256.582031 C 510.261719 252.714844 503.96875 249.03125 497.253906 246.421875 C 497.066406 246.328125 496.878906 246.28125 496.695312 246.1875 C 494.269531 245.347656 491.84375 244.648438 489.421875 243.859375 C 489 243.859375 417.339844 259.425781 417.152344 261.570312 C 417.152344 261.570312 420.460938 264.601562 418.878906 269.730469 C 418.878906 269.824219 418.832031 269.960938 418.785156 270.054688 C 415.195312 280.730469 415.660156 291.683594 415.984375 303.898438 C 416.03125 305.667969 416.078125 307.441406 416.171875 309.257812 C 416.3125 317.648438 413.703125 324.457031 410.671875 332.148438 C 405.867188 344.035156 409.691406 350.375 412.347656 362.074219 C 414.585938 371.910156 411.042969 381.976562 408.851562 391.8125 C 406.613281 401.648438 406.101562 413.257812 413.003906 420.621094 C 415.242188 423 418.085938 424.769531 420.042969 427.429688 C 421.859375 429.804688 422.699219 432.789062 424.425781 435.210938 C 428.015625 440.292969 434.402344 442.066406 440.277344 444.628906 C 442.421875 445.515625 444.519531 446.632812 446.339844 448.03125 C 448.625 449.710938 450.441406 451.992188 451.746094 454.464844 C 453.144531 457.261719 453.9375 460.382812 453.890625 463.460938 C 453.824219 468.058594 454.859375 476.066406 461.8125 472.96875 C 462.378906 472.722656 462.871094 472.355469 463.316406 471.90625 C 462.4375 476.855469 461.535156 481.792969 460.53125 486.71875 C 460.050781 489.058594 459.925781 492.347656 458.785156 494.507812 C 456.875 498.113281 453.90625 498.121094 450.613281 499.125 C 444.335938 501.046875 438.941406 506.863281 440.1875 513.808594 C 441.253906 519.703125 447.085938 522.996094 452.527344 521.035156 C 454.28125 523.753906 456.925781 525.636719 460.21875 526.105469 C 465.402344 526.847656 468.261719 522.609375 473 521.933594 C 475.824219 521.535156 478.757812 522.378906 481.644531 522.136719 C 484.339844 521.910156 486.992188 521.273438 489.542969 520.378906 C 495.207031 518.382812 500.355469 515.191406 505.394531 511.988281 C 506.65625 511.1875 505.488281 509.167969 504.21875 509.972656 C 495.667969 515.40625 486.753906 520.691406 476.253906 519.675781 C 472.78125 519.339844 470.589844 519.898438 467.582031 521.667969 C 462.699219 524.539062 457.015625 524.644531 453.996094 519.0625 C 453.683594 518.480469 452.945312 518.375 452.398438 518.644531 C 445.976562 521.832031 440.894531 514.796875 442.84375 508.863281 C 444.460938 503.945312 449.085938 501.882812 453.710938 500.789062 C 461.015625 499.0625 461.398438 494.128906 462.785156 487.335938 C 466.542969 468.914062 469.390625 450.324219 471.417969 431.636719 C 471.519531 430.695312 470.648438 430.425781 469.941406 430.667969 C 470.578125 425.683594 471.507812 420.757812 473.105469 415.945312 C 474.140625 412.835938 475.445312 409.796875 475.996094 406.570312 C 477.308594 398.871094 474.183594 391.160156 470.894531 384.070312 C 464.648438 370.582031 462.007812 356.925781 462.007812 342.074219 C 462.007812 335.457031 458.839844 330.003906 458.28125 323.335938 C 457.671875 315.644531 461.589844 308.140625 467.09375 302.734375 C 471.335938 298.628906 477.164062 294.109375 482.710938 291.964844 C 488.398438 289.773438 491.804688 293.175781 496.746094 296.113281 C 502.621094 299.609375 510.171875 299.515625 516.328125 296.8125 C 519.3125 295.507812 522.4375 293.457031 524.347656 290.753906 C 526.726562 287.441406 527.191406 284.785156 531.480469 282.96875 C 532.738281 282.457031 534.046875 282.035156 535.398438 282.269531 C 536.515625 282.457031 537.542969 283.15625 538.476562 283.855469 C 540.945312 285.625 543.324219 287.488281 545.609375 289.449219 C 542.386719 281.894531 538.285156 274.855469 532.546875 268.9375 Z M 532.546875 268.9375 " fill-opacity="1" fill-rule="nonzero"/></g><path fill="#f0c3a3" d="M 199.703125 420.015625 C 199.601562 420.128906 199.53125 420.257812 199.492188 420.414062 C 199.417969 420.691406 199.449219 421.066406 199.609375 421.308594 C 199.769531 421.558594 200.003906 421.777344 200.304688 421.84375 C 200.589844 421.910156 200.957031 421.910156 201.199219 421.726562 C 201.726562 421.332031 202.253906 420.929688 202.773438 420.535156 C 204.402344 421.445312 206.382812 421.480469 208.066406 420.644531 C 208.613281 420.375 208.808594 419.554688 208.480469 419.050781 C 208.121094 418.488281 207.476562 418.34375 206.886719 418.632812 C 206.878906 418.636719 206.554688 418.777344 206.746094 418.703125 C 206.660156 418.738281 206.566406 418.765625 206.476562 418.800781 C 206.289062 418.855469 206.105469 418.886719 205.917969 418.929688 C 205.796875 418.957031 206.042969 418.929688 205.828125 418.9375 C 205.710938 418.945312 205.601562 418.953125 205.484375 418.953125 C 205.292969 418.953125 205.101562 418.949219 204.910156 418.921875 C 205.078125 418.945312 204.894531 418.910156 204.820312 418.898438 C 204.730469 418.878906 204.636719 418.855469 204.542969 418.828125 C 204.445312 418.800781 204.347656 418.761719 204.25 418.730469 C 204.042969 418.660156 204.304688 418.765625 204.191406 418.707031 C 204.039062 418.621094 203.882812 418.550781 203.734375 418.460938 C 203.660156 418.414062 203.589844 418.359375 203.515625 418.316406 C 203.246094 418.132812 203.671875 418.460938 203.421875 418.246094 C 203.292969 418.128906 203.167969 418.011719 203.046875 417.886719 C 202.984375 417.820312 202.933594 417.75 202.871094 417.691406 C 202.785156 417.597656 202.953125 417.8125 202.835938 417.636719 C 202.722656 417.472656 202.617188 417.304688 202.523438 417.121094 C 202.476562 417.03125 202.433594 416.949219 202.398438 416.859375 C 202.472656 417.023438 202.375 416.789062 202.363281 416.761719 C 202.074219 415.964844 201.960938 415.121094 201.835938 414.285156 C 201.75 413.679688 200.953125 413.296875 200.402344 413.476562 C 199.734375 413.691406 199.492188 414.257812 199.585938 414.910156 C 199.726562 415.894531 199.882812 416.871094 200.277344 417.796875 C 200.460938 418.230469 200.703125 418.617188 200.96875 418.984375 C 200.652344 419.226562 200.332031 419.46875 200.011719 419.71875 C 199.894531 419.789062 199.785156 419.890625 199.703125 420.015625 Z M 199.703125 420.015625 " fill-opacity="1" fill-rule="nonzero"/><path fill="#f0c3a3" d="M 242.121094 510.929688 C 231.492188 514.207031 220.78125 509.804688 210.0625 509.480469 C 207.820312 509.414062 205.5625 509.527344 203.347656 509.910156 C 200.871094 510.335938 198.546875 511.550781 196.074219 511.894531 C 194.351562 512.132812 192.628906 511.019531 191.027344 511.558594 C 189.878906 511.945312 189.203125 513.589844 187.800781 514.035156 C 186 514.597656 184.375 514.121094 182.863281 513.121094 C 182.191406 512.675781 181.554688 513.101562 181.296875 513.699219 C 177.429688 515.070312 175.230469 510.324219 175.84375 506.984375 C 176.351562 504.230469 178.09375 501.84375 180.167969 500.039062 C 184.800781 496.011719 191.132812 494.914062 196.921875 493.589844 C 208.976562 490.824219 220.84375 487.332031 232.488281 483.191406 C 233.890625 482.695312 233.285156 480.441406 231.867188 480.945312 C 223.285156 484 214.589844 486.707031 205.777344 489.019531 C 198.136719 491.023438 189.539062 491.886719 182.503906 495.652344 C 177.507812 498.324219 172.820312 503.476562 173.410156 509.53125 C 173.863281 514.171875 178.238281 517.566406 182.636719 515.679688 C 184.070312 516.421875 185.609375 516.773438 187.269531 516.53125 C 188.191406 516.398438 189.070312 516.109375 189.890625 515.65625 C 190.535156 515.300781 191.371094 514.1875 191.9375 513.953125 C 192.460938 513.738281 193.980469 514.347656 194.847656 514.347656 C 196.015625 514.351562 197.15625 514.066406 198.265625 513.746094 C 201.511719 512.808594 204.492188 511.898438 207.917969 511.808594 C 219.625 511.511719 231.132812 516.765625 242.75 513.183594 C 244.171875 512.734375 243.5625 510.480469 242.121094 510.929688 Z M 242.121094 510.929688 " fill-opacity="1" fill-rule="nonzero"/><path fill="#e2a4a1" d="M 257.722656 364.394531 C 257.140625 357.90625 256.558594 351.375 254.828125 345.097656 C 253.378906 339.84375 251.023438 334.621094 248.664062 329.726562 C 247.585938 327.488281 246.410156 324.5 244.5 322.8125 C 242.328125 320.890625 242.09375 323.691406 241.820312 325.511719 C 241.355469 328.5 240.898438 331.488281 240.441406 334.476562 C 239.894531 338.058594 239.347656 341.632812 238.792969 345.214844 C 238.503906 347.082031 238.21875 348.953125 237.929688 350.820312 C 238.535156 349.832031 239.140625 348.839844 239.75 347.851562 C 239.910156 348.183594 240.074219 348.511719 240.238281 348.839844 C 241.160156 347.578125 242.003906 346.253906 242.765625 344.882812 C 242.917969 346.476562 243.097656 348.148438 243.996094 349.472656 C 244.355469 350.007812 244.816406 350.464844 245.246094 350.945312 C 246.433594 352.292969 247.488281 353.933594 248.214844 355.582031 C 248.804688 356.917969 248.710938 358.367188 249.324219 359.683594 C 249.539062 359.507812 250.542969 358.808594 250.550781 358.53125 C 250.480469 360.671875 250.664062 362.816406 251.09375 364.914062 C 251.152344 365.203125 251.222656 365.496094 251.410156 365.71875 C 251.832031 366.207031 252.683594 366.070312 253.140625 365.605469 C 253.589844 365.140625 253.753906 364.472656 253.902344 363.84375 C 254.566406 368.230469 255.425781 373 258.757812 375.933594 C 258.40625 372.085938 258.066406 368.242188 257.722656 364.394531 Z M 257.722656 364.394531 " fill-opacity="1" fill-rule="nonzero"/><path fill="#e2a4a1" d="M 224.730469 342.863281 C 223.621094 343.804688 224.917969 350.992188 225.0625 352.476562 C 225.398438 355.824219 225.976562 359.152344 227.019531 362.347656 C 227.699219 359.804688 228.375 357.253906 229.058594 354.703125 C 229.851562 351.71875 229.835938 348.265625 228.410156 345.421875 C 227.882812 344.378906 226.050781 341.75 224.730469 342.863281 Z M 224.730469 342.863281 " fill-opacity="1" fill-rule="nonzero"/><path fill="#e2a4a1" d="M 203.398438 409.675781 C 202.917969 409.710938 202.46875 409.894531 202.019531 410.074219 C 201.113281 410.441406 198.597656 410.925781 198.171875 411.886719 C 198.054688 412.160156 198.054688 412.46875 198.066406 412.761719 C 198.085938 413.640625 198.199219 414.621094 198.871094 415.1875 C 199.324219 415.570312 199.949219 415.679688 200.542969 415.675781 C 201.207031 415.675781 201.9375 415.511719 202.339844 414.984375 C 202.605469 414.644531 202.691406 414.203125 202.8125 413.789062 C 203.132812 412.710938 203.761719 411.722656 204.605469 410.980469 C 204.699219 410.902344 204.796875 410.820312 204.839844 410.707031 C 204.914062 410.519531 204.832031 410.304688 204.699219 410.148438 C 204.398438 409.785156 203.878906 409.644531 203.398438 409.675781 Z M 203.398438 409.675781 " fill-opacity="1" fill-rule="nonzero"/><path fill="#7f746f" d="M 224.519531 406.9375 C 219.519531 407.117188 214.546875 407.890625 209.730469 409.253906 C 208.289062 409.65625 208.902344 411.910156 210.351562 411.5 C 214.976562 410.195312 219.722656 409.445312 224.527344 409.265625 C 226.019531 409.210938 226.027344 406.878906 224.519531 406.9375 Z M 224.519531 406.9375 " fill-opacity="1" fill-rule="nonzero"/><path fill="#7f746f" d="M 226.09375 415.339844 C 221.410156 414.058594 216.574219 413.351562 211.71875 413.238281 C 210.214844 413.207031 210.214844 415.535156 211.71875 415.570312 C 216.375 415.675781 220.976562 416.351562 225.472656 417.585938 C 226.921875 417.988281 227.542969 415.738281 226.09375 415.339844 Z M 226.09375 415.339844 " fill-opacity="1" fill-rule="nonzero"/><path fill="#7f746f" d="M 382.59375 281.589844 C 375.753906 288.378906 369.511719 295.816406 363.367188 303.351562 C 358.972656 308.792969 354.578125 314.289062 350.132812 319.675781 C 346.539062 323.96875 342.59375 328.113281 338.695312 332.207031 C 339.246094 333.457031 340.042969 334.601562 340.59375 335.800781 C 343.042969 340.996094 342.09375 347.082031 342.691406 352.824219 C 343.042969 355.921875 344.039062 359.214844 346.585938 361.066406 C 348.980469 362.863281 352.375 362.863281 355.226562 361.8125 C 357.324219 360.964844 359.273438 359.519531 360.121094 357.421875 C 361.117188 354.925781 360.316406 352.128906 359.867188 349.484375 C 358.269531 339.949219 362.066406 329.714844 369.402344 323.472656 C 372.351562 321.023438 375.898438 318.976562 377.894531 315.785156 L 377.945312 315.785156 C 378.042969 315.636719 378.144531 315.488281 378.242188 315.285156 C 380.386719 311.445312 379.992188 306.75 380.886719 302.457031 C 382.285156 296.117188 386.578125 289.578125 383.929688 283.632812 C 383.597656 282.882812 383.195312 282.183594 382.59375 281.589844 Z M 382.59375 281.589844 " fill-opacity="1" fill-rule="nonzero"/><path fill="#7f746f" d="M 490.800781 246.140625 C 490.605469 245.242188 490.050781 244.492188 489.402344 243.84375 C 489.253906 243.792969 489.148438 243.792969 489.003906 243.746094 C 478.617188 241.148438 467.683594 241.648438 457.148438 243.351562 C 443.960938 245.492188 431.128906 249.636719 419.148438 255.53125 C 409.457031 260.21875 400.371094 266.117188 392.082031 272.949219 C 392.082031 277.09375 393.929688 280.941406 395.328125 284.785156 C 397.824219 291.675781 397.722656 299.214844 401.066406 305.753906 C 402.5625 308.699219 404.3125 313.191406 407.957031 312.441406 C 408.210938 312.390625 408.507812 312.292969 408.753906 312.144531 C 411.300781 310.796875 413.847656 305.753906 415.796875 304.054688 C 415.847656 304.003906 415.945312 303.957031 415.996094 303.90625 C 419.789062 300.664062 424.785156 299.714844 429.175781 297.417969 C 431.972656 295.871094 434.222656 293.675781 436.917969 292.023438 C 444.605469 287.285156 452.292969 285.484375 458.140625 277.949219 C 461.832031 273.253906 464.28125 267.613281 468.128906 263.074219 C 471.773438 258.78125 476.667969 255.535156 482.058594 253.839844 C 484.105469 253.1875 486.25 252.738281 488.050781 251.589844 C 489.90625 250.382812 491.304688 248.234375 490.800781 246.140625 Z M 490.800781 246.140625 " fill-opacity="1" fill-rule="nonzero"/><path fill="#7f746f" d="M 314.382812 360.816406 C 311.039062 364.808594 307.289062 368.402344 302.847656 370.847656 C 300.101562 372.394531 297.101562 373.441406 293.707031 373.890625 C 283.921875 375.140625 278.273438 369.148438 274.285156 361.359375 C 274.679688 364.558594 276.078125 368.152344 276.382812 369.5 C 276.878906 372.097656 277.429688 374.839844 279.226562 376.789062 C 280.921875 378.636719 283.71875 379.683594 284.519531 382.082031 C 285.113281 383.875 284.316406 385.824219 283.820312 387.667969 C 283.269531 389.515625 283.222656 391.8125 284.71875 393.011719 C 286.414062 394.359375 289.011719 393.308594 290.613281 391.8125 C 292.957031 389.566406 294.457031 386.621094 296.804688 384.425781 C 298.398438 383.027344 300.25 382.03125 302.09375 380.929688 C 302.792969 380.53125 303.496094 380.132812 304.140625 379.679688 C 307.789062 377.179688 310.484375 373.539062 313.027344 369.894531 C 314.777344 367.398438 316.527344 364.105469 314.976562 361.507812 C 314.832031 361.265625 314.632812 361.015625 314.382812 360.816406 Z M 314.382812 360.816406 " fill-opacity="1" fill-rule="nonzero"/><path fill="#7f746f" d="M 253.601562 388.285156 C 251.292969 386.570312 248.589844 385.386719 245.761719 384.859375 C 244.480469 384.617188 243.082031 384.46875 242.121094 383.582031 C 240.675781 382.242188 240.871094 379.839844 239.683594 378.269531 C 238.28125 376.417969 235.394531 376.25 233.972656 374.417969 C 232.644531 372.703125 233.117188 370.203125 234.035156 368.234375 C 234.601562 367.027344 234.988281 365.09375 233.6875 364.800781 C 232.96875 364.636719 232.324219 365.230469 231.84375 365.785156 C 229.765625 368.210938 228.082031 370.980469 226.890625 373.941406 C 226.339844 375.304688 225.871094 376.738281 224.914062 377.84375 C 223.324219 379.671875 220.230469 379.625 218.253906 381.332031 C 217.703125 381.777344 217.207031 382.28125 216.757812 382.78125 C 215.960938 383.679688 215.261719 385.125 216.007812 386.121094 C 216.257812 386.472656 216.605469 386.621094 217.003906 386.671875 C 218.5 386.867188 220.5 385.773438 221.796875 386.621094 C 223.496094 387.769531 222.097656 390.460938 222.445312 392.460938 C 222.746094 394.359375 224.746094 395.558594 226.640625 395.90625 C 228.585938 396.257812 230.535156 396.003906 232.433594 396.40625 C 234.128906 396.753906 235.730469 397.601562 236.875 398.847656 C 237.175781 399.046875 237.328125 399.25 237.523438 399.496094 C 239.972656 402.492188 240.621094 405.238281 244.714844 406.289062 C 246.261719 406.683594 248.507812 407.484375 250.304688 407.382812 C 251.460938 407.335938 252.300781 406.628906 252.914062 405.527344 C 254.925781 401.914062 254.539062 394.070312 254.867188 391.265625 C 254.933594 390.726562 254.992188 390.171875 254.808594 389.664062 C 254.609375 389.085938 254.105469 388.664062 253.601562 388.285156 Z M 253.601562 388.285156 " fill-opacity="1" fill-rule="nonzero"/><path fill="#7f746f" d="M 215.964844 398.839844 C 216.15625 398.648438 216.351562 398.460938 216.5625 398.285156 C 216.613281 398.242188 216.664062 398.195312 216.714844 398.152344 C 216.96875 397.949219 216.609375 398.222656 216.761719 398.117188 C 216.875 398.035156 216.980469 397.953125 217.09375 397.878906 C 217.554688 397.5625 218.050781 397.296875 218.558594 397.0625 C 218.65625 397.015625 218.664062 397.019531 218.558594 397.0625 C 218.621094 397.039062 218.683594 397.011719 218.75 396.988281 C 218.875 396.941406 219.003906 396.894531 219.136719 396.851562 C 219.390625 396.765625 219.652344 396.691406 219.914062 396.628906 C 220.046875 396.597656 220.179688 396.570312 220.3125 396.539062 C 220.394531 396.527344 220.480469 396.511719 220.5625 396.492188 C 220.570312 396.492188 220.613281 396.488281 220.644531 396.484375 C 220.683594 396.480469 220.746094 396.472656 220.753906 396.472656 C 220.824219 396.464844 220.890625 396.457031 220.953125 396.453125 C 221.109375 396.4375 221.257812 396.429688 221.410156 396.425781 C 222.023438 396.402344 222.605469 395.90625 222.578125 395.257812 C 222.546875 394.648438 222.0625 394.066406 221.410156 394.09375 C 218.75 394.195312 216.1875 395.300781 214.308594 397.191406 C 213.882812 397.625 213.84375 398.414062 214.308594 398.84375 C 214.777344 399.273438 215.503906 399.300781 215.964844 398.839844 Z M 215.964844 398.839844 " fill-opacity="1" fill-rule="nonzero"/></svg>