<svg xmlns="http://www.w3.org/2000/svg" xmlns:xlink="http://www.w3.org/1999/xlink" width="1024" zoomAndPan="magnify" viewBox="0 0 768 767.999994" height="1024" preserveAspectRatio="xMidYMid meet" version="1.0"><defs><clipPath id="5911dbc2e0"><path d="M 262.308594 213 L 502 213 L 502 536 L 262.308594 536 Z M 262.308594 213 " clip-rule="nonzero"/></clipPath></defs><rect x="-76.8" width="921.6" fill="#ffffff" y="-76.799999" height="921.599993" fill-opacity="1"/><rect x="-76.8" width="921.6" fill="#f1eaea" y="-76.799999" height="921.599993" fill-opacity="1"/><path fill="#fff9f5" d="M 498.492188 482.902344 C 498.492188 483.351562 498.449219 483.753906 498.40625 484.203125 C 497.960938 488.375 496.339844 492.414062 494.8125 496.359375 C 493.148438 500.441406 491.53125 504.570312 489.910156 508.652344 C 489.238281 510.359375 488.519531 512.152344 487.214844 513.453125 C 485.101562 515.515625 481.777344 516.140625 480.023438 518.476562 C 478.898438 520 478.632812 522.023438 477.417969 523.457031 C 476.199219 524.890625 473.28125 525.113281 472.875 523.277344 C 471.933594 534.3125 457.996094 533.6875 450.988281 538.039062 C 448.921875 539.339844 447.664062 541.269531 446.492188 543.332031 C 445.144531 545.75 443.707031 547.996094 441.726562 549.96875 C 441.324219 550.421875 440.871094 550.820312 440.332031 551.089844 C 439.570312 551.492188 438.710938 551.628906 437.816406 551.628906 C 436.960938 551.671875 436.109375 551.628906 435.300781 551.3125 C 434.671875 551.136719 434.089844 550.777344 433.457031 550.640625 C 432.0625 550.324219 430.941406 551 429.683594 551.359375 C 428.46875 551.628906 427.34375 552.121094 426.175781 552.523438 C 425.410156 552.792969 424.601562 553.105469 423.746094 553.152344 C 421.542969 553.375 419.523438 552.164062 417.410156 551.445312 C 416.285156 551.042969 414.847656 550.863281 414.035156 551.761719 C 413.71875 552.074219 413.542969 552.523438 413.089844 552.65625 C 412.867188 552.703125 412.644531 552.65625 412.414062 552.609375 C 411.339844 552.382812 410.167969 552.027344 409.453125 551.171875 C 408.238281 549.832031 408.421875 547.765625 408.6875 545.972656 L 375.648438 543.007812 C 376.101562 545.070312 375.066406 547.3125 373.269531 548.394531 C 371.472656 549.421875 369 549.199219 367.421875 547.808594 C 367.0625 547.496094 366.707031 547.136719 366.253906 547.003906 C 365.3125 546.777344 364.503906 547.71875 363.875 548.4375 C 361.757812 550.90625 358.074219 552.25 355.152344 550.859375 C 354.207031 550.367188 353.355469 549.648438 352.410156 549.203125 C 350.792969 548.484375 348.996094 548.660156 347.238281 548.753906 C 344.769531 548.929688 342.207031 548.976562 340.003906 547.855469 C 336.40625 546.105469 334.203125 539.0625 330.066406 538.972656 C 328.09375 538.925781 326.292969 539.914062 324.359375 540.273438 C 319.683594 541.171875 315.1875 538.433594 310.960938 536.238281 C 310.691406 536.101562 310.421875 535.96875 310.109375 535.832031 C 307.519531 518.34375 298.546875 500.613281 292.503906 483.953125 C 288.699219 473.457031 284.878906 462.910156 282.730469 451.957031 C 280.558594 440.863281 280.136719 429.511719 279.71875 418.21875 C 279.359375 408.476562 278.996094 398.707031 279.789062 388.988281 C 280.15625 384.484375 280.796875 379.90625 282.800781 375.855469 C 287.015625 367.328125 296.363281 362.707031 305.34375 359.53125 C 314.324219 356.355469 323.945312 353.8125 330.964844 347.386719 C 344.441406 335.039062 346.242188 320.597656 345.996094 303.207031 C 345.863281 293.882812 345.695312 284.394531 348.316406 275.445312 C 350.941406 266.5 356.851562 258.007812 365.574219 254.675781 C 371.9375 252.242188 379.148438 252.796875 385.617188 254.929688 C 392.089844 257.0625 397.957031 260.679688 403.675781 264.382812 C 415.6875 272.171875 425.945312 281.160156 436.871094 290.261719 C 441.4375 294.070312 446.167969 293.046875 452.042969 293.769531 C 459.613281 294.699219 467.109375 296.257812 474.398438 298.5 C 479.777344 300.148438 485.058594 302.160156 490.097656 304.664062 C 492.507812 305.859375 500.960938 309.222656 501.863281 311.925781 C 501.910156 312.0625 502 312.148438 502.046875 312.285156 C 502.898438 313.945312 503.753906 315.652344 504.5625 317.3125 C 500.289062 316.953125 499.121094 322.964844 499.527344 327.183594 C 500.335938 335.660156 501.148438 344.09375 502 352.527344 C 502.179688 354.589844 502.359375 356.65625 502.582031 358.71875 C 502.941406 362.710938 503.089844 361.160156 503.492188 365.15625 C 503.390625 367.582031 501.363281 365.5625 500.648438 368.363281 C 500.378906 369.667969 500.105469 370.96875 499.839844 372.269531 C 474.402344 422.628906 498.632812 480.390625 498.492188 482.902344 Z M 498.492188 482.902344 " fill-opacity="1" fill-rule="nonzero"/><g clip-path="url(#5911dbc2e0)"><path fill="#bbb3b0" d="M 482.324219 312.304688 C 484.523438 312.53125 487.027344 312.003906 488.242188 310.148438 C 491.882812 311.132812 495.632812 311.738281 499.386719 311.925781 C 499.839844 311.964844 500.292969 311.964844 500.789062 312.003906 C 501.167969 312.003906 501.507812 312.003906 501.886719 311.925781 C 498.550781 305.457031 494.988281 299.101562 491.273438 292.894531 C 491.613281 293.007812 492.03125 293.085938 492.371094 293.125 C 493.660156 293.085938 496.011719 293.046875 497.414062 292.859375 C 497.453125 292.859375 497.453125 292.859375 497.523438 292.859375 C 498.09375 292.78125 498.511719 292.632812 498.511719 292.519531 C 496.351562 285.972656 490.628906 281.28125 486.304688 275.871094 C 483.046875 271.671875 480.425781 266.070312 481.453125 260.660156 C 482.441406 255.667969 486.570312 253.207031 488.957031 248.96875 C 490.054688 247.152344 490.851562 244.808594 489.867188 242.917969 C 488.6875 240.683594 485.734375 240.269531 483.308594 239.511719 C 478.226562 237.808594 474.628906 233.496094 470.386719 230.28125 C 465.761719 226.800781 460.1875 224.492188 454.464844 223.808594 C 447.828125 223.015625 440.476562 226.082031 434.144531 224.492188 C 427.851562 222.941406 423.832031 212.574219 417.316406 213.558594 C 415.34375 213.820312 413.753906 215.296875 411.929688 216.09375 C 409.320312 217.226562 406.394531 217.039062 403.554688 216.847656 C 398.320312 216.507812 393.050781 216.207031 387.78125 215.828125 C 386.304688 215.75 384.675781 215.636719 383.347656 216.355469 C 382.019531 217.152344 381.226562 219.003906 382.171875 220.179688 C 373.453125 219.835938 364.734375 219.460938 356.054688 219.117188 C 354.386719 219.003906 352.679688 218.96875 351.277344 219.875 C 349.949219 220.707031 349.269531 222.863281 350.480469 224 C 346.347656 223.847656 342.21875 224.71875 338.464844 226.421875 C 338.652344 227.441406 338.882812 228.5 339.070312 229.484375 C 332.4375 229.21875 328.761719 237.429688 322.582031 239.511719 C 319.585938 240.570312 316.402344 240.117188 313.253906 240.34375 C 310.148438 240.609375 306.734375 242.007812 305.789062 244.960938 C 305.257812 246.664062 305.671875 248.59375 304.992188 250.257812 C 303.703125 253.511719 299.34375 253.925781 296.460938 255.894531 C 293.355469 257.898438 291.949219 261.71875 291.117188 265.316406 C 290.398438 268.417969 290.964844 273.75 289.296875 276.398438 C 287.742188 278.898438 283.6875 280.03125 281.296875 281.660156 C 272.503906 287.484375 266.4375 297.324219 265.226562 307.804688 C 265.074219 308.785156 265.035156 309.808594 265.527344 310.679688 C 266.550781 312.644531 269.394531 312.417969 271.59375 312.417969 C 283.800781 312.570312 286.945312 325.207031 286.339844 335.269531 C 286.1875 336.933594 286.039062 338.523438 285.808594 340.1875 C 285.621094 341.4375 285.429688 342.722656 285.242188 343.972656 C 284.863281 346.960938 284.445312 349.988281 283.6875 352.9375 C 282.550781 357.402344 280.65625 361.71875 280.351562 366.332031 C 280.160156 368.222656 280.3125 370.191406 279.746094 372.007812 C 278.457031 376.054688 273.945312 380.257812 276.597656 383.585938 C 277.089844 384.152344 277.8125 384.605469 278.304688 385.175781 C 278.53125 385.402344 278.683594 385.667969 278.835938 386.007812 C 279.214844 386.953125 278.871094 388.050781 278.53125 388.996094 C 275.234375 397.355469 268.5625 405.1875 270.003906 414.003906 C 270.230469 415.480469 270.722656 416.917969 270.683594 418.394531 C 270.683594 420.359375 269.851562 422.140625 269.015625 423.917969 C 267.234375 427.738281 265.414062 431.523438 263.671875 435.34375 C 262.421875 437.992188 262.269531 442.492188 265.148438 442.417969 C 266.476562 458.460938 267.234375 474.464844 267.425781 490.542969 C 268.03125 489.257812 270.078125 489.371094 271.0625 490.355469 C 272.050781 491.339844 272.316406 492.8125 272.578125 494.214844 C 273.71875 500.457031 275.082031 506.660156 276.863281 512.789062 C 277.320312 514.339844 277.847656 516.042969 279.175781 517.101562 C 279.859375 517.59375 280.730469 517.898438 281.375 518.425781 C 283.609375 520.242188 283.042969 523.761719 284.671875 526.109375 C 286.300781 528.378906 289.488281 528.792969 292.179688 529.511719 C 294.90625 530.230469 297.941406 532.3125 297.484375 535.074219 C 301.125 532.503906 306.054688 533.828125 310.109375 535.832031 C 310.488281 535.640625 310.828125 535.492188 311.132812 535.265625 C 311.703125 534.886719 312.195312 534.507812 312.460938 533.902344 C 312.800781 533.183594 312.6875 532.386719 312.535156 531.632812 C 311.550781 525.464844 310.527344 519.335938 309.503906 513.128906 C 308.707031 508.476562 307.949219 503.710938 308.628906 499.054688 C 310.261719 487.59375 319.964844 479.042969 323.871094 468.144531 C 325.765625 462.925781 325.652344 456 320.949219 453.050781 C 319.132812 451.988281 316.933594 451.648438 315.265625 450.4375 C 312.117188 448.167969 311.585938 443.703125 308.894531 441.019531 C 306.546875 438.671875 302.867188 437.839844 300.933594 435.230469 C 299.34375 433.074219 299.039062 429.820312 296.765625 428.382812 C 295.476562 427.550781 293.808594 427.550781 292.40625 426.90625 C 288.957031 425.46875 287.78125 421.269531 287.175781 417.597656 C 285.921875 409.957031 285.355469 402.046875 286.644531 394.445312 C 287.175781 391.152344 288.046875 387.9375 289.449219 384.871094 C 290.585938 382.222656 293.882812 379.273438 294.566406 376.660156 C 294.792969 375.828125 294.792969 375.109375 294.679688 374.503906 C 296.347656 373.558594 298.015625 372.652344 299.609375 371.707031 C 300.59375 371.0625 301.65625 370.417969 302.867188 370.269531 C 303.777344 370.152344 304.726562 370.304688 305.671875 370.304688 C 309.652344 370.191406 312.574219 366.75 315.832031 364.402344 C 316.589844 363.910156 317.386719 363.417969 318.296875 363.382812 C 319.09375 363.34375 319.925781 363.609375 320.683594 363.761719 C 327.242188 364.855469 331.792969 354.90625 338.3125 356.042969 C 339.5625 356.269531 340.851562 356.875 342.027344 356.382812 C 342.710938 356.078125 343.164062 355.472656 343.542969 354.867188 C 345.96875 351.351562 347.601562 347.339844 350.0625 343.785156 C 352.492188 340.265625 356.089844 337.199219 360.414062 336.933594 C 360.148438 338.976562 360.945312 342.082031 362.992188 341.550781 C 363.523438 341.398438 363.902344 341.058594 364.316406 340.679688 C 369.207031 336.101562 374.136719 331.523438 379.0625 326.945312 C 386.210938 320.394531 379.972656 312.230469 376.441406 305.324219 C 375.964844 304.386719 375.269531 303.175781 375.589844 302.160156 C 375.84375 302.214844 376.820312 302.359375 376.941406 302.582031 C 373.339844 295.886719 371.101562 288.394531 370.382812 280.75 C 372.277344 279.238281 372.125 276.398438 372.316406 274.015625 C 372.46875 271.59375 373.945312 268.683594 376.335938 269.058594 C 377.207031 269.171875 377.925781 269.703125 378.570312 270.347656 C 380.351562 272.125 381.527344 274.507812 381.90625 277.042969 C 382.132812 278.671875 382.019531 280.523438 382.96875 281.925781 C 383.460938 282.679688 384.21875 283.210938 384.828125 283.890625 C 386.644531 286.046875 387.214844 289.226562 388.882812 291.609375 C 390.808594 294.367188 392.074219 297.351562 393.265625 300.449219 C 394.355469 303.285156 394.902344 306.941406 396.683594 309.433594 C 398.613281 312.128906 400.714844 315.175781 403.511719 317.035156 C 408.175781 320.136719 414.203125 320.210938 419.773438 319.570312 C 425.347656 318.886719 430.917969 317.527344 436.492188 318.167969 C 436.910156 318.207031 437.4375 318.246094 437.78125 317.980469 C 438.011719 317.753906 438.082031 317.449219 438.195312 317.1875 C 439.066406 315.105469 441.722656 314.539062 443.921875 314.652344 C 446.121094 314.800781 448.355469 315.371094 450.480469 314.613281 C 451.839844 314.121094 452.941406 313.136719 454.347656 312.722656 C 457.757812 311.699219 461.09375 314.800781 464.695312 314.992188 C 468.5625 315.21875 471.820312 312.117188 475.652344 311.660156 C 477.851562 311.433594 480.050781 312.117188 482.324219 312.304688 Z M 482.324219 312.304688 " fill-opacity="1" fill-rule="nonzero"/></g><path fill="#bbb3b0" d="M 405.429688 342.542969 C 407.183594 342.785156 409.054688 343.113281 410.832031 342.953125 C 412.453125 342.808594 413.832031 342.078125 414.742188 340.714844 C 415.730469 339.253906 415.894531 337.425781 415.738281 335.722656 C 415.625 334.523438 413.730469 334.507812 413.839844 335.722656 C 413.96875 337.101562 413.933594 338.578125 413.109375 339.757812 C 412.28125 340.941406 410.957031 341.140625 409.601562 341.082031 C 406.695312 340.957031 403.792969 340.4375 400.960938 339.785156 C 400.5625 336.601562 399.71875 333.515625 398.398438 330.578125 C 398.1875 330.113281 397.511719 330.003906 397.101562 330.238281 C 396.621094 330.519531 396.550781 331.066406 396.757812 331.53125 C 398.035156 334.363281 398.8125 337.410156 399.136719 340.492188 C 397.414062 343.304688 395.597656 346.253906 392.6875 347.980469 C 390.15625 349.476562 386.726562 349.734375 384.550781 347.464844 C 383.703125 346.582031 382.367188 347.921875 383.207031 348.804688 C 385.765625 351.476562 389.816406 351.558594 392.976562 349.980469 C 396.445312 348.246094 398.628906 344.921875 400.605469 341.71875 C 400.652344 341.691406 400.707031 341.691406 400.746094 341.65625 C 402.296875 342 403.851562 342.328125 405.429688 342.542969 Z M 405.429688 342.542969 " fill-opacity="1" fill-rule="nonzero"/><path fill="#bbb3b0" d="M 454.523438 516.9375 C 452.5625 525.210938 449.84375 533.292969 446.296875 541.03125 C 444.875 544.128906 443.273438 548.636719 440.074219 550.375 C 436.851562 552.125 433.863281 548.832031 430.519531 549.386719 C 427.789062 549.839844 425.976562 552.300781 423.351562 552.921875 C 420.277344 553.648438 418.574219 549.609375 415.492188 550.222656 C 413.949219 550.535156 412.519531 553.3125 410.804688 551.160156 C 409.796875 549.898438 410.316406 546.15625 410.300781 544.648438 C 410.246094 540.203125 410.199219 535.753906 410.144531 531.304688 C 410.128906 530.089844 408.234375 530.085938 408.25 531.304688 C 408.296875 535.308594 408.339844 539.3125 408.386719 543.3125 C 408.421875 546.082031 407.6875 550.207031 409.496094 552.605469 C 410.804688 554.335938 412.636719 554.320312 414.300781 553.246094 C 415.15625 552.695312 415.832031 552.003906 416.925781 552.296875 C 417.617188 552.480469 418.289062 553.125 418.859375 553.515625 C 419.835938 554.175781 420.839844 554.789062 422.039062 554.910156 C 424.339844 555.140625 426.253906 553.59375 428.101562 552.472656 C 429.675781 551.515625 431.023438 550.964844 432.878906 551.429688 C 434.40625 551.816406 435.761719 552.640625 437.355469 552.804688 C 443.308594 553.40625 446.167969 545.875 448.113281 541.597656 C 451.644531 533.828125 454.382812 525.742188 456.355469 517.441406 C 456.632812 516.257812 454.804688 515.753906 454.523438 516.9375 Z M 454.523438 516.9375 " fill-opacity="1" fill-rule="nonzero"/><path fill="#bbb3b0" d="M 371.636719 533.683594 C 369.550781 530.347656 367.035156 527.316406 364.207031 524.578125 C 363.332031 523.730469 361.992188 525.066406 362.867188 525.917969 C 366.773438 529.699219 370.019531 534.066406 372.390625 538.960938 C 373.496094 541.234375 375.636719 545.371094 373.289062 547.574219 C 370.75 549.960938 366.902344 547.535156 364.613281 546.070312 C 364.078125 545.730469 363.394531 546.074219 363.21875 546.632812 C 362.621094 548.574219 360.988281 549.953125 358.992188 550.339844 C 356.539062 550.816406 355.199219 549.207031 353.1875 548.242188 C 351.65625 547.511719 350.15625 547.757812 348.570312 548.132812 C 345.902344 548.765625 343.609375 548.816406 341.089844 547.558594 C 332.726562 543.382812 331.40625 532.8125 326.625 525.6875 C 325.949219 524.683594 324.308594 525.628906 324.988281 526.644531 C 330.316406 534.578125 332.074219 547.804688 343.058594 550.277344 C 345.347656 550.792969 347.234375 550.292969 349.472656 549.859375 C 352.070312 549.359375 352.839844 550.480469 354.863281 551.550781 C 355.527344 551.898438 356.222656 552.125 356.964844 552.246094 C 360.105469 552.730469 363.175781 551.015625 364.574219 548.277344 C 367.003906 549.761719 369.753906 551.035156 372.617188 550.089844 C 375.460938 549.148438 376.5 546.433594 376.078125 543.640625 C 375.542969 540.132812 373.484375 536.632812 371.636719 533.683594 Z M 371.636719 533.683594 " fill-opacity="1" fill-rule="nonzero"/><path fill="#bbb3b0" d="M 496.117188 433.953125 C 493.734375 425.65625 492.296875 416.90625 493.238281 408.335938 C 493.464844 406.316406 493.824219 404.339844 494.183594 402.371094 C 494.632812 399.996094 495.035156 397.613281 495.488281 395.238281 C 496.878906 387.566406 498.234375 379.898438 499.847656 372.269531 C 499.488281 372.496094 499.128906 372.941406 498.589844 373.792969 C 496.25 377.515625 493.011719 380.523438 490.140625 383.84375 C 485.6875 388.867188 482.003906 394.5625 479.261719 400.664062 C 475.351562 409.414062 473.015625 419.417969 466.089844 426.011719 C 467.210938 426.414062 468.378906 426.863281 469.550781 427.269531 C 467.210938 431.398438 467.480469 436.867188 470.269531 440.679688 C 471.347656 447.1875 472.738281 453.691406 474.359375 460.109375 C 474.492188 460.601562 474.628906 461.097656 475.03125 461.453125 C 475.660156 461.945312 476.558594 461.8125 477.324219 461.992188 C 478.535156 462.308594 479.257812 463.519531 479.839844 464.597656 C 481.011719 466.703125 482.179688 468.769531 483.300781 470.878906 C 484.425781 472.898438 486.808594 475.226562 488.648438 473.792969 C 488.019531 475.945312 489.863281 478.054688 491.839844 479.132812 C 493.773438 480.253906 496.066406 480.929688 497.460938 482.679688 C 497.820312 483.128906 498.132812 483.664062 498.402344 484.203125 C 498.449219 483.753906 498.492188 483.351562 498.492188 482.902344 C 498.625 480.390625 498.3125 477.921875 498.3125 475.410156 C 498.265625 470.523438 499.433594 465.675781 500.828125 460.917969 C 501.277344 459.394531 501.773438 457.871094 502.265625 456.34375 C 503.480469 456.925781 504.695312 457.464844 505.910156 458.003906 C 501.78125 450.375 498.492188 442.300781 496.117188 433.953125 Z M 496.117188 433.953125 " fill-opacity="1" fill-rule="nonzero"/><path fill="#e2a4a1" d="M 401.808594 321.433594 C 399.199219 321.195312 396.921875 323.085938 394.40625 323.808594 C 392.550781 324.335938 390.515625 324.242188 388.785156 325.089844 C 386.917969 326 386.199219 327.734375 385.96875 329.71875 C 385.890625 330.355469 385.917969 331.0625 386.332031 331.554688 C 386.863281 332.1875 387.824219 332.230469 388.636719 332.078125 C 389.449219 331.925781 390.273438 331.636719 391.085938 331.78125 C 391.953125 331.941406 392.652344 332.582031 393.285156 333.199219 C 394.277344 334.15625 395.292969 335.152344 396.582031 335.640625 C 397.875 336.128906 399.519531 335.96875 400.371094 334.886719 C 400.773438 334.367188 400.953125 333.707031 401.101562 333.074219 C 401.539062 331.175781 401.347656 328.355469 403.042969 327.027344 C 404.132812 326.171875 406.3125 326.015625 406.164062 324.1875 C 406.019531 322.414062 403.238281 321.5625 401.808594 321.433594 Z M 401.808594 321.433594 " fill-opacity="1" fill-rule="nonzero"/><path fill="#86776f" d="M 377.46875 319.046875 C 376.175781 319.472656 375.078125 320.378906 374.121094 321.316406 C 373.675781 321.757812 370.875 324.59375 371.679688 325.152344 C 371.921875 325.320312 372.257812 325.175781 372.546875 325.253906 C 372.636719 325.273438 372.714844 325.316406 372.792969 325.363281 C 373.492188 325.761719 373.898438 326.398438 374.480469 326.917969 C 375.09375 327.457031 375.832031 327.863281 376.625 328.0625 C 378.65625 328.570312 380.902344 327.664062 382.042969 325.925781 C 384.070312 322.832031 381.378906 317.765625 377.46875 319.046875 Z M 377.46875 319.046875 " fill-opacity="1" fill-rule="nonzero"/><path fill="#86776f" d="M 411.300781 309.945312 C 410.871094 309.742188 410.25 309.675781 409.960938 309.609375 C 409.113281 309.414062 408.257812 309.285156 407.390625 309.226562 C 406.15625 309.140625 404.839844 309.148438 403.652344 309.527344 C 401.824219 310.109375 400.640625 311.65625 400.839844 313.601562 C 401.003906 315.28125 402.019531 316.953125 403.59375 317.660156 C 405.449219 318.492188 407.769531 318.015625 409.195312 316.574219 C 409.777344 315.980469 410.234375 315.21875 410.378906 314.394531 C 410.535156 313.488281 410.898438 312.59375 411.175781 311.714844 C 411.226562 311.5625 411.269531 311.414062 411.355469 311.277344 C 411.492188 311.039062 411.726562 310.835938 411.761719 310.5625 C 411.792969 310.273438 411.59375 310.082031 411.300781 309.945312 Z M 411.300781 309.945312 " fill-opacity="1" fill-rule="nonzero"/><path fill="#fff9f5" d="M 481.4375 246.101562 C 476.722656 244.246094 471.617188 243.023438 466.542969 242.765625 C 464.675781 242.671875 455.882812 242.011719 455.410156 243.835938 C 455.257812 244.417969 455.730469 244.980469 456.21875 245.335938 C 458.238281 246.808594 460.949219 246.851562 463.28125 247.769531 C 465.339844 248.582031 467.105469 250.117188 468.199219 252.039062 C 468.53125 252.625 468.847656 253.289062 469.460938 253.570312 C 469.816406 253.734375 470.222656 253.738281 470.613281 253.6875 C 473.085938 253.375 474.933594 251.019531 477.410156 250.714844 C 478.691406 250.554688 479.976562 250.96875 481.269531 250.9375 C 482.5625 250.90625 484.03125 250.15625 484.121094 248.871094 C 484.207031 247.5 482.722656 246.605469 481.4375 246.101562 Z M 481.4375 246.101562 " fill-opacity="1" fill-rule="nonzero"/><path fill="#fff9f5" d="M 293.835938 292.605469 C 292.472656 292.710938 290.757812 294.777344 289.722656 295.535156 C 288.027344 296.78125 286.261719 297.921875 284.433594 298.953125 C 280.707031 301.0625 276.726562 302.722656 272.601562 303.878906 C 271.628906 304.15625 270.601562 304.425781 269.859375 305.105469 C 269.109375 305.789062 268.777344 307.042969 269.425781 307.816406 C 270.078125 308.601562 271.28125 308.511719 272.292969 308.410156 C 276.394531 308.015625 280.585938 308.601562 284.417969 310.113281 C 289.292969 312.035156 292.050781 308.128906 294.46875 304.164062 C 295.691406 302.152344 298.621094 292.230469 293.835938 292.605469 Z M 293.835938 292.605469 " fill-opacity="1" fill-rule="nonzero"/><path fill="#f4f2f2" d="M 346.980469 276.523438 C 347.414062 277.75 348.335938 278.730469 349.066406 279.804688 C 350.507812 281.929688 351.242188 284.515625 351.125 287.074219 C 351.089844 287.820312 351.019531 288.660156 351.519531 289.210938 C 351.984375 289.730469 352.773438 289.78125 353.386719 290.121094 C 355.234375 291.140625 354.820312 294.121094 356.390625 295.53125 C 357.0625 296.136719 357.992188 296.351562 358.789062 296.773438 C 359.640625 297.226562 360.328125 297.917969 361.007812 298.59375 C 362.351562 299.933594 369.242188 308.464844 369.175781 302.414062 C 369.128906 297.832031 364.660156 293.386719 363.574219 289.0625 C 362.707031 287.210938 361.828125 285.347656 360.671875 283.65625 C 359.484375 281.921875 358.003906 280.363281 357.136719 278.449219 C 356.28125 276.558594 356.089844 274.445312 355.609375 272.421875 C 355.363281 271.382812 355.023438 270.332031 354.332031 269.511719 C 353.832031 268.914062 353.171875 268.46875 352.644531 267.898438 C 351.449219 266.601562 351.042969 264.792969 350.472656 263.121094 C 349.535156 260.375 347.925781 257.707031 345.382812 256.296875 C 345.074219 256.128906 344.710938 255.976562 344.378906 256.085938 C 343.832031 256.273438 343.746094 257.007812 343.824219 257.578125 C 344.3125 261.246094 347.359375 264.273438 347.523438 267.96875 C 347.65625 270.859375 346.003906 273.808594 346.980469 276.523438 Z M 346.980469 276.523438 " fill-opacity="1" fill-rule="nonzero"/><path fill="#f4f2f2" d="M 399.566406 262.832031 C 398.96875 261.195312 397.75 259.824219 397.269531 258.148438 C 396.800781 256.492188 397.109375 254.730469 396.984375 253.011719 C 396.734375 249.601562 394.789062 246.578125 392.910156 243.722656 C 389.484375 248.570312 390.492188 255.136719 391.652344 260.953125 C 392.4375 264.910156 393.226562 268.867188 394.015625 272.824219 C 395.074219 278.167969 396.136719 283.511719 397.199219 288.855469 C 397.464844 290.183594 397.628906 293.960938 399.230469 294.492188 C 401.074219 295.109375 401.769531 292.570312 401.890625 291.199219 C 402.257812 287.082031 401.03125 282.8125 402.242188 278.855469 C 402.539062 277.878906 402.984375 276.925781 403.039062 275.90625 C 403.152344 273.683594 401.425781 271.824219 400.71875 269.71875 C 399.96875 267.503906 400.363281 265.027344 399.566406 262.832031 Z M 399.566406 262.832031 " fill-opacity="1" fill-rule="nonzero"/><path fill="#f4f2f2" d="M 366.648438 257.253906 C 367.234375 259.433594 368.136719 261.34375 369.183594 263.339844 C 369.777344 264.472656 371.832031 270.878906 373.113281 267.792969 C 373.746094 266.269531 374.378906 264.738281 375.011719 263.214844 C 375.445312 262.179688 375.878906 261.113281 375.964844 259.992188 C 376.042969 258.964844 375.816406 257.929688 375.429688 256.976562 C 374.328125 254.285156 371.988281 252.207031 371.070312 249.453125 C 370.523438 247.8125 370.519531 246.046875 370.148438 244.359375 C 369.777344 242.671875 368.882812 240.925781 367.265625 240.296875 C 366.816406 240.121094 366.316406 240.042969 365.917969 239.765625 C 364.527344 238.816406 365.261719 236.535156 364.378906 235.101562 C 364.089844 234.632812 363.523438 234.261719 363.007812 234.449219 C 362.65625 234.578125 362.4375 234.925781 362.289062 235.265625 C 361.632812 236.785156 361.863281 238.519531 362.160156 240.144531 C 363.210938 245.960938 365.121094 251.554688 366.648438 257.253906 Z M 366.648438 257.253906 " fill-opacity="1" fill-rule="nonzero"/><path fill="#f4f2f2" d="M 343.097656 331.234375 C 341.003906 333.40625 339.265625 336.027344 336.644531 337.53125 C 335.121094 338.398438 333.386719 338.839844 331.777344 339.542969 C 328.261719 341.082031 325.453125 343.828125 322.390625 346.136719 C 319.597656 348.246094 316.542969 350.007812 313.316406 351.375 C 306.578125 354.234375 298.71875 355.640625 293.964844 361.199219 C 293.398438 361.859375 292.992188 363.070312 293.785156 363.429688 C 294.03125 363.542969 294.316406 363.515625 294.582031 363.464844 C 297.242188 362.992188 299.355469 361.046875 301.730469 359.765625 C 305.953125 357.488281 311.039062 357.292969 315.339844 355.175781 C 319.59375 353.082031 322.871094 349.210938 327.355469 347.679688 C 328.6875 347.226562 330.109375 346.984375 331.324219 346.273438 C 333.289062 345.121094 334.386719 342.960938 335.898438 341.257812 C 336.550781 340.523438 337.339844 339.835938 338.304688 339.648438 C 339 339.511719 339.71875 339.640625 340.417969 339.527344 C 341.335938 339.378906 342.136719 338.828125 342.894531 338.289062 C 346.964844 335.421875 351.027344 332.554688 355.09375 329.691406 C 356.242188 328.878906 357.488281 327.929688 357.75 326.550781 C 358.914062 320.460938 344.601562 329.671875 343.097656 331.234375 Z M 343.097656 331.234375 " fill-opacity="1" fill-rule="nonzero"/><path fill="#f4f2f2" d="M 472.132812 296.765625 C 468.640625 297.59375 464.871094 299.265625 461.664062 297.65625 C 460.902344 297.273438 460.230469 296.722656 459.429688 296.421875 C 457.675781 295.769531 455.742188 296.476562 453.960938 297.054688 C 451.335938 297.90625 448.625 298.492188 445.882812 298.800781 C 444.28125 298.980469 442.65625 299.066406 441.0625 298.847656 C 439.539062 298.636719 438.066406 298.152344 436.554688 297.847656 C 431.898438 296.914062 425.210938 297.292969 420.996094 299.675781 C 420.105469 300.179688 417.539062 301.871094 417.9375 303.21875 C 418.40625 304.785156 422.429688 304.265625 423.691406 304.332031 C 428.417969 304.582031 433.179688 304.832031 437.867188 304.195312 C 441.304688 303.722656 444.691406 302.78125 448.160156 302.734375 C 453.144531 302.660156 458.097656 304.445312 463.042969 303.785156 C 465.15625 303.5 467.183594 302.777344 469.242188 302.238281 C 473.894531 301.007812 478.78125 300.683594 483.546875 301.285156 C 485.496094 301.527344 487.441406 301.921875 489.398438 301.820312 C 491.359375 301.714844 493.390625 301.027344 494.605469 299.488281 C 487.296875 297.257812 479.566406 295.003906 472.132812 296.765625 Z M 472.132812 296.765625 " fill-opacity="1" fill-rule="nonzero"/><path fill="#f4f2f2" d="M 437.671875 317.214844 C 430.3125 317.597656 423 318.625 415.816406 320.277344 C 414.628906 320.554688 415.128906 322.375 416.324219 322.101562 C 423.34375 320.480469 430.476562 319.480469 437.671875 319.105469 C 438.882812 319.042969 438.890625 317.152344 437.671875 317.214844 Z M 437.671875 317.214844 " fill-opacity="1" fill-rule="nonzero"/><path fill="#f4f2f2" d="M 435.183594 327.539062 C 429.386719 325.757812 423.460938 324.445312 417.457031 323.601562 C 416.261719 323.4375 415.746094 325.257812 416.949219 325.425781 C 422.957031 326.269531 428.878906 327.582031 434.679688 329.359375 C 435.851562 329.71875 436.347656 327.894531 435.183594 327.539062 Z M 435.183594 327.539062 " fill-opacity="1" fill-rule="nonzero"/><path fill="#f4f2f2" d="M 378.226562 336.527344 C 379.3125 335.972656 378.355469 334.339844 377.269531 334.890625 C 368.664062 339.265625 361.980469 346.878906 358.667969 355.917969 C 358.25 357.0625 360.078125 357.558594 360.496094 356.421875 C 363.640625 347.839844 370.074219 340.671875 378.226562 336.527344 Z M 378.226562 336.527344 " fill-opacity="1" fill-rule="nonzero"/><path fill="#f4f2f2" d="M 378.238281 339.707031 C 373.363281 344.683594 370.039062 351.0625 368.796875 357.917969 C 368.582031 359.109375 370.410156 359.621094 370.625 358.421875 C 371.808594 351.875 374.914062 345.808594 379.578125 341.046875 C 380.433594 340.175781 379.09375 338.835938 378.238281 339.707031 Z M 378.238281 339.707031 " fill-opacity="1" fill-rule="nonzero"/></svg>