<svg xmlns="http://www.w3.org/2000/svg" xmlns:xlink="http://www.w3.org/1999/xlink" width="1024" zoomAndPan="magnify" viewBox="0 0 768 767.999994" height="1024" preserveAspectRatio="xMidYMid meet" version="1.0"><rect x="-76.8" width="921.6" fill="#ffffff" y="-76.799999" height="921.599993" fill-opacity="1"/><rect x="-76.8" width="921.6" fill="#f4d7bf" y="-76.799999" height="921.599993" fill-opacity="1"/><path fill="#fff9f5" d="M 558.070312 470.09375 C 557.234375 472.097656 555.5625 474.433594 553.445312 473.875 C 551.496094 479.328125 549.769531 484.894531 548.320312 490.515625 C 547.261719 494.742188 546.257812 499.085938 545.480469 503.367188 C 544.421875 502.367188 543.421875 501.363281 542.359375 500.367188 C 539.355469 505.152344 536.515625 509.988281 533.949219 515 C 532.949219 516.890625 532.390625 518.171875 530.160156 518.394531 C 528.214844 518.617188 526.929688 518.335938 525.148438 519.449219 C 516.347656 524.957031 507.546875 528.800781 497.582031 531.800781 C 494.914062 532.640625 492.179688 533.472656 489.953125 535.199219 C 487.390625 537.089844 485.777344 539.984375 483.992188 542.597656 C 482.210938 545.269531 479.925781 547.886719 476.863281 548.777344 C 474.632812 549.386719 472.1875 549.054688 469.957031 549.777344 C 468.953125 550.054688 468.007812 550.609375 466.949219 550.890625 C 464.332031 551.667969 461.488281 550.945312 458.984375 549.886719 C 457.8125 549.386719 456.644531 548.886719 455.417969 549.050781 C 454.359375 549.21875 453.527344 549.886719 452.636719 550.386719 C 449.574219 552 445.5625 551.5 443.058594 549.21875 C 442.613281 548.828125 442.164062 548.328125 441.609375 548.109375 C 440.164062 547.441406 438.492188 548.554688 436.933594 548.71875 C 434.652344 548.996094 432.535156 547.214844 431.585938 545.15625 C 430.640625 543.101562 430.585938 540.703125 430.585938 538.421875 C 428.414062 537.8125 424.457031 539.3125 422.285156 539.648438 C 419.167969 540.207031 415.992188 540.703125 412.875 541.203125 C 404.90625 542.429688 396.894531 543.261719 388.871094 543.761719 C 375.949219 544.488281 362.914062 544.152344 350.105469 542.316406 C 343.699219 541.425781 337.351562 540.144531 331.167969 538.421875 C 328.550781 537.699219 325.933594 537.03125 323.429688 536.03125 C 322.589844 535.695312 317.527344 533.25 317.527344 531.859375 C 316.914062 533.082031 316.800781 534.417969 316.523438 535.753906 C 315.183594 542.542969 309.003906 548.386719 302.042969 548.441406 C 299.035156 548.441406 295.972656 547.4375 292.960938 547.882812 C 289.734375 548.328125 286.277344 550.441406 283.4375 548.886719 C 282.765625 548.550781 282.269531 548.046875 281.597656 547.710938 C 280.089844 546.988281 278.253906 547.378906 276.582031 547.210938 C 274.246094 547.042969 272.070312 545.765625 270.789062 543.816406 C 269.5625 541.867188 269.398438 539.308594 270.402344 537.25 C 270.960938 536.140625 271.792969 535.246094 272.574219 534.304688 C 275.078125 531.132812 276.636719 527.183594 277.027344 523.121094 C 277.027344 522.953125 277.027344 522.730469 276.972656 522.507812 C 276.75 522.121094 276.191406 522.066406 275.6875 522.066406 C 266.5 522.34375 257.363281 524.457031 248.511719 526.960938 C 239.488281 529.632812 230.523438 532.75 222.003906 536.863281 C 220.164062 537.753906 218.214844 538.753906 216.15625 538.976562 C 214.097656 539.257812 211.757812 538.589844 210.589844 536.863281 C 210.03125 535.972656 209.699219 534.859375 208.808594 534.246094 C 207.96875 533.691406 206.800781 533.859375 205.910156 533.359375 C 203.628906 531.96875 205.300781 527.738281 203.183594 526.070312 C 202.792969 525.734375 202.292969 525.570312 201.957031 525.179688 C 201.179688 524.234375 201.792969 522.84375 202.402344 521.84375 C 203.851562 519.449219 205.351562 517.054688 207.417969 515.273438 C 209.867188 513.160156 212.929688 511.992188 215.828125 510.714844 C 222.902344 507.707031 229.640625 504.035156 235.933594 499.695312 C 248.464844 491.125 253.089844 474.320312 266.007812 466.03125 C 257.15625 439.378906 251.917969 411.558594 250.523438 383.511719 C 250.1875 377.558594 250.078125 371.550781 250.128906 365.597656 C 284.519531 224.101562 321.328125 256.296875 438.492188 297.492188 C 446.339844 301.945312 454.253906 306.285156 462.214844 310.457031 C 474.039062 321.976562 529.550781 383.207031 559.296875 400.148438 C 568.429688 421.796875 567.425781 448.449219 558.070312 470.09375 Z M 558.070312 470.09375 " fill-opacity="1" fill-rule="nonzero"/><path fill="#9b8c89" d="M 322.964844 357.679688 C 322.933594 360.117188 321.867188 362.40625 320.070312 364.058594 C 319.140625 364.914062 317.914062 365.675781 316.65625 365.914062 C 315.140625 366.199219 314.519531 364.871094 313.933594 363.742188 C 311.78125 359.59375 308.371094 356.546875 304.765625 353.703125 C 305.183594 353.664062 305.605469 353.613281 306.03125 353.617188 C 307.402344 353.628906 308.753906 353.871094 310.109375 354.074219 C 314.878906 354.785156 319.34375 353.933594 323.042969 350.695312 C 324.023438 349.839844 322.589844 348.414062 321.613281 349.265625 C 318.34375 352.128906 314.382812 352.699219 310.210938 352.054688 C 309.355469 351.925781 308.519531 351.816406 307.675781 351.734375 C 307.851562 351.433594 307.90625 351.082031 307.753906 350.738281 C 306.550781 347.988281 305.976562 344.992188 306.007812 342.003906 C 306.019531 340.699219 303.996094 340.699219 303.984375 342.003906 C 303.945312 345.347656 304.652344 348.628906 305.980469 351.6875 C 305.410156 351.679688 304.84375 351.636719 304.261719 351.695312 C 302.5 351.886719 299.957031 352.378906 298.984375 350.417969 C 298.402344 349.25 296.660156 350.273438 297.234375 351.4375 C 298.097656 353.175781 299.984375 353.863281 301.832031 353.890625 C 301.875 353.933594 301.898438 353.988281 301.953125 354.027344 C 304.480469 355.96875 307.015625 357.941406 309.144531 360.320312 C 310.25 361.554688 311.207031 362.898438 311.984375 364.359375 C 312.582031 365.492188 313.160156 366.738281 314.285156 367.445312 C 316.746094 368.984375 320.074219 366.929688 321.835938 365.15625 C 323.808594 363.164062 324.953125 360.476562 324.988281 357.671875 C 325.003906 356.375 322.980469 356.375 322.964844 357.679688 Z M 322.964844 357.679688 " fill-opacity="1" fill-rule="nonzero"/><path fill="#9b8c89" d="M 429.917969 325.761719 C 430.695312 326.984375 432.535156 327.601562 433.652344 326.597656 C 434.878906 325.542969 434.429688 323.035156 435.988281 322.476562 C 436.824219 322.144531 437.71875 322.648438 438.605469 322.476562 C 440.21875 322.144531 440.550781 320.03125 440.496094 318.359375 C 440.273438 311.402344 439.605469 304.394531 438.496094 297.492188 C 429.359375 292.296875 420.335938 287 411.261719 281.699219 C 411.261719 281.695312 411.261719 281.691406 411.261719 281.6875 C 411.09375 281.632812 410.929688 281.523438 410.757812 281.410156 C 407.53125 279.515625 404.246094 277.570312 402.128906 274.507812 C 401.683594 273.835938 401.234375 273.117188 400.960938 272.394531 C 398.5625 267.273438 399.398438 260.988281 399.957031 255.199219 C 401.125 243.125 400.566406 230.328125 394.777344 219.585938 C 394.71875 219.476562 394.667969 219.421875 394.609375 219.308594 C 393.550781 217.363281 392.046875 215.359375 389.984375 214.636719 C 389.652344 214.527344 389.320312 214.46875 388.984375 214.414062 C 386.085938 214.019531 383.523438 216.191406 381.464844 218.195312 C 380.460938 219.199219 379.40625 220.253906 378.402344 221.3125 L 378.402344 221.371094 C 376.566406 223.261719 374.722656 225.097656 372.945312 227.042969 C 371.164062 228.9375 369.4375 230.828125 367.707031 232.832031 C 366.203125 235.054688 364.199219 237.0625 362.417969 239.007812 C 362.027344 239.511719 361.578125 239.957031 361.191406 240.457031 C 356.902344 245.628906 352.167969 251.363281 345.539062 252.695312 C 341.308594 253.535156 336.910156 252.417969 332.621094 251.636719 C 324.101562 250.082031 314.910156 249.632812 306.445312 251.636719 C 297.644531 253.75 289.011719 256.925781 280.097656 253.027344 C 273.527344 250.191406 268.960938 244.128906 263.335938 239.621094 C 257.707031 235.113281 249.300781 232.273438 243.5625 236.617188 C 245.84375 251.140625 254.644531 263.824219 257.988281 278.125 C 261.886719 294.878906 254.480469 313.015625 252.421875 329.652344 C 250.976562 341.5625 250.195312 353.578125 250.136719 365.597656 C 251.421875 365.375 252.648438 364.875 253.652344 364.148438 C 255.933594 362.59375 257.601562 360.195312 259.050781 357.808594 C 259.332031 357.304688 259.664062 356.804688 260.164062 356.582031 C 260.941406 356.195312 261.777344 356.527344 262.613281 356.414062 C 264.175781 356.246094 265.121094 354.742188 265.839844 353.351562 C 267.402344 350.457031 268.902344 347.5625 270.464844 344.675781 C 271.191406 343.339844 271.914062 341.949219 273.140625 341.054688 C 274.367188 340.109375 276.203125 339.886719 277.320312 340.886719 C 277.460938 340.132812 277.664062 339.402344 277.90625 338.683594 C 282.75 337.320312 287.847656 337.199219 292.726562 338.515625 C 293.984375 338.851562 294.523438 336.90625 293.265625 336.566406 C 288.558594 335.296875 283.617188 335.265625 278.882812 336.335938 C 279.632812 334.855469 280.585938 333.476562 281.71875 332.265625 C 283.222656 330.59375 285.058594 329.257812 286.5625 327.535156 C 291.351562 322.082031 287.121094 314.402344 289.515625 308.058594 C 289.625 307.722656 290.183594 307.5 290.183594 307.78125 C 291.910156 303.4375 293.023438 298.875 293.410156 294.203125 C 293.519531 292.867188 293.578125 291.53125 293.578125 290.195312 C 294.023438 290.53125 294.691406 290.308594 295.027344 289.859375 C 295.359375 289.417969 295.417969 288.804688 295.527344 288.304688 C 295.75 286.636719 295.972656 285.023438 296.136719 283.410156 C 297.308594 283.410156 297.867188 282.074219 298.144531 280.964844 C 298.703125 278.90625 299.203125 276.792969 299.757812 274.730469 C 299.980469 273.953125 300.316406 273.003906 301.152344 272.894531 C 301.429688 272.839844 301.824219 272.894531 302.097656 272.730469 C 302.375 272.558594 302.433594 272.230469 302.488281 271.949219 C 302.59375 271.003906 302.542969 269.945312 302.875 269.054688 C 303.265625 268.167969 304.324219 267.441406 305.214844 267.886719 C 306.273438 268.445312 306.4375 270.332031 307.664062 270.28125 C 308.167969 270.28125 308.554688 269.835938 309 269.613281 C 310.0625 268.945312 311.5625 269.335938 312.507812 270.222656 C 313.457031 271.0625 314.011719 272.230469 314.515625 273.449219 C 316.464844 278.070312 317.914062 283.023438 317.691406 288.027344 C 317.96875 287.804688 318.25 287.523438 318.527344 287.300781 C 319.53125 288.972656 320.199219 290.863281 320.535156 292.8125 C 320.925781 291.980469 322.207031 291.921875 322.929688 292.539062 C 323.65625 293.089844 323.933594 294.039062 324.210938 294.929688 C 325.046875 297.65625 325.878906 300.382812 326.71875 303.054688 C 327.164062 304.558594 327.609375 306.171875 327.164062 307.671875 C 326.941406 308.394531 326.4375 309.175781 326.605469 309.898438 C 326.660156 310.398438 327.050781 310.84375 327.328125 311.289062 C 328.945312 313.734375 329.445312 317.015625 330.722656 319.691406 C 332.171875 322.753906 334.121094 325.476562 336.574219 327.871094 C 337.074219 328.316406 337.628906 328.816406 338.300781 328.925781 C 339.027344 329.039062 339.808594 328.648438 339.917969 327.980469 C 339.527344 331.152344 344.871094 330.371094 346.65625 331.039062 C 350.164062 332.265625 353.339844 336.101562 356.125 338.550781 C 357.128906 339.386719 358.183594 340.277344 359.46875 340.554688 C 360.578125 340.832031 361.804688 340.664062 362.976562 340.832031 C 365.484375 341.222656 367.265625 343.339844 369.269531 344.894531 C 371.609375 346.730469 374.335938 347.957031 377.066406 349.179688 C 378.910156 349.957031 380.746094 350.738281 382.746094 350.792969 C 384.695312 350.851562 386.871094 349.90625 387.648438 348.070312 C 388.148438 346.957031 388.761719 345.957031 389.542969 345.066406 C 389.878906 344.894531 390.265625 344.789062 390.601562 344.675781 C 391.714844 344.230469 392.496094 343.171875 393.164062 342.117188 C 397.671875 335.050781 400.234375 326.816406 400.515625 318.410156 C 401.015625 319.414062 402.292969 317.910156 402.183594 316.855469 C 401.847656 313.960938 400.789062 311.402344 399.847656 308.730469 C 400.40625 305.167969 401.238281 301.722656 402.910156 298.546875 C 404.292969 295.777344 406.179688 293.285156 407.816406 290.652344 C 410.609375 295.617188 413.804688 300.394531 416.5 305.390625 C 416.609375 304.167969 418.671875 304.28125 419.398438 305.277344 C 420.121094 306.28125 420.066406 307.671875 420.675781 308.78125 C 421.570312 310.507812 423.625 311.175781 425.132812 312.402344 C 427.808594 314.515625 428.640625 318.183594 428.921875 321.523438 C 429.027344 323.03125 429.082031 324.535156 429.917969 325.761719 Z M 429.917969 325.761719 " fill-opacity="1" fill-rule="nonzero"/><path fill="#9b8c89" d="M 555.230469 390.859375 C 547.878906 374.890625 539.246094 359.199219 526.441406 347.238281 C 512.179688 333.882812 493.746094 326.148438 476.199219 317.578125 C 471.527344 315.300781 466.839844 312.90625 462.222656 310.457031 C 462.332031 310.679688 462.445312 310.84375 462.554688 311.066406 C 468.128906 320.136719 470.410156 331.265625 469.1875 341.894531 C 468.910156 344.339844 468.460938 346.730469 467.847656 349.066406 C 470.019531 347.789062 472.582031 350.457031 472.917969 353.019531 C 473.195312 355.527344 472.417969 358.253906 473.476562 360.589844 C 474.144531 362.144531 475.644531 363.371094 475.757812 365.09375 C 475.867188 366.433594 475.148438 367.65625 474.8125 368.9375 C 473.25 374.496094 478.769531 379.898438 478.152344 385.628906 C 477.875 387.800781 476.820312 390.082031 477.816406 391.972656 C 478.320312 392.863281 479.214844 393.53125 479.769531 394.367188 C 480.601562 395.535156 480.882812 396.980469 481.160156 398.371094 C 482.605469 404.828125 485.894531 410.890625 487.839844 417.179688 C 490.121094 424.632812 492.515625 431.203125 492.351562 439.15625 C 492.292969 441.214844 492.851562 444.109375 494.96875 444.109375 C 495.191406 441.828125 497.976562 440.269531 500.035156 441.328125 C 500.761719 441.664062 501.429688 442.273438 502.207031 442.050781 C 502.765625 441.886719 503.042969 441.386719 503.378906 440.941406 C 506.667969 436.269531 513.625 436.433594 518.582031 433.59375 C 522.589844 431.316406 525.097656 427.085938 527.382812 423.078125 C 528.105469 424.355469 529.886719 424.523438 531.28125 424.082031 C 532.617188 423.578125 533.789062 422.691406 535.183594 422.1875 C 536.742188 421.6875 538.578125 421.742188 540.082031 422.523438 C 540.527344 422.746094 541.027344 423.023438 541.527344 422.96875 C 542.199219 422.910156 542.640625 422.300781 543.03125 421.800781 C 544.703125 419.351562 546.429688 416.957031 548.160156 414.566406 C 548.882812 414.84375 549.601562 415.121094 550.328125 415.402344 C 552.277344 411.171875 553.558594 406.609375 554.117188 401.992188 C 555.007812 403.046875 556.851562 402.9375 557.90625 402.050781 C 558.519531 401.546875 558.964844 400.882812 559.300781 400.15625 C 558.015625 397.039062 556.621094 393.921875 555.230469 390.859375 Z M 555.230469 390.859375 " fill-opacity="1" fill-rule="nonzero"/><path fill="#9b8c89" d="M 489.777344 532.941406 C 487.484375 537.230469 485.128906 541.71875 481.320312 544.878906 C 478.855469 546.925781 476.113281 548.082031 472.941406 548.363281 C 471.160156 548.523438 469.582031 548.628906 467.902344 549.335938 C 464.390625 550.820312 462.101562 551.820312 458.804688 549.160156 C 457.746094 548.308594 456.890625 547.46875 455.417969 547.578125 C 454.109375 547.675781 453.273438 548.554688 452.300781 549.320312 C 448.996094 551.914062 444.597656 551.023438 443.292969 546.71875 C 443.050781 545.929688 442.191406 545.808594 441.601562 546.273438 C 436.925781 549.9375 431.398438 545.492188 430.71875 540.546875 C 430.046875 535.683594 432.523438 532.460938 435.734375 529.179688 C 440.15625 524.671875 443.726562 519.042969 443.59375 512.546875 C 443.414062 503.832031 440 494.847656 436.464844 486.96875 C 435.929688 485.785156 434.183594 486.808594 434.714844 487.988281 C 439.332031 498.269531 445.21875 512.503906 438.308594 522.855469 C 435.953125 526.386719 432.246094 528.929688 430.164062 532.601562 C 428.464844 535.605469 428.078125 539.542969 429.121094 542.828125 C 430.832031 548.25 436.914062 551.105469 441.8125 548.421875 C 443.4375 551.878906 447.203125 553.902344 451.066406 552.445312 C 451.953125 552.109375 452.667969 551.59375 453.402344 551.019531 C 454.589844 550.101562 454.464844 549.746094 456.097656 550.21875 C 457.339844 550.574219 457.3125 550.789062 458.253906 551.371094 C 460.28125 552.625 462.292969 553.40625 464.71875 552.851562 C 465.742188 552.613281 466.660156 552.109375 467.613281 551.6875 C 469.601562 550.808594 471.335938 550.539062 473.472656 550.335938 C 476.007812 550.09375 478.363281 549.300781 480.519531 547.9375 C 485.695312 544.667969 488.710938 539.210938 491.523438 533.960938 C 492.136719 532.816406 490.394531 531.792969 489.777344 532.941406 Z M 489.777344 532.941406 " fill-opacity="1" fill-rule="nonzero"/><path fill="#9b8c89" d="M 315.171875 533.121094 C 316.582031 542.453125 308.761719 549.511719 299.644531 547.761719 C 297.4375 547.339844 295.269531 546.4375 292.976562 546.515625 C 291.128906 546.582031 289.800781 547.503906 288.085938 547.878906 C 281.6875 549.289062 283.171875 546.582031 279.101562 545.875 C 278.226562 545.71875 276.882812 546.242188 276.0625 546.019531 C 270.457031 547.328125 269.644531 540.871094 271.277344 538.808594 C 273.558594 534.445312 276.578125 531.695312 277.222656 526.554688 C 277.863281 521.449219 276.640625 516.246094 275.644531 511.273438 C 274.289062 504.492188 272.925781 497.71875 271.566406 490.9375 C 268.78125 477.0625 266.003906 463.183594 263.21875 449.308594 C 262.964844 448.035156 261.015625 448.570312 261.269531 449.84375 C 264.765625 467.273438 268.261719 484.703125 271.753906 502.128906 C 273.40625 510.390625 277.246094 520.875 274.625 529.246094 C 273.027344 534.347656 267.035156 538.214844 268.425781 544.070312 C 268.8125 545.683594 269.6875 547.082031 271.226562 547.8125 C 272.128906 548.246094 272.921875 548.222656 273.847656 548.261719 C 274.183594 548.277344 274.515625 548.261719 274.84375 548.210938 C 277.226562 547.433594 279.441406 547.875 281.488281 549.539062 C 283.3125 550.332031 283.878906 551.054688 286.121094 550.726562 C 287.148438 550.578125 288.152344 549.945312 289.105469 549.621094 C 292.777344 548.375 294.757812 548.691406 298.304688 549.507812 C 309.289062 552.035156 318.847656 543.992188 317.121094 532.578125 C 316.925781 531.300781 314.976562 531.847656 315.171875 533.121094 Z M 315.171875 533.121094 " fill-opacity="1" fill-rule="nonzero"/><path fill="#9b8c89" d="M 259.792969 523.085938 C 250.796875 526.203125 241.742188 529.175781 232.804688 532.441406 C 229.484375 533.65625 225.871094 534.390625 222.660156 535.808594 C 220.769531 536.644531 218.980469 537.886719 216.925781 538.300781 C 213.609375 538.976562 210.703125 536.921875 210.539062 533.492188 C 210.507812 532.773438 209.925781 532.433594 209.257812 532.523438 C 206.203125 532.9375 204.535156 529.949219 206.046875 527.371094 C 206.347656 526.863281 206.101562 525.988281 205.445312 525.886719 C 202.894531 525.488281 201.90625 523.285156 203.269531 521.046875 C 203.800781 520.171875 204.632812 519.539062 205.382812 518.867188 C 206.71875 517.664062 207.988281 516.351562 209.398438 515.238281 C 213.179688 512.257812 218.382812 510.488281 222.695312 508.394531 C 230.25 504.726562 237.71875 500.714844 243.34375 494.332031 C 244.203125 493.359375 242.777344 491.925781 241.914062 492.898438 C 234.007812 501.859375 222.273438 506.355469 211.761719 511.453125 C 209.519531 512.539062 207.753906 513.933594 205.925781 515.621094 C 204.382812 517.050781 202.460938 518.402344 201.351562 520.226562 C 199.632812 523.054688 200.902344 526.421875 203.804688 527.527344 C 202.582031 531.046875 204.984375 534.363281 208.710938 534.476562 C 209.207031 537.347656 211.160156 539.808594 214.167969 540.378906 C 218.609375 541.222656 222.894531 537.59375 227.015625 536.574219 C 232.40625 535.242188 237.691406 532.878906 242.945312 531.058594 C 248.742188 529.050781 254.535156 527.042969 260.332031 525.035156 C 261.550781 524.613281 261.027344 522.664062 259.792969 523.085938 Z M 259.792969 523.085938 " fill-opacity="1" fill-rule="nonzero"/><path fill="#9b8c89" d="M 322.671875 338.355469 C 329.875 335.683594 337.464844 334.316406 345.152344 334.34375 C 346.453125 334.347656 346.453125 332.324219 345.152344 332.320312 C 337.300781 332.296875 329.492188 333.675781 322.136719 336.40625 C 320.929688 336.855469 321.449219 338.808594 322.671875 338.355469 Z M 322.671875 338.355469 " fill-opacity="1" fill-rule="nonzero"/><path fill="#9b8c89" d="M 346.59375 342.472656 C 339.746094 340.988281 332.769531 340.144531 325.769531 339.945312 C 324.46875 339.910156 324.46875 341.929688 325.769531 341.964844 C 332.597656 342.15625 339.378906 342.976562 346.054688 344.414062 C 347.324219 344.695312 347.867188 342.746094 346.59375 342.472656 Z M 346.59375 342.472656 " fill-opacity="1" fill-rule="nonzero"/><path fill="#9b8c89" d="M 276.898438 349.769531 C 281.671875 346.398438 287.144531 344.226562 292.929688 343.398438 C 293.476562 343.320312 293.761719 342.636719 293.636719 342.15625 C 293.484375 341.574219 292.933594 341.371094 292.390625 341.449219 C 286.460938 342.300781 280.769531 344.570312 275.875 348.023438 C 274.824219 348.769531 275.832031 350.523438 276.898438 349.769531 Z M 276.898438 349.769531 " fill-opacity="1" fill-rule="nonzero"/><path fill="#fff9f5" d="M 260.195312 261.199219 C 260.351562 261.003906 260.34375 260.726562 260.324219 260.476562 C 260.261719 259.605469 260.207031 258.726562 260.144531 257.855469 C 260.539062 257.96875 260.933594 258.085938 261.324219 258.199219 C 260.675781 255.628906 259.601562 253.160156 258.164062 250.929688 C 258.539062 250.84375 258.910156 250.761719 259.28125 250.675781 C 258.714844 249.867188 258.308594 248.949219 258.09375 247.988281 C 258.714844 248.214844 259.4375 248.160156 260.019531 247.84375 C 260.007812 247.847656 251.277344 240.839844 249.953125 240.160156 C 245.0625 237.648438 250.234375 245.15625 251.125 246.730469 C 253.363281 250.695312 255.152344 254.921875 256.4375 259.289062 C 257.792969 263.898438 258.625 268.726562 260.925781 272.949219 C 262.390625 269.171875 260.988281 264.953125 259.589844 261.15625 C 259.660156 261.398438 260.039062 261.394531 260.195312 261.199219 Z M 260.195312 261.199219 " fill-opacity="1" fill-rule="nonzero"/><path fill="#fff9f5" d="M 391.113281 230.105469 C 390.71875 226.457031 390.75 222.476562 386.199219 224.789062 C 384.441406 225.683594 382.96875 227.261719 381.6875 228.71875 C 381.050781 229.4375 378.664062 233.792969 378.050781 233.890625 C 378.886719 233.753906 379.75 233.769531 380.582031 233.9375 C 379.503906 235.054688 378.625 236.378906 378.011719 237.804688 C 378.910156 237.390625 379.253906 238.984375 378.941406 239.917969 C 377.601562 243.933594 376.261719 247.941406 374.921875 251.957031 C 376.15625 251.988281 377.398438 251.644531 378.433594 250.976562 C 378.042969 253.152344 377.648438 255.335938 377.257812 257.515625 C 377.761719 257.636719 378.324219 257.523438 378.746094 257.214844 C 379.78125 257.90625 378.929688 259.574219 379.324219 260.753906 C 379.667969 261.777344 380.960938 262.214844 382.015625 261.980469 C 383.070312 261.746094 383.9375 261.015625 384.753906 260.3125 C 385.0625 262.921875 385.371094 265.539062 385.679688 268.148438 C 386.207031 267.214844 386.984375 266.425781 387.910156 265.886719 C 388.523438 268.070312 389.136719 270.253906 389.746094 272.429688 C 391.617188 269.113281 391.933594 265.171875 392.101562 261.367188 C 392.574219 250.9375 392.242188 240.476562 391.113281 230.105469 Z M 391.113281 230.105469 " fill-opacity="1" fill-rule="nonzero"/><path fill="#e2a4a1" d="M 313.621094 337.675781 C 314.484375 336.621094 314.125 334.816406 312.933594 334.164062 C 310.195312 332.667969 307.25 336.25 304.265625 335.160156 C 302.464844 334.496094 298.628906 330.484375 297.949219 335.175781 C 297.78125 336.347656 298.953125 337.207031 299.8125 338.019531 C 301.691406 339.804688 302.480469 342.417969 303.8125 344.640625 C 304.277344 345.417969 305.054688 346.246094 305.929688 346.019531 C 306.539062 345.859375 306.898438 345.25 307.191406 344.691406 C 308.367188 342.496094 309.707031 340.265625 311.824219 338.953125 C 312.453125 338.566406 313.15625 338.25 313.621094 337.675781 Z M 313.621094 337.675781 " fill-opacity="1" fill-rule="nonzero"/><path fill="#e2a4a1" d="M 331.4375 347.261719 C 330.894531 346.722656 330.066406 346.585938 329.308594 346.640625 C 326.101562 346.867188 323.910156 349.828125 321.332031 351.753906 C 318.90625 353.570312 315.867188 354.550781 312.832031 354.5 C 312.058594 354.488281 311.285156 354.414062 310.640625 354.886719 C 310.957031 355.890625 313.417969 356.339844 314.332031 357.09375 C 314.859375 357.523438 315.332031 358.027344 315.894531 358.414062 C 316.605469 358.902344 317.445312 359.1875 318.296875 359.324219 C 320.859375 359.734375 323.507812 358.851562 325.628906 357.359375 C 327.75 355.863281 329.40625 353.800781 330.871094 351.664062 C 331.328125 350.996094 331.773438 350.304688 331.957031 349.519531 C 332.136719 348.734375 332.007812 347.832031 331.4375 347.261719 Z M 331.4375 347.261719 " fill-opacity="1" fill-rule="nonzero"/><path fill="#e1c4ac" d="M 331.566406 319.199219 C 326.457031 319.132812 321.417969 320.25 316.796875 322.417969 C 315.621094 322.972656 316.644531 324.714844 317.816406 324.164062 C 322.113281 322.148438 326.824219 321.15625 331.566406 321.222656 C 332.867188 321.238281 332.867188 319.214844 331.566406 319.199219 Z M 331.566406 319.199219 " fill-opacity="1" fill-rule="nonzero"/><path fill="#e1c4ac" d="M 287.550781 319.738281 C 286.253906 319.757812 286.25 321.777344 287.550781 321.757812 C 290.984375 321.703125 294.382812 322.492188 297.425781 324.074219 C 298.578125 324.675781 299.601562 322.929688 298.445312 322.328125 C 295.085938 320.582031 291.34375 319.675781 287.550781 319.738281 Z M 287.550781 319.738281 " fill-opacity="1" fill-rule="nonzero"/></svg>