<svg xmlns="http://www.w3.org/2000/svg" xmlns:xlink="http://www.w3.org/1999/xlink" width="1024" zoomAndPan="magnify" viewBox="0 0 768 767.999994" height="1024" preserveAspectRatio="xMidYMid meet" version="1.0"><defs><clipPath id="1d31c38912"><path d="M 392 195 L 587.871094 195 L 587.871094 400 L 392 400 Z M 392 195 " clip-rule="nonzero"/></clipPath></defs><rect x="-76.8" width="921.6" fill="#ffffff" y="-76.799999" height="921.599993" fill-opacity="1"/><rect x="-76.8" width="921.6" fill="#ffffff" y="-76.799999" height="921.599993" fill-opacity="1"/><rect x="-76.8" width="921.6" fill="#c9c3c0" y="-76.799999" height="921.599993" fill-opacity="1"/><path fill="#f7e9df" d="M 560.152344 399.503906 C 561.160156 404.339844 562.175781 409.1875 566.128906 412.894531 C 567.035156 413.746094 568.117188 414.429688 569.082031 415.285156 C 571.128906 416.988281 572.660156 419.261719 573.570312 421.820312 C 574.648438 424.832031 574.703125 428.246094 573.398438 431.203125 C 572.714844 432.734375 571.636719 434.101562 570.503906 435.410156 C 568.910156 437.175781 567.035156 438.765625 564.824219 439.558594 C 562.78125 440.300781 560.566406 440.300781 558.347656 440.300781 C 554.484375 440.300781 550.449219 440.300781 546.816406 438.820312 C 545.453125 438.308594 544.207031 437.625 542.953125 436.882812 C 540.792969 435.691406 538.640625 434.4375 536.480469 433.246094 C 534.207031 431.941406 529.042969 425.625 528.074219 424.546875 C 527.226562 423.632812 526.542969 423.296875 525.914062 423.355469 C 524.78125 423.46875 423.804688 477.144531 418.746094 477.429688 C 412.332031 477.828125 405.96875 478.851562 401.820312 482.492188 C 394.265625 489.027344 390.125 500.574219 386.203125 509.332031 C 384.894531 512.515625 383.53125 515.8125 383.757812 519.164062 C 384.269531 527.636719 394.09375 534.519531 391.652344 542.648438 C 389.722656 549.242188 380.6875 552.710938 374.441406 549.984375 C 368.195312 547.253906 363.652344 539.917969 358.371094 535.597656 C 353.484375 531.675781 347.578125 528.433594 345.082031 522.6875 C 344 520.1875 343.320312 517.632812 342.980469 514.957031 C 342.808594 513.589844 342.695312 512.171875 342.640625 510.75 C 345.839844 507.1875 354.871094 491.292969 348.261719 483.34375 C 349.679688 479.019531 351.382812 475.550781 350.875 471.796875 C 350.703125 470.148438 350.078125 468.5 348.886719 466.683594 C 345.988281 462.421875 341.050781 459.519531 335.882812 459.289062 C 335.03125 459.175781 334.121094 459.230469 333.269531 459.347656 C 334.011719 458.71875 334.800781 458.15625 335.597656 457.585938 C 333.496094 454.511719 330.277344 453.691406 327.609375 452.496094 C 326.476562 452.039062 284.144531 353.300781 284.203125 351.144531 C 284.257812 350.917969 284.257812 350.6875 284.257812 350.460938 C 284.335938 347.742188 283.492188 344.242188 281.699219 342.769531 C 281.480469 341.183594 281.269531 339.648438 281.046875 338.0625 C 289.921875 331.578125 315.40625 300.367188 314.238281 246.859375 C 315.089844 244.246094 316 241.570312 317.078125 238.84375 C 319.804688 231.683594 327.242188 216.894531 337.125 218.714844 C 347.117188 220.53125 355.183594 229.800781 353.824219 238.332031 C 352.519531 246.40625 351.039062 254.761719 352.347656 262.949219 C 353.878906 272.558594 361.09375 279.722656 365.296875 288.136719 C 366.542969 290.695312 367.507812 293.367188 368.191406 296.15625 C 369.273438 300.53125 370.460938 305.820312 374.953125 308.039062 C 376.597656 308.835938 378.351562 309.34375 379.945312 310.199219 C 382.699219 311.679688 386.15625 313.933594 389.433594 313.765625 C 392.867188 313.59375 393.304688 312.027344 395.070312 309.226562 C 398.648438 303.546875 400.25 297.554688 402.972656 291.464844 C 405.390625 286.046875 409.226562 281.40625 413.011719 276.84375 C 415.429688 273.929688 417.96875 270.921875 421.429688 269.398438 C 428.289062 266.371094 436.5 270.039062 443.660156 267.835938 C 449.03125 266.183594 452.933594 261.472656 455.542969 256.492188 C 458.160156 251.507812 459.824219 246.058594 462.605469 241.167969 C 469.414062 229.210938 482.628906 221.683594 496.265625 219.910156 C 509.902344 218.136719 523.847656 221.628906 536.160156 227.761719 C 542.578125 230.964844 548.765625 234.976562 553.214844 240.609375 C 558.980469 247.902344 561.40625 257.410156 561.578125 266.710938 C 561.75 276.011719 559.824219 285.210938 557.679688 294.257812 C 556.867188 297.675781 556.015625 301.140625 556.105469 304.648438 C 556.273438 311.222656 559.675781 317.203125 561.847656 323.410156 C 565.785156 334.640625 565.675781 347.25 561.546875 358.410156 C 559.289062 364.507812 555.847656 370.304688 555.230469 376.777344 C 554.503906 384.316406 557.449219 387.894531 559.183594 394.890625 C 559.40625 395.710938 559.984375 398.691406 560.152344 399.503906 Z M 560.152344 399.503906 " fill-opacity="1" fill-rule="nonzero"/><g clip-path="url(#1d31c38912)"><path fill="#86776f" d="M 566.976562 279.84375 C 567.035156 279.105469 567.203125 278.308594 567.375 277.570312 C 568.679688 272.453125 570.210938 267.167969 571.917969 262.164062 C 575.832031 250.28125 582.253906 239.417969 586.90625 227.820312 C 587.246094 227.023438 587.53125 226.113281 587.363281 225.207031 C 586.964844 223.554688 585.039062 222.929688 583.328125 222.703125 C 579.695312 222.304688 575.890625 222.761719 572.480469 224.070312 C 570.035156 225.039062 567.710938 226.398438 565.15625 226.96875 C 558.058594 228.621094 551.242188 224.128906 544.597656 221.117188 C 533.410156 216.054688 521.820312 215.882812 509.898438 214.40625 C 504.789062 213.785156 500.582031 212.53125 495.246094 212.929688 C 489.738281 213.378906 484.171875 214.632812 478.664062 213.949219 C 465.867188 212.289062 457.664062 199.054688 445.484375 195.210938 C 444.511719 194.902344 443.535156 195.699219 443.546875 196.71875 C 443.601562 200.265625 443.0625 207.417969 442.769531 211.105469 C 442.769531 211.390625 442.769531 211.671875 442.710938 211.902344 C 442.65625 212.644531 442.597656 213.15625 442.597656 213.320312 C 442.597656 213.660156 442.539062 214.003906 442.539062 214.34375 C 442.03125 222.644531 441.460938 230.660156 441.121094 232.085938 C 440.445312 234.984375 439.476562 238.058594 437.261719 240.101562 C 435.445312 241.808594 432.949219 242.664062 430.675781 243.683594 C 428.402344 244.707031 426.074219 246.132812 425.109375 248.460938 C 424.144531 250.734375 425.28125 254.03125 427.71875 254.375 C 425.84375 258.640625 418.746094 258.640625 417.328125 263.074219 C 416.988281 264.152344 417.101562 265.347656 416.589844 266.429688 C 415.457031 268.703125 412.277344 268.875 410.285156 270.46875 C 409.203125 271.265625 408.582031 272.460938 407.898438 273.59375 C 407.558594 273.59375 406.9375 274.332031 406.195312 275.472656 C 406.023438 275.699219 405.855469 275.984375 405.683594 276.269531 C 405.398438 276.78125 405.0625 277.347656 404.777344 277.914062 C 404.71875 277.972656 404.664062 278.027344 404.664062 278.085938 C 403.753906 279.738281 402.789062 281.609375 401.878906 283.433594 C 400.402344 286.390625 399.152344 289.066406 398.699219 289.804688 C 395.292969 295.773438 393.929688 298.847656 393.246094 305.382812 C 393.132812 306.234375 392.960938 307.085938 392.675781 307.882812 C 392.675781 309.304688 392.734375 310.785156 392.902344 312.207031 C 392.960938 312.664062 392.960938 313.117188 392.675781 313.402344 C 392.503906 313.515625 392.277344 313.574219 392.113281 313.628906 C 391.488281 313.742188 394.722656 314.3125 396.769531 313.800781 C 398.585938 313.34375 400.519531 312.835938 401.9375 311.585938 C 404.324219 309.535156 404.894531 305.726562 407.503906 304.019531 C 408.355469 303.449219 409.378906 303.164062 410.117188 302.488281 C 410.574219 302.03125 410.914062 301.519531 411.195312 300.953125 C 413.011719 297.3125 413.808594 293.164062 413.464844 289.125 C 413.351562 288.042969 413.179688 286.90625 413.523438 285.941406 C 414.148438 284.234375 416.078125 283.4375 417.785156 282.867188 C 422.039062 281.5625 426.585938 280.59375 431.015625 281.050781 C 433.0625 281.277344 435.101562 281.789062 437.148438 282.355469 C 441.042969 283.347656 445.097656 284.871094 449.078125 285.414062 C 451.765625 285.78125 454.785156 284.285156 457.605469 284.308594 C 459.832031 284.320312 461.917969 283.214844 463.605469 281.761719 C 466.429688 279.320312 469.242188 277.660156 472.386719 275.683594 C 474.046875 274.644531 475.511719 273.332031 476.96875 272.03125 C 477.675781 271.394531 478.386719 270.75 478.847656 269.921875 C 479.417969 268.886719 479.539062 267.671875 479.808594 266.527344 C 480.257812 264.574219 481.171875 262.730469 482.449219 261.183594 C 483.515625 259.894531 484.886719 258.785156 486.5 258.351562 C 490.46875 257.273438 494.90625 260.394531 498.65625 258.699219 C 500.660156 257.792969 501.863281 255.726562 502.695312 253.695312 C 503.527344 251.664062 504.148438 249.484375 505.515625 247.761719 C 506.882812 246.035156 509.3125 244.898438 511.308594 245.8125 C 512.949219 246.5625 513.785156 248.433594 514.042969 250.226562 C 514.300781 252.011719 514.121094 253.84375 514.4375 255.621094 C 515.148438 259.589844 518.527344 262.929688 522.5 263.589844 C 523.695312 263.789062 524.957031 263.769531 526.070312 264.257812 C 527.539062 264.910156 528.496094 266.320312 529.371094 267.664062 C 531.632812 271.125 533.960938 274.789062 534.238281 278.914062 C 534.652344 285.179688 530.226562 291.253906 531.558594 297.390625 C 531.96875 299.292969 532.9375 301.15625 532.644531 303.085938 C 532.5 304.035156 532.050781 304.925781 532.007812 305.882812 C 531.855469 308.878906 535.453125 310.785156 536.0625 313.71875 C 536.359375 315.132812 535.921875 316.644531 536.382812 318.011719 C 536.96875 319.742188 538.757812 320.6875 540.292969 321.671875 C 543.214844 323.554688 545.035156 326.347656 547.601562 328.539062 C 550.230469 330.777344 552.433594 333.324219 554.710938 335.925781 C 555.902344 337.292969 557.097656 338.765625 557.546875 340.53125 C 557.773438 341.441406 557.832031 342.410156 558.175781 343.261719 C 558.628906 344.34375 559.421875 345.082031 560.503906 345.539062 C 559.421875 347.070312 558.058594 348.4375 556.699219 349.6875 C 551.191406 354.632812 544.769531 358.332031 538.414062 362.082031 C 537.046875 362.9375 535.628906 363.785156 534.835938 365.152344 C 534.039062 366.515625 534.039062 368.503906 535.34375 369.414062 C 536.027344 369.925781 536.878906 370.039062 537.503906 370.550781 C 538.355469 371.292969 538.472656 372.539062 538.585938 373.621094 C 539.324219 379.9375 542.390625 385.960938 547.105469 390.222656 C 551.082031 393.804688 556.246094 396.308594 560.222656 399.71875 C 559.480469 394.371094 559.882812 388.0625 562.039062 384.3125 C 562.78125 383.058594 563.800781 381.863281 564.085938 380.390625 C 564.484375 378.054688 562.78125 375.671875 563.230469 373.28125 C 563.574219 371.40625 565.105469 370.039062 565.789062 368.277344 C 566.472656 366.574219 566.355469 364.695312 566.246094 362.820312 C 566.132812 360.65625 566.1875 358.441406 566.304688 356.28125 C 566.304688 355.148438 566.417969 354.066406 566.53125 352.925781 C 566.53125 352.753906 566.53125 352.527344 566.589844 352.300781 C 566.648438 351.21875 566.816406 350.085938 566.988281 348.945312 C 567.160156 347.75 567.332031 346.496094 567.613281 345.308594 C 567.839844 344.171875 568.070312 343.089844 568.351562 341.953125 C 569.09375 339.109375 570.683594 335.695312 573.632812 335.695312 C 571.1875 333.082031 570.625 329.667969 570.625 326.085938 C 570.625 323.472656 570.910156 320.6875 570.910156 318.011719 C 570.910156 315.910156 570.738281 313.863281 570.226562 311.929688 C 569.882812 310.5625 569.257812 309.140625 569.375 307.722656 C 569.546875 306.585938 570.339844 305.332031 571.476562 305.105469 C 571.476562 303.457031 571.253906 301.867188 570.796875 300.273438 C 570.339844 298.855469 569.886719 297.375 569.429688 295.84375 C 568.070312 291.515625 566.820312 287.03125 566.878906 282.539062 C 566.878906 282.027344 566.878906 281.574219 566.9375 281.058594 C 566.863281 280.644531 566.921875 280.246094 566.976562 279.84375 Z M 566.976562 279.84375 " fill-opacity="1" fill-rule="nonzero"/></g><path fill="#86776f" d="M 281.652344 338.582031 C 282.90625 339.664062 283.640625 341.539062 285.230469 342.105469 C 287.902344 343.1875 290.230469 340.054688 292.839844 338.921875 C 294.542969 338.179688 296.589844 338.292969 298.40625 337.667969 C 300.90625 336.871094 302.835938 334.828125 305.28125 333.746094 C 308.574219 332.378906 312.378906 333.0625 315.957031 333.289062 C 319.589844 333.515625 323.679688 333.003906 325.835938 330.105469 C 326.519531 329.140625 326.917969 327.941406 327.652344 327.03125 C 328.394531 326.070312 329.699219 325.386719 330.777344 325.785156 C 331.402344 326.011719 331.910156 326.527344 332.539062 326.46875 C 332.996094 326.46875 333.332031 326.128906 333.671875 325.785156 C 340.089844 319.472656 344.6875 311.398438 346.847656 302.640625 C 347.074219 301.730469 347.753906 300.539062 348.609375 300.9375 C 346.566406 292.574219 344.292969 284.335938 341.796875 276.144531 C 341.058594 273.699219 340.09375 271.03125 337.878906 269.722656 C 334.984375 267.902344 331.121094 269.265625 327.769531 268.414062 C 324.363281 267.566406 321.980469 264.605469 320.050781 261.707031 C 316.757812 256.703125 315.449219 251.984375 314.257812 246.863281 C 311.8125 254.542969 310.167969 261.933594 309.035156 270.40625 C 308.75 272.566406 308.410156 274.785156 308.011719 276.941406 C 306.363281 285.925781 303.585938 294.742188 298.246094 302.300781 C 293.703125 308.839844 287.453125 314.074219 283.308594 320.894531 C 285.238281 321.40625 287.164062 321.976562 289.152344 322.484375 C 286.429688 327.714844 283.757812 332.890625 281.035156 338.125 C 281.253906 338.242188 281.484375 338.410156 281.652344 338.582031 Z M 281.652344 338.582031 " fill-opacity="1" fill-rule="nonzero"/><path fill="#86776f" d="M 332.882812 413.75 C 332.769531 411.933594 332.941406 410.113281 332.199219 408.460938 C 331.171875 406.015625 328.621094 404.652344 327.089844 402.492188 C 324.304688 398.511719 325.386719 392.027344 321.242188 389.472656 C 319.539062 388.390625 317.039062 388.164062 316.246094 386.347656 C 315.734375 385.210938 316.074219 383.898438 315.960938 382.652344 C 315.5625 378.558594 310.335938 376.910156 307.953125 373.5 C 306.191406 370.996094 306.078125 367.699219 304.886719 364.914062 C 303.410156 361.503906 300.457031 358.996094 297.558594 356.613281 C 293.753906 353.488281 289.152344 350.183594 284.210938 351.152344 C 284.152344 353.316406 284.097656 355.53125 283.867188 357.6875 C 283.410156 363.945312 282.335938 370.144531 279.328125 375.542969 C 277.675781 378.558594 275.464844 382.3125 277.5625 385.039062 C 278.984375 383.675781 281.253906 383.160156 283.132812 383.789062 C 283.242188 389.191406 283.355469 394.59375 283.414062 400.054688 C 284.550781 398.234375 287.84375 396.699219 288.980469 399.429688 C 290.070312 402 289.421875 404.722656 288.339844 407.359375 C 282.734375 408.96875 277.070312 410.449219 271.179688 411.410156 C 265.082031 412.40625 258.519531 413.316406 253.96875 417.503906 C 252.929688 418.460938 252.023438 419.574219 250.863281 420.378906 C 249.597656 421.261719 248.097656 421.730469 246.628906 422.214844 C 232.535156 426.835938 219.113281 433.492188 206.890625 441.902344 C 205.3125 442.988281 203.984375 445.824219 205.835938 446.285156 C 200.328125 451.46875 195.710938 457.601562 192.246094 464.328125 C 193.253906 463.890625 194.265625 463.457031 195.277344 463.015625 C 190.753906 467.816406 186.53125 472.898438 182.640625 478.222656 C 181.992188 479.109375 181.320312 480.179688 181.644531 481.230469 C 181.921875 482.125 182.820312 482.644531 183.480469 483.304688 C 186.058594 485.910156 184.769531 490.285156 183.132812 493.570312 C 181.496094 496.855469 179.675781 500.835938 181.597656 503.957031 C 182.308594 505.117188 183.476562 505.972656 184.089844 507.195312 C 186.269531 511.527344 180.65625 517.863281 184.28125 521.09375 C 185.234375 521.941406 186.597656 522.21875 187.550781 523.074219 C 191.246094 526.375 185.4375 533.476562 188.726562 537.1875 C 190.644531 539.347656 194.382812 538.65625 196.59375 540.519531 C 198.988281 542.542969 198.5 546.554688 200.558594 548.921875 C 202.878906 551.578125 207.148438 550.960938 210.351562 552.425781 C 212.632812 553.46875 214.261719 555.519531 216.273438 557.027344 C 218.65625 558.8125 221.527344 559.792969 224.347656 560.75 C 231.816406 563.277344 239.332031 565.820312 247.117188 567.09375 C 255.875 568.527344 264.921875 568.347656 273.472656 570.753906 C 277.292969 571.828125 281.292969 573.425781 285.101562 572.292969 C 287.011719 571.730469 288.683594 570.503906 290.605469 569.945312 C 292.402344 569.421875 294.3125 569.511719 296.183594 569.480469 C 310.765625 569.238281 331.90625 558.222656 334.558594 542.203125 C 335.542969 536.265625 333.277344 526.8125 331.714844 521.101562 C 329.449219 512.816406 323.644531 505.328125 315.609375 502.011719 C 317.464844 502.042969 319.324219 502.074219 321.179688 502.105469 C 314.082031 496.007812 305.976562 491.082031 297.292969 487.597656 C 298.621094 487.625 299.949219 487.65625 301.277344 487.683594 C 294.355469 484.328125 286.933594 480.484375 283.636719 473.53125 C 285.5 468.375 284.609375 462.3125 281.347656 457.90625 C 282.542969 458.214844 283.742188 458.527344 284.9375 458.835938 C 286.863281 453.453125 288.789062 448.070312 290.710938 442.691406 C 290.578125 443.066406 293.191406 445.910156 293.546875 446.265625 C 295.144531 444.484375 296.859375 442.34375 298.882812 440.976562 C 300.972656 439.5625 304.136719 439.796875 306.53125 439.839844 C 307.214844 439.847656 307.953125 439.902344 308.472656 440.34375 C 308.707031 440.546875 308.878906 440.820312 309.09375 441.046875 C 310.472656 442.53125 313.222656 441.929688 314.550781 443.457031 C 315.066406 444.050781 315.261719 444.867188 315.742188 445.488281 C 316.824219 446.886719 318.886719 446.878906 320.511719 447.570312 C 322.953125 448.613281 324.394531 451.300781 326.835938 452.351562 C 328.65625 453.132812 329.585938 449.714844 330.230469 448.445312 C 331.160156 446.613281 332.042969 444.753906 332.871094 442.875 C 334.496094 439.207031 336.035156 435.4375 337.199219 431.597656 C 337.597656 430.285156 338.050781 428.863281 337.769531 427.503906 C 337.542969 426.253906 336.746094 425.167969 336.066406 424.089844 C 334.128906 420.96875 332.996094 417.386719 332.882812 413.75 Z M 332.882812 413.75 " fill-opacity="1" fill-rule="nonzero"/><path fill="#86776f" d="M 374.394531 493.40625 C 372.863281 491.761719 372.917969 488.800781 370.929688 487.945312 C 369.910156 487.492188 368.601562 487.722656 367.863281 486.925781 C 367.296875 486.414062 367.296875 485.503906 366.898438 484.820312 C 365.820312 482.945312 362.527344 483.117188 361.84375 481.066406 C 361.558594 480.269531 361.730469 479.191406 361.046875 478.738281 C 360.652344 478.453125 360.140625 478.511719 359.628906 478.566406 C 357.191406 479.015625 354.859375 479.984375 352.816406 481.351562 C 351.738281 482.148438 350.65625 483.058594 349.296875 483.34375 C 348.957031 483.402344 348.613281 483.402344 348.273438 483.34375 C 348.214844 483.566406 348.105469 483.800781 348.050781 484.023438 C 346.0625 490.222656 343.90625 497.15625 343.109375 504.039062 C 342.769531 506.3125 342.65625 508.53125 342.65625 510.746094 C 346.121094 509.835938 350.203125 507.960938 352.535156 507.5625 C 356 507.050781 358.953125 505.511719 362.191406 504.945312 C 363.78125 504.660156 365.027344 505.402344 366.621094 505.171875 C 368.152344 504.945312 369.972656 503.695312 371.390625 503.070312 C 373.09375 502.328125 374.855469 501.589844 376.050781 500.109375 C 377.183594 498.691406 377.582031 496.46875 376.386719 495.050781 C 375.8125 494.375 374.964844 494.035156 374.394531 493.40625 Z M 374.394531 493.40625 " fill-opacity="1" fill-rule="nonzero"/><path fill="#86776f" d="M 513.308594 404.480469 L 513.367188 404.140625 C 513.253906 401.695312 510.015625 400.671875 507.574219 401.242188 C 505.191406 401.808594 502.976562 403.292969 500.476562 403.121094 C 495.367188 402.835938 493.039062 396.351562 488.324219 394.25 C 483.5 392.085938 477.363281 395.101562 472.761719 392.484375 C 472.933594 394.988281 470.488281 396.976562 468.050781 397.660156 C 465.664062 398.34375 463.054688 398.171875 460.613281 398.96875 C 453.855469 401.300781 451.867188 409.769531 451.242188 416.875 C 450.671875 424.042969 449.652344 432.402344 443.402344 435.925781 C 442.382812 436.492188 441.1875 436.949219 440.507812 437.914062 C 439.597656 439.222656 439.941406 440.988281 439.996094 442.578125 C 439.996094 446.839844 436.984375 450.9375 432.898438 452.1875 C 431.421875 452.644531 429.832031 452.8125 428.582031 453.722656 C 427.675781 454.40625 427.105469 455.425781 426.59375 456.453125 C 423.757812 461.914062 421.425781 467.714844 419.78125 473.683594 C 419.4375 474.933594 419.097656 476.1875 418.757812 477.4375 C 423.8125 477.152344 428.921875 477.265625 433.011719 476.808594 C 439.261719 476.132812 445.734375 475.332031 451.070312 471.980469 C 452.660156 471.015625 454.707031 469.761719 456.296875 470.84375 C 457.261719 471.523438 457.71875 472.945312 458.851562 473.171875 C 459.59375 473.285156 460.328125 472.886719 460.898438 472.429688 C 463.964844 470.328125 466.746094 467.886719 469.300781 465.210938 C 470.097656 466.0625 470.890625 466.917969 471.6875 467.773438 C 478.101562 456.566406 491.792969 452.359375 503.71875 447.242188 C 507.183594 445.765625 511.15625 443.433594 511.265625 439.621094 C 514.675781 441.214844 518.648438 438.199219 520.242188 434.789062 C 521.546875 432.003906 522.230469 429.046875 523.421875 426.203125 C 524.046875 424.839844 524.785156 423.472656 525.921875 423.363281 C 525.179688 422.054688 524.386719 420.863281 523.589844 419.667969 C 520.183594 414.601562 516.722656 409.539062 513.308594 404.480469 Z M 513.308594 404.480469 " fill-opacity="1" fill-rule="nonzero"/><path fill="#f7e9df" d="M 575.277344 230.128906 C 575.984375 230.25 576.894531 230.6875 576.691406 231.371094 C 576.582031 231.738281 576.191406 231.917969 575.875 232.136719 C 575.5625 232.351562 575.285156 232.789062 575.511719 233.089844 C 575.59375 233.203125 575.726562 233.269531 575.816406 233.375 C 576.300781 233.964844 575.082031 234.628906 575.105469 235.386719 C 575.476562 235.414062 575.734375 235.789062 575.765625 236.15625 C 575.796875 236.523438 575.652344 236.882812 575.515625 237.21875 C 574.742188 239.128906 573.964844 241.035156 573.1875 242.941406 C 573.667969 243.210938 574.195312 242.671875 574.488281 242.199219 C 575.804688 240.074219 577.125 237.949219 578.445312 235.816406 C 580.050781 233.230469 582.476562 229.789062 582.34375 226.59375 C 580.378906 226.070312 576.6875 228.929688 575.277344 230.128906 Z M 575.277344 230.128906 " fill-opacity="1" fill-rule="nonzero"/><path fill="#f7e9df" d="M 447.667969 205.125 C 447.542969 203.417969 449.417969 202.214844 450.894531 203.070312 C 453.40625 204.519531 455.851562 206.074219 458.226562 207.726562 C 459.023438 208.28125 459.890625 208.996094 459.898438 209.964844 C 458.570312 209.828125 457.261719 209.496094 456.027344 208.984375 C 455.222656 210.082031 456.917969 211.941406 455.917969 212.859375 C 455.683594 213.078125 455.355469 213.160156 455.09375 213.339844 C 454.320312 213.871094 454.335938 215 454.441406 215.933594 C 454.667969 217.9375 454.894531 219.941406 455.113281 221.949219 C 454.464844 221.761719 453.8125 221.574219 453.167969 221.386719 C 452.652344 223.527344 451.992188 225.628906 451.203125 227.679688 C 451.179688 227.742188 449.941406 225.597656 449.878906 225.300781 C 449.730469 224.574219 449.867188 223.925781 449.859375 223.203125 C 449.824219 220.886719 449.183594 218.507812 448.859375 216.207031 C 448.347656 212.53125 447.949219 208.835938 447.667969 205.125 Z M 447.667969 205.125 " fill-opacity="1" fill-rule="nonzero"/><path fill="#9b8c89" d="M 512.089844 280.667969 C 512.242188 280.117188 511.90625 279.390625 511.304688 279.277344 C 510.464844 279.117188 509.949219 278.929688 509.257812 278.507812 C 508.707031 278.167969 508.136719 277.671875 507.734375 277.136719 C 507.574219 276.925781 507.320312 276.5 507.164062 276.183594 C 507.019531 275.886719 506.898438 275.539062 506.792969 275.136719 C 506.679688 274.679688 506.65625 274.5 506.632812 274.050781 C 506.621094 273.863281 506.628906 273.671875 506.632812 273.480469 C 506.636719 273.40625 506.640625 273.378906 506.648438 273.308594 C 506.902344 273.226562 507.15625 273.136719 507.398438 273.035156 C 508.148438 272.71875 508.898438 272.394531 509.648438 272.078125 C 511.792969 271.175781 514.054688 270.164062 515.332031 268.222656 C 515.5625 267.871094 515.757812 267.480469 515.742188 267.0625 C 515.6875 265.996094 514.34375 265.535156 513.277344 265.5625 C 511.710938 265.601562 510.175781 266.105469 508.601562 266.109375 C 505.492188 266.109375 503.878906 263.964844 501.226562 263.09375 C 498.382812 262.160156 498.066406 265.945312 499.9375 267.542969 C 500.636719 268.140625 501.535156 268.5 502.164062 269.179688 C 502.796875 269.863281 503.074219 270.785156 503.484375 271.621094 C 503.636719 271.945312 503.859375 272.238281 504.089844 272.519531 C 503.996094 272.632812 503.871094 272.707031 503.820312 272.851562 C 503.808594 272.894531 503.808594 272.894531 503.808594 272.90625 C 503.796875 272.925781 503.796875 272.925781 503.777344 272.96875 C 503.71875 273.082031 503.652344 273.191406 503.585938 273.300781 C 503.558594 273.347656 503.523438 273.386719 503.492188 273.433594 C 503.398438 273.535156 503.300781 273.644531 503.203125 273.746094 C 503.09375 273.847656 502.980469 273.949219 502.863281 274.046875 C 502.972656 273.953125 502.960938 273.976562 502.855469 274.050781 C 502.796875 274.09375 502.738281 274.136719 502.671875 274.175781 C 502.535156 274.265625 502.394531 274.347656 502.246094 274.421875 C 502.175781 274.457031 502.105469 274.492188 502.035156 274.523438 C 502.007812 274.535156 502.015625 274.535156 502 274.539062 C 501.988281 274.542969 501.992188 274.539062 501.957031 274.554688 C 501.617188 274.667969 501.285156 274.757812 500.9375 274.824219 C 500.8125 274.847656 501.085938 274.820312 500.871094 274.835938 C 500.761719 274.84375 500.652344 274.851562 500.546875 274.855469 C 500.355469 274.863281 500.167969 274.863281 499.976562 274.851562 C 499.597656 274.835938 499.285156 274.78125 498.804688 274.648438 C 498.335938 274.523438 497.894531 274.351562 497.460938 274.132812 C 496.914062 273.867188 496.234375 273.984375 495.914062 274.539062 C 495.625 275.039062 495.769531 275.816406 496.320312 276.085938 C 498.269531 277.042969 500.5625 277.515625 502.648438 276.699219 C 503.355469 276.417969 504.015625 276.015625 504.582031 275.511719 C 504.796875 276.523438 505.207031 277.484375 505.832031 278.335938 C 507.011719 279.933594 508.742188 281.085938 510.703125 281.449219 C 511.300781 281.570312 511.921875 281.292969 512.089844 280.667969 Z M 512.089844 280.667969 " fill-opacity="1" fill-rule="nonzero"/><path fill="#9b8c89" d="M 521.496094 259.671875 C 522.375 259.902344 523.289062 260.042969 524.191406 259.90625 C 525.089844 259.769531 525.964844 259.332031 526.480469 258.585938 C 526.699219 258.269531 526.851562 257.890625 526.84375 257.5 C 526.824219 256.835938 526.332031 256.253906 525.738281 255.949219 C 525.148438 255.644531 524.46875 255.5625 523.808594 255.5 C 522.4375 255.375 519.941406 254.714844 519.027344 256.097656 C 517.824219 257.921875 520.039062 259.285156 521.496094 259.671875 Z M 521.496094 259.671875 " fill-opacity="1" fill-rule="nonzero"/><path fill="#9b8c89" d="M 496.28125 252.285156 C 497.738281 252.671875 500.335938 252.578125 500.191406 250.398438 C 500.082031 248.742188 497.585938 248.082031 496.332031 247.515625 C 495.726562 247.242188 495.09375 246.976562 494.429688 246.949219 C 493.765625 246.921875 493.050781 247.1875 492.707031 247.757812 C 492.507812 248.089844 492.449219 248.492188 492.484375 248.882812 C 492.566406 249.785156 493.113281 250.601562 493.828125 251.164062 C 494.535156 251.722656 495.402344 252.050781 496.28125 252.285156 Z M 496.28125 252.285156 " fill-opacity="1" fill-rule="nonzero"/><path fill="#9b8c89" d="M 341.507812 237.785156 C 340.101562 236.578125 338.476562 235.488281 336.632812 235.300781 C 334.359375 235.066406 332.304688 236.230469 330.390625 237.296875 C 328.777344 238.203125 326.671875 239.089844 325.324219 240.367188 C 324.707031 240.949219 324.304688 241.824219 324.519531 242.640625 C 324.828125 243.828125 326.226562 244.351562 327.445312 244.503906 C 329.753906 244.789062 332.089844 244.421875 334.417969 244.5 C 337.828125 244.613281 341.378906 245.65625 344.566406 244.441406 C 344.851562 244.332031 345.140625 244.195312 345.328125 243.960938 C 345.808594 243.371094 345.472656 242.484375 345.070312 241.839844 C 344.125 240.300781 342.875 238.960938 341.507812 237.785156 Z M 341.507812 237.785156 " fill-opacity="1" fill-rule="nonzero"/><path fill="#9b8c89" d="M 369.050781 531.511719 C 367.011719 533.324219 366.359375 537.144531 369.660156 537.871094 C 372.429688 538.476562 376.246094 537.542969 377.738281 535.152344 C 378.042969 534.667969 378.347656 534.160156 378.402344 533.59375 C 378.433594 533.257812 378.375 532.917969 378.3125 532.578125 C 378.140625 531.628906 377.964844 530.683594 377.792969 529.730469 C 377.707031 529.261719 377.617188 528.777344 377.363281 528.371094 C 376.777344 527.441406 375.476562 527.21875 374.417969 527.507812 C 373.175781 527.84375 372.164062 528.730469 371.207031 529.585938 C 370.492188 530.230469 369.773438 530.867188 369.050781 531.511719 Z M 369.050781 531.511719 " fill-opacity="1" fill-rule="nonzero"/><path fill="#9b8c89" d="M 385.347656 539.085938 C 386.0625 539.273438 386.839844 539.394531 387.519531 539.125 C 387.878906 538.984375 388.207031 538.710938 388.292969 538.335938 C 388.402344 537.867188 388.09375 537.398438 387.761719 537.046875 C 387.167969 536.417969 386.453125 535.902344 385.671875 535.539062 C 384.734375 535.105469 384.054688 535.175781 383.121094 535.625 C 383 535.683594 382.871094 535.742188 382.773438 535.84375 C 382.589844 536.019531 382.53125 536.285156 382.53125 536.535156 C 382.539062 537.21875 382.949219 537.851562 383.484375 538.269531 C 384.023438 538.6875 384.6875 538.914062 385.347656 539.085938 Z M 385.347656 539.085938 " fill-opacity="1" fill-rule="nonzero"/><path fill="#9b8c89" d="M 381.5625 543.609375 C 382.222656 543.941406 382.953125 544.226562 383.679688 544.105469 C 384.054688 544.039062 384.441406 543.847656 384.601562 543.496094 C 384.804688 543.058594 384.601562 542.542969 384.355469 542.125 C 383.910156 541.386719 383.320312 540.734375 382.628906 540.214844 C 381.796875 539.589844 381.125 539.511719 380.109375 539.757812 C 379.976562 539.789062 379.839844 539.824219 379.726562 539.898438 C 379.515625 540.027344 379.398438 540.277344 379.347656 540.523438 C 379.207031 541.195312 379.472656 541.902344 379.917969 542.421875 C 380.359375 542.941406 380.953125 543.304688 381.5625 543.609375 Z M 381.5625 543.609375 " fill-opacity="1" fill-rule="nonzero"/><path fill="#9b8c89" d="M 376.035156 541.882812 C 375.898438 541.882812 375.753906 541.878906 375.628906 541.917969 C 375.390625 541.996094 375.214844 542.203125 375.101562 542.429688 C 374.792969 543.039062 374.871094 543.785156 375.160156 544.40625 C 375.453125 545.023438 375.9375 545.527344 376.445312 545.980469 C 376.996094 546.46875 377.628906 546.929688 378.367188 547.003906 C 378.746094 547.039062 379.167969 546.949219 379.410156 546.65625 C 379.722656 546.285156 379.65625 545.730469 379.523438 545.265625 C 379.285156 544.433594 378.882812 543.65625 378.347656 542.972656 C 377.707031 542.152344 377.074219 541.910156 376.035156 541.882812 Z M 376.035156 541.882812 " fill-opacity="1" fill-rule="nonzero"/><path fill="#9b8c89" d="M 337.152344 230.515625 C 337.855469 230.628906 338.570312 230.203125 338.976562 229.613281 C 339.382812 229.019531 339.535156 228.296875 339.617188 227.582031 C 339.75 226.449219 339.707031 225.238281 339.097656 224.277344 C 338.488281 223.320312 337.167969 222.742188 336.167969 223.269531 C 334.855469 223.960938 334.832031 225.777344 335.1875 227.011719 C 335.535156 228.226562 335.542969 230.261719 337.152344 230.515625 Z M 337.152344 230.515625 " fill-opacity="1" fill-rule="nonzero"/><path fill="#9b8c89" d="M 345.097656 226.652344 C 343.625 226.800781 342.925781 228.472656 342.785156 229.757812 C 342.65625 231.007812 341.894531 232.898438 343.292969 233.742188 C 343.90625 234.109375 344.722656 233.980469 345.324219 233.589844 C 345.921875 233.195312 346.335938 232.574219 346.679688 231.945312 C 347.226562 230.945312 347.644531 229.804688 347.441406 228.6875 C 347.234375 227.570312 346.230469 226.535156 345.097656 226.652344 Z M 345.097656 226.652344 " fill-opacity="1" fill-rule="nonzero"/><path fill="#9b8c89" d="M 329.691406 232.351562 C 330.40625 232.425781 331.085938 231.953125 331.460938 231.34375 C 331.832031 230.734375 331.941406 229.996094 331.988281 229.28125 C 332.050781 228.144531 331.9375 226.933594 331.277344 226.011719 C 330.613281 225.082031 329.261719 224.585938 328.292969 225.175781 C 327.027344 225.941406 327.105469 227.753906 327.53125 228.964844 C 327.949219 230.164062 328.074219 232.195312 329.691406 232.351562 Z M 329.691406 232.351562 " fill-opacity="1" fill-rule="nonzero"/><path fill="#ceb19b" d="M 432.609375 303.957031 C 427.242188 315.070312 428.105469 327.546875 424.59375 339.167969 C 422.71875 345.367188 419.253906 351.488281 413.5 354.832031 C 408.179688 357.925781 401.234375 357.761719 396.65625 353.316406 C 391.179688 347.984375 394.671875 340.964844 395.777344 334.632812 C 396.773438 328.910156 395.359375 323.382812 394.4375 317.761719 C 392.066406 303.320312 398.792969 290.941406 405.949219 278.929688 C 406.695312 277.675781 404.746094 276.535156 404 277.789062 C 398.304688 287.351562 392.347656 297.554688 391.609375 308.9375 C 391.207031 315.226562 393.152344 321.132812 393.746094 327.332031 C 394.335938 333.453125 391.785156 338.691406 391.351562 344.648438 C 390.757812 352.761719 397.316406 358.820312 405.183594 359.246094 C 414.253906 359.734375 421.589844 352.328125 425.007812 344.570312 C 430.546875 332.007812 428.566406 317.53125 434.566406 305.109375 C 435.191406 303.789062 433.246094 302.640625 432.609375 303.957031 Z M 432.609375 303.957031 " fill-opacity="1" fill-rule="nonzero"/><path fill="#ceb19b" d="M 404.167969 465.796875 C 404.207031 464.339844 401.949219 464.339844 401.90625 465.796875 C 401.578125 477.582031 397.75 488.914062 390.679688 498.375 C 387.71875 502.335938 384.132812 506.078125 383.074219 511.078125 C 382.054688 515.894531 383.335938 520.773438 385.191406 525.226562 C 386.953125 529.457031 389.609375 533.386719 390.675781 537.882812 C 392.53125 545.695312 386.039062 550.988281 378.5625 549.6875 C 367.824219 547.816406 361.867188 535.808594 353.371094 530.0625 C 352.160156 529.242188 351.03125 531.203125 352.234375 532.015625 C 361.296875 538.140625 367.449219 550.933594 379.386719 552.070312 C 389.03125 552.988281 395.304688 545.246094 392.515625 536.070312 C 390.859375 530.632812 387.429688 525.9375 385.871094 520.449219 C 383.339844 511.550781 387.617188 506.246094 392.632812 499.519531 C 399.921875 489.726562 403.828125 477.972656 404.167969 465.796875 Z M 404.167969 465.796875 " fill-opacity="1" fill-rule="nonzero"/><path fill="#ceb19b" d="M 569.210938 414.640625 C 567.957031 413.894531 566.820312 415.847656 568.070312 416.597656 C 574.878906 420.652344 574.347656 430.632812 568.796875 435.5 C 562.378906 441.136719 552.90625 440.335938 545.71875 436.804688 C 530.730469 429.449219 519.308594 413.839844 512.804688 398.859375 C 512.226562 397.527344 510.277344 398.679688 510.851562 400 C 515.035156 409.636719 520.882812 418.492188 528.1875 426.046875 C 534.933594 433.019531 543.332031 440.054688 553.214844 441.59375 C 560.71875 442.761719 569.730469 440.214844 573.589844 433.15625 C 576.980469 426.945312 575.464844 418.371094 569.210938 414.640625 Z M 569.210938 414.640625 " fill-opacity="1" fill-rule="nonzero"/><path fill="#ceb19b" d="M 352.035156 267.171875 C 354.199219 272.675781 357.894531 277.398438 360.828125 282.488281 C 368.542969 295.882812 372.214844 311.085938 371.929688 326.511719 C 371.902344 327.96875 374.160156 327.96875 374.1875 326.511719 C 374.492188 310.054688 370.339844 293.859375 361.832031 279.746094 C 356.621094 271.101562 351.238281 263.660156 353.09375 253.011719 C 354.402344 245.488281 356.832031 238.320312 354.046875 230.789062 C 349.859375 219.480469 336.140625 213.664062 326.058594 221.445312 C 321.496094 224.96875 318.632812 230.304688 316.914062 235.710938 C 314.152344 244.398438 312.308594 253.378906 309.554688 262.085938 C 309.109375 263.480469 311.292969 264.074219 311.730469 262.6875 C 314.046875 255.382812 315.984375 247.972656 317.933594 240.5625 C 319.636719 234.109375 321.898438 227.628906 327.347656 223.355469 C 334.488281 217.75 344.539062 219.84375 349.667969 227.179688 C 354.742188 234.429688 352.941406 242.503906 351.292969 250.515625 C 350.117188 256.253906 349.871094 261.644531 352.035156 267.171875 Z M 352.035156 267.171875 " fill-opacity="1" fill-rule="nonzero"/><path fill="#ceb19b" d="M 521.253906 268.726562 C 526.015625 269.347656 530.710938 270.664062 535.101562 272.601562 C 535.660156 272.84375 536.316406 272.761719 536.648438 272.191406 C 536.925781 271.714844 536.804688 270.894531 536.238281 270.644531 C 531.445312 268.53125 526.441406 267.140625 521.25 266.464844 C 520.644531 266.382812 520.117188 267.039062 520.117188 267.597656 C 520.125 268.269531 520.648438 268.644531 521.253906 268.726562 Z M 521.253906 268.726562 " fill-opacity="1" fill-rule="nonzero"/><path fill="#ceb19b" d="M 522.546875 271.007812 C 521.292969 270.257812 520.15625 272.214844 521.40625 272.960938 C 525.914062 275.664062 530.160156 278.769531 534.074219 282.269531 C 535.160156 283.234375 536.765625 281.640625 535.675781 280.667969 C 531.609375 277.046875 527.210938 273.804688 522.546875 271.007812 Z M 522.546875 271.007812 " fill-opacity="1" fill-rule="nonzero"/><path fill="#ceb19b" d="M 482.207031 253.105469 C 480.789062 252.8125 480.183594 254.992188 481.605469 255.289062 C 486.402344 256.28125 490.921875 258.199219 494.972656 260.953125 C 496.179688 261.769531 497.308594 259.8125 496.113281 258.996094 C 491.914062 256.148438 487.171875 254.140625 482.207031 253.105469 Z M 482.207031 253.105469 " fill-opacity="1" fill-rule="nonzero"/><path fill="#ceb19b" d="M 493.066406 262.050781 C 488.097656 261.230469 483.070312 260.945312 478.035156 261.238281 C 476.589844 261.324219 476.582031 263.585938 478.035156 263.5 C 482.855469 263.21875 487.699219 263.449219 492.46875 264.230469 C 493.074219 264.332031 493.679688 264.074219 493.859375 263.445312 C 494.011719 262.902344 493.667969 262.148438 493.066406 262.050781 Z M 493.066406 262.050781 " fill-opacity="1" fill-rule="nonzero"/></svg>