<svg xmlns="http://www.w3.org/2000/svg" xmlns:xlink="http://www.w3.org/1999/xlink" width="1024" zoomAndPan="magnify" viewBox="0 0 768 767.999994" height="1024" preserveAspectRatio="xMidYMid meet" version="1.0"><defs><clipPath id="ce18387f9d"><path d="M 205 239 L 597.679688 239 L 597.679688 535 L 205 535 Z M 205 239 " clip-rule="nonzero"/></clipPath><clipPath id="50dd928a5f"><path d="M 170.179688 232 L 451 232 L 451 391 L 170.179688 391 Z M 170.179688 232 " clip-rule="nonzero"/></clipPath><clipPath id="852fe3e079"><path d="M 247 497 L 283 497 L 283 535.742188 L 247 535.742188 Z M 247 497 " clip-rule="nonzero"/></clipPath></defs><rect x="-76.8" width="921.6" fill="#ffffff" y="-76.799999" height="921.599993" fill-opacity="1"/><rect x="-76.8" width="921.6" fill="#f1eaea" y="-76.799999" height="921.599993" fill-opacity="1"/><g clip-path="url(#ce18387f9d)"><path fill="#fff9f5" d="M 583.703125 358.9375 C 583.550781 358.894531 583.402344 358.847656 583.253906 358.800781 C 581.15625 358.132812 579.046875 357.03125 577.945312 355.128906 C 576.847656 353.222656 577.207031 350.371094 579.152344 349.335938 C 581.058594 348.328125 583.410156 349.398438 585.539062 349.046875 C 585.917969 348.988281 586.328125 348.84375 586.484375 348.492188 C 586.609375 348.214844 586.527344 347.886719 586.40625 347.609375 C 585.128906 344.746094 580.570312 345.132812 578.710938 342.613281 C 577.03125 340.332031 579.304688 336.484375 582.113281 336.855469 C 581.339844 335.832031 580.707031 334.714844 580.226562 333.523438 C 581.726562 332.894531 584.277344 333.4375 584.398438 331.816406 C 584.46875 330.871094 583.417969 330.28125 582.535156 329.9375 C 579.558594 328.769531 576.578125 327.609375 573.59375 326.449219 C 575.253906 325.03125 577.640625 324.511719 579.734375 325.117188 C 580.816406 325.425781 581.816406 326.011719 582.925781 326.195312 C 584.035156 326.375 585.375 325.976562 585.761719 324.917969 C 586.394531 323.164062 584.125 321.875 582.359375 321.265625 C 577.378906 319.535156 573.65625 316.109375 569.25 313.640625 C 569.679688 313.179688 574.207031 308.488281 574.453125 308.644531 C 572.023438 307.125 569.863281 305.183594 568.085938 302.9375 C 567.453125 302.140625 566.839844 301.121094 567.183594 300.164062 C 567.507812 299.257812 568.53125 298.851562 569.441406 298.542969 C 575.078125 296.648438 580.714844 294.757812 586.359375 292.863281 C 575.394531 289.660156 564.4375 286.453125 553.476562 283.25 C 553.074219 282.574219 552.632812 281.921875 552.214844 281.246094 C 554.121094 279.171875 556.023438 277.097656 557.929688 275.019531 C 553.742188 273.953125 549.773438 272.03125 546.351562 269.394531 C 553.839844 266.125 561.507812 262.738281 567.3125 256.988281 C 556.71875 257.195312 546.167969 258.566406 535.84375 260.945312 C 534.925781 260.117188 533.96875 259.335938 532.996094 258.578125 C 534.324219 255.753906 536.171875 253.175781 538.460938 251.058594 C 535.457031 251.296875 532.449219 251.539062 529.449219 251.777344 C 530.648438 247.789062 531.84375 243.796875 533.042969 239.808594 C 527.402344 243.789062 521.601562 247.550781 515.738281 251.183594 C 512.375 250.773438 508.976562 250.839844 505.582031 251.332031 C 505.277344 247.242188 504.976562 243.152344 504.671875 239.0625 C 501.515625 244.023438 498.363281 248.992188 495.136719 254.0625 C 492.089844 255.195312 489.113281 256.550781 486.257812 258.109375 C 486.03125 257.910156 485.773438 257.734375 485.609375 257.457031 C 485.039062 258.222656 484.378906 258.898438 483.730469 259.597656 C 483.101562 259.976562 482.445312 260.324219 481.824219 260.71875 C 480.964844 261.265625 480.09375 261.886719 479.222656 262.480469 C 478.613281 260.601562 477.476562 258.890625 475.921875 257.664062 C 475.917969 260.34375 475.78125 263.1875 474.878906 265.652344 C 472.898438 267.1875 470.921875 268.8125 468.960938 270.570312 C 466.515625 270.707031 464.09375 269.574219 463.769531 267.179688 C 462.210938 271.898438 460.554688 276.792969 458.535156 281.457031 C 457.71875 282.445312 457.003906 283.511719 456.230469 284.535156 C 455.40625 282.851562 454.585938 281.171875 453.769531 279.5 C 453.324219 282.21875 452.164062 284.804688 450.382812 286.90625 C 430.230469 279.109375 409.34375 272.882812 387.941406 269.6875 C 367.898438 266.699219 347.867188 267.648438 327.691406 268.039062 C 314.699219 268.292969 300.082031 269.269531 291.5625 279.070312 C 289.386719 281.574219 287.75 284.53125 285.382812 286.859375 C 280.457031 291.695312 273.117188 293.089844 266.222656 293.316406 C 259.324219 293.542969 252.300781 292.855469 245.59375 294.480469 C 233.320312 297.449219 223.597656 308.605469 221.90625 321.105469 C 220.871094 328.746094 222.5625 336.5 222.335938 344.207031 C 221.84375 360.722656 212.925781 375.765625 206.34375 390.4375 C 206.007812 391.183594 206.699219 392.085938 206.878906 392.933594 C 207.816406 397.257812 208.753906 401.542969 209.691406 405.871094 C 210.714844 410.820312 211.34375 417.023438 207.234375 419.96875 C 206.742188 420.324219 206.121094 420.726562 206.074219 421.351562 C 206.074219 421.972656 206.746094 422.421875 207.324219 422.734375 C 209.960938 424.339844 211.878906 427.332031 211.746094 430.40625 C 211.613281 433.480469 209.066406 436.429688 205.941406 436.5625 C 209.289062 439.863281 212.589844 443.210938 215.9375 446.507812 C 217.050781 447.621094 218.253906 448.964844 218.167969 450.527344 C 218.078125 452 216.074219 453.066406 215.136719 452.175781 C 217.945312 455.300781 219.734375 459.359375 220.179688 463.507812 C 216.472656 464.933594 212.371094 465.199219 208.53125 464.21875 C 215.941406 468.410156 222.769531 473.585938 228.789062 479.519531 C 229.011719 481.570312 225.753906 481.570312 223.878906 480.679688 C 225.753906 484.601562 229.636719 487.550781 233.917969 488.304688 C 233.117188 491.335938 230.214844 493.570312 227.132812 493.835938 C 233.605469 494.773438 239.1875 499.230469 242.265625 504.941406 C 244.761719 509.671875 250.835938 516.453125 251.679688 521.445312 C 252.035156 523.589844 251.546875 525.730469 251.769531 527.867188 C 251.949219 530.007812 253.246094 532.328125 255.386719 532.554688 C 256.722656 532.6875 257.976562 531.929688 259.269531 531.796875 C 262.707031 531.484375 266.1875 535.183594 269.136719 533.402344 C 270.074219 532.867188 270.742188 531.839844 271.769531 531.484375 C 273.507812 530.898438 275.296875 532.644531 277.167969 532.554688 C 278.59375 532.507812 279.800781 531.304688 280.335938 529.964844 C 280.871094 528.628906 280.871094 527.15625 280.871094 525.6875 C 280.828125 521.582031 280.828125 517.433594 280.828125 513.285156 C 280.78125 510.65625 280.515625 506.6875 284.578125 507.800781 C 292.078125 509.894531 292.746094 519.351562 294.398438 525.6875 C 294.890625 527.605469 295.425781 529.570312 296.582031 531.175781 C 297.789062 532.738281 299.796875 533.847656 301.71875 533.359375 C 302.96875 533.003906 303.949219 532.46875 305.246094 532.824219 C 306.183594 533.09375 306.71875 534.074219 307.964844 534.160156 C 310.0625 534.339844 312.339844 533.359375 313.410156 531.488281 C 314.121094 533.582031 317.113281 534.160156 318.988281 533.003906 C 320.910156 531.84375 321.84375 529.570312 322.203125 527.382812 C 322.515625 525.464844 322.46875 523.503906 322.113281 521.582031 C 321.757812 519.707031 321.042969 517.882812 321.042969 515.964844 C 321.042969 513.820312 321.308594 511.59375 321.664062 509.363281 C 320.824219 501.222656 329.679688 452.710938 358.839844 444.773438 C 359.332031 444.550781 359.867188 444.328125 360.402344 444.148438 C 365.492188 442.453125 376.875 444.460938 385.617188 457.265625 C 390.214844 464.179688 393.519531 472.789062 394.675781 480.996094 C 395.03125 483.40625 395.171875 485.859375 395.304688 488.308594 C 395.570312 492.816406 395.796875 497.320312 396.0625 501.828125 C 396.285156 505.882812 397.175781 510.078125 395.617188 513.964844 C 395.171875 515.167969 394.503906 516.328125 394.320312 517.617188 C 394.140625 519.089844 394.675781 520.652344 395.75 521.722656 C 396.820312 522.792969 398.421875 523.328125 399.898438 523.105469 C 400.34375 523.058594 400.789062 522.925781 401.238281 522.972656 C 401.949219 523.015625 402.625 523.464844 403.246094 523.863281 C 405.519531 525.203125 408.242188 525.378906 410.746094 524.664062 C 413.425781 523.90625 415.832031 524.976562 418.601562 524.796875 C 420.429688 524.664062 422.21875 523.90625 423.910156 523.148438 C 425.339844 522.523438 426.769531 521.855469 427.882812 520.742188 C 428.777344 519.890625 429.359375 518.820312 429.9375 517.792969 C 432.214844 513.828125 434.488281 509.808594 435.425781 505.347656 C 435.652344 504.234375 435.824219 503.121094 435.921875 502.050781 C 436.144531 502.988281 436.414062 503.96875 436.636719 504.910156 C 437.4375 507.984375 438.152344 510.839844 438.375 514.054688 C 438.597656 517.351562 438.648438 520.699219 439.316406 523.957031 C 439.628906 525.25 440.117188 526.71875 441.367188 527.304688 C 442.933594 528.0625 444.757812 527.082031 446.503906 527.257812 C 448.597656 527.480469 451.054688 529.890625 453.289062 528.640625 C 454.046875 528.195312 454.449219 527.347656 455.207031 526.992188 C 456.320312 526.457031 457.617188 527.082031 458.777344 527.527344 C 461.546875 528.597656 464.714844 528.597656 467.484375 527.484375 C 470.203125 526.371094 472.480469 524.179688 473.730469 521.460938 C 475.339844 517.984375 475.117188 513.96875 475.160156 510.085938 C 475.203125 506.074219 475.785156 502.101562 476.453125 498.179688 C 476.988281 494.925781 477.566406 491.664062 477.96875 488.367188 C 478.769531 481.808594 482.167969 477.660156 485.875 472.171875 C 486.855469 470.699219 487.835938 468.605469 486.585938 467.3125 C 485.957031 466.644531 484.933594 466.464844 484.261719 465.839844 C 482.523438 464.140625 484.621094 461.378906 486.585938 459.996094 C 485.289062 458.96875 483.953125 457.941406 482.660156 456.914062 C 484.710938 449.601562 487.96875 442.683594 492.25 436.445312 C 490.867188 436.042969 489.488281 435.644531 488.101562 435.28125 C 489.261719 433.277344 485.875 431.445312 485.734375 429.171875 C 485.695312 428.277344 486.132812 427.429688 486.585938 426.671875 C 489.171875 422.347656 491.71875 418.019531 494.304688 413.695312 C 494.125 413.695312 493.992188 413.644531 493.808594 413.644531 C 493.363281 413.601562 492.960938 413.554688 492.425781 413.464844 C 492.113281 413.421875 491.84375 413.421875 491.535156 413.375 C 491.625 413.105469 491.667969 412.882812 491.757812 412.617188 C 492.203125 411.054688 492.695312 409.542969 493.140625 407.980469 C 493.273438 407.53125 493.40625 407.085938 493.539062 406.683594 C 494.339844 404.140625 495.105469 401.601562 495.863281 399.054688 C 492.605469 399.679688 489.570312 396.648438 488.988281 393.394531 C 488.808594 392.453125 488.765625 391.5625 488.855469 390.628906 C 488.988281 388.308594 489.792969 385.949219 490.554688 383.757812 C 491.578125 380.902344 492.558594 378.050781 493.539062 375.238281 C 492.203125 375.949219 490.867188 376.664062 489.523438 377.378906 C 488.722656 377.828125 487.875 378.273438 487.027344 378.71875 C 488.453125 377.957031 488.363281 362.65625 488.453125 360.5625 C 488.585938 356.28125 487.828125 353.292969 485.816406 349.546875 C 480.910156 340.359375 482.558594 330.722656 480.996094 320.550781 C 480.863281 319.839844 480.683594 319.035156 480.105469 318.628906 C 479.476562 318.234375 478.40625 318.679688 478.585938 319.390625 C 478.160156 317.398438 477.496094 315.46875 476.726562 313.582031 C 479.941406 311.15625 483.699219 309.75 487.539062 310.667969 C 489.167969 311.0625 490.851562 311.839844 492.527344 311.992188 C 493.695312 312.097656 496.835938 311.109375 497.570312 311.363281 C 500.582031 312.390625 500.128906 317.039062 498.816406 319.949219 C 500.617188 320.796875 501.460938 317.628906 503.050781 316.425781 C 504.71875 315.160156 507.332031 316.574219 507.957031 318.570312 C 508.582031 320.5625 507.804688 322.714844 506.859375 324.582031 C 505.90625 326.445312 504.742188 328.285156 504.535156 330.363281 C 507.4375 328.6875 510.722656 326.945312 513.980469 327.753906 C 517.234375 328.558594 519.242188 333.445312 516.464844 335.320312 C 515.214844 336.164062 513.097656 336.671875 513.363281 338.148438 C 514.726562 338.457031 516.09375 338.765625 517.460938 339.074219 C 516.523438 340.75 515.597656 342.421875 514.667969 344.097656 C 516.355469 343.503906 518.152344 342.910156 519.902344 343.277344 C 521.648438 343.644531 523.25 345.378906 522.777344 347.105469 C 522.546875 347.972656 521.875 348.636719 521.21875 349.253906 C 516.890625 353.347656 512.386719 357.253906 507.722656 360.964844 C 508.507812 363.820312 512.757812 363.367188 515.3125 361.875 C 517.867188 360.382812 521.136719 358.484375 523.464844 360.300781 C 521.765625 365.339844 517.605469 369.484375 512.558594 371.167969 C 514.113281 373.457031 516.222656 375.371094 518.660156 376.695312 C 517.890625 378.222656 517.117188 379.757812 516.351562 381.296875 C 518.136719 381.484375 519.929688 381.675781 521.722656 381.863281 C 519.101562 389.15625 514.324219 395.65625 508.152344 400.339844 C 513.003906 400.339844 517.824219 398.296875 521.203125 394.820312 C 522.371094 399.175781 519.710938 404.195312 515.453125 405.683594 C 517.222656 407.589844 516.292969 411.222656 513.824219 412.050781 C 516.53125 411.960938 517.738281 415.878906 516.335938 418.191406 C 514.933594 420.507812 512.191406 421.558594 509.746094 422.71875 C 507.300781 423.882812 504.714844 425.625 504.316406 428.308594 C 507.0625 428.839844 510.035156 425.75 512.367188 427.285156 C 513.699219 428.160156 513.839844 430.144531 513.171875 431.597656 C 512.507812 433.046875 511.265625 434.125 510.1875 435.300781 C 506.925781 438.847656 505 443.59375 504.867188 448.410156 C 506.175781 447.199219 507.550781 445.953125 509.257812 445.457031 C 510.964844 444.953125 513.105469 445.449219 513.925781 447.023438 C 514.429688 447.996094 514.347656 449.15625 514.25 450.253906 C 513.980469 453.351562 513.707031 456.457031 513.4375 459.558594 C 513.148438 462.839844 512.929688 466.398438 514.738281 469.148438 C 516.542969 471.902344 521.246094 472.839844 522.992188 470.050781 C 524.214844 478.226562 527.589844 486.066406 532.6875 492.578125 C 534.253906 489.351562 535.367188 485.914062 536 482.390625 C 537.007812 484.109375 539.179688 485.058594 541.128906 484.632812 C 543.070312 484.199219 544.640625 482.421875 544.828125 480.441406 C 546.101562 481.328125 547.371094 482.210938 548.640625 483.097656 C 549.539062 477.664062 550.429688 472.230469 551.324219 466.796875 C 551.445312 466.09375 551.582031 465.339844 552.074219 464.828125 C 553.167969 463.6875 555.070312 464.433594 556.429688 465.230469 C 559.429688 466.988281 562.425781 468.746094 565.421875 470.503906 C 563.113281 465.027344 560.804688 459.546875 558.5 454.066406 C 559.855469 452.996094 561.804688 453.746094 563.460938 454.210938 C 565.125 454.671875 567.515625 454.347656 567.726562 452.632812 C 564.425781 450.609375 561.808594 447.496094 560.394531 443.894531 C 565.269531 441.914062 570.871094 441.792969 575.824219 443.570312 C 574.09375 441.171875 571.855469 439.144531 569.300781 437.65625 C 570.191406 438.257812 571.464844 438.222656 572.308594 437.558594 C 571.113281 434.410156 569.902344 431.269531 568.671875 428.132812 C 572.238281 427.890625 575.808594 427.648438 579.375 427.40625 C 580.085938 427.359375 580.882812 427.269531 581.335938 426.71875 C 581.984375 425.933594 581.546875 424.761719 581.085938 423.851562 C 579.644531 421.023438 578.207031 418.191406 576.765625 415.363281 C 576.4375 414.722656 576.101562 414.03125 576.183594 413.3125 C 576.5 410.453125 579.992188 410.699219 579.917969 407.789062 C 579.890625 406.648438 578.773438 405.804688 579.070312 404.34375 C 579.132812 404.035156 580.683594 401.40625 580.824219 401.75 C 581.316406 402.960938 583.328125 402.722656 583.964844 401.582031 C 584.597656 400.4375 584.21875 399 583.617188 397.835938 C 583.015625 396.675781 582.199219 395.597656 581.933594 394.316406 C 581.667969 393.039062 582.222656 391.445312 583.492188 391.136719 C 584.121094 390.984375 584.777344 391.175781 585.417969 391.132812 C 586.058594 391.089844 586.785156 390.628906 586.703125 389.992188 C 585.566406 389.609375 585.699219 387.773438 586.691406 387.09375 C 587.679688 386.417969 588.992188 386.570312 590.175781 386.769531 C 591.355469 386.96875 592.648438 387.167969 593.6875 386.570312 C 593.820312 385.039062 592.375 383.816406 590.929688 383.28125 C 589.488281 382.738281 587.875 382.574219 586.609375 381.699219 C 585.34375 380.820312 584.660156 378.800781 585.796875 377.765625 C 586.558594 377.074219 587.71875 377.152344 588.726562 377.332031 C 591.71875 377.863281 594.621094 378.917969 597.257812 380.433594 C 595.4375 374.8125 591.402344 369.945312 586.21875 367.105469 C 587.671875 365.808594 590.359375 367.03125 591.734375 365.652344 C 593.222656 364.160156 591.445312 361.644531 589.539062 360.757812 C 587.703125 359.886719 585.664062 359.519531 583.703125 358.9375 Z M 583.703125 358.9375 " fill-opacity="1" fill-rule="nonzero"/></g><path fill="#bbb3b0" d="M 494.3125 413.679688 C 494.132812 413.679688 494 413.632812 493.820312 413.632812 C 493.328125 413.632812 492.882812 413.632812 492.527344 413.5 C 492.484375 413.5 492.484375 413.5 492.433594 413.453125 C 492.074219 413.363281 491.808594 413.097656 491.761719 412.605469 C 491.71875 412.511719 491.71875 412.472656 491.71875 412.378906 C 491.71875 411.09375 492.742188 409.214844 493.148438 407.964844 C 493.28125 407.519531 493.417969 407.074219 493.546875 406.671875 C 494.347656 404.125 495.109375 401.585938 495.867188 399.042969 C 492.609375 399.667969 489.578125 396.632812 488.992188 393.378906 C 488.8125 392.441406 488.769531 391.550781 488.859375 390.617188 C 488.011719 391.820312 487.296875 393.246094 486.941406 394.628906 C 486.628906 395.964844 486.628906 397.390625 486.050781 398.6875 C 485.378906 400.160156 484.039062 401.273438 483.28125 402.742188 C 482.167969 404.835938 482.300781 407.339844 481.984375 409.703125 C 481.183594 416.125 477.03125 423.621094 471.542969 427.097656 C 469.980469 428.082031 468.0625 429.507812 468.507812 431.292969 C 468.6875 431.964844 469.175781 432.496094 469.535156 433.121094 C 470.78125 435.355469 469.488281 438.609375 467.039062 439.410156 C 467.664062 440.167969 468.289062 440.972656 468.914062 441.730469 C 463.558594 447.128906 458.15625 452.484375 452.804688 457.835938 C 456.597656 458.28125 459.457031 462.472656 458.476562 466.132812 C 458.25 467.070312 457.804688 467.960938 457.890625 468.894531 C 458.160156 471.703125 462.9375 472.644531 462.847656 475.496094 C 460.835938 476.386719 458.515625 476.566406 456.421875 476.03125 C 459.589844 479.0625 461.953125 482.988281 463.117188 487.226562 C 462.714844 489.59375 465.300781 491.332031 467.578125 491.910156 C 469.902344 492.445312 472.578125 492.621094 474.140625 494.40625 C 475.03125 495.4375 475.390625 496.816406 476.191406 497.886719 C 476.28125 497.976562 476.371094 498.066406 476.460938 498.15625 C 477 494.902344 477.578125 491.640625 477.980469 488.34375 C 478.78125 481.785156 482.175781 477.636719 485.882812 472.148438 C 486.863281 470.675781 487.847656 468.582031 486.59375 467.289062 C 485.96875 466.621094 484.945312 466.441406 484.269531 465.8125 C 482.53125 464.117188 484.632812 461.355469 486.59375 459.972656 C 485.300781 458.941406 483.964844 457.917969 482.664062 456.890625 C 484.71875 449.578125 487.980469 442.660156 492.261719 436.421875 C 490.875 436.015625 489.496094 435.613281 488.113281 435.257812 C 489.273438 433.253906 485.878906 431.421875 485.746094 429.144531 C 485.699219 428.253906 486.144531 427.40625 486.59375 426.648438 C 489.183594 422.335938 491.722656 418.003906 494.3125 413.679688 Z M 494.3125 413.679688 " fill-opacity="1" fill-rule="nonzero"/><path fill="#bbb3b0" d="M 346.191406 446.332031 C 339.230469 449.097656 333.558594 454.367188 328.117188 459.492188 C 329.632812 460.832031 327.894531 463.242188 326.0625 464.179688 C 324.28125 465.117188 321.957031 466.320312 322.269531 468.28125 C 322.3125 468.867188 322.675781 469.398438 322.898438 469.980469 C 323.789062 472.296875 322.765625 475.023438 320.976562 476.804688 C 319.195312 478.589844 316.828125 479.570312 314.503906 480.550781 C 316.15625 481.574219 314.636719 484.078125 312.988281 485.101562 C 311.335938 486.082031 309.238281 487.6875 310.128906 489.425781 C 310.488281 490.144531 311.199219 490.5 311.867188 490.945312 C 314.054688 492.507812 315.171875 495.492188 314.546875 498.128906 C 314.367188 498.839844 314.101562 499.601562 314.457031 500.222656 C 314.949219 501.15625 316.289062 501.070312 317.269531 501.515625 C 319.410156 502.539062 318.964844 505.710938 320.128906 507.804688 C 320.308594 508.121094 320.847656 508.453125 321.4375 508.757812 C 319.839844 514.027344 319.738281 519.429688 320.445312 524.90625 C 320.746094 527.234375 321.171875 530.84375 318.574219 532.09375 C 317.386719 532.667969 315.914062 532.40625 314.925781 531.585938 C 314.210938 530.996094 313.628906 530.238281 312.574219 530.40625 C 311.613281 530.570312 311.101562 531.585938 310.304688 532.046875 C 309.175781 532.695312 307.738281 532.800781 306.535156 532.316406 C 305.613281 531.949219 304.992188 531.105469 303.945312 531.132812 C 302.855469 531.160156 302.125 532.128906 301.027344 532.242188 C 297.707031 532.582031 295.917969 529.160156 295.199219 526.480469 C 294.398438 523.488281 293.957031 520.394531 293.269531 517.375 C 291.648438 510.230469 289.675781 503.164062 287.941406 496.042969 C 287.574219 494.558594 285.289062 495.1875 285.65625 496.671875 C 287.445312 504.019531 289.484375 511.304688 291.140625 518.6875 C 292.324219 523.972656 292.515625 532.507812 298.882812 534.367188 C 300.039062 534.707031 301.308594 534.742188 302.460938 534.363281 C 302.808594 534.25 303.679688 533.535156 303.984375 533.554688 C 304.273438 533.566406 304.976562 534.210938 305.253906 534.34375 C 307.351562 535.359375 309.980469 535.152344 311.902344 533.839844 C 312.191406 533.640625 312.933594 532.941406 313.011719 532.953125 C 313 532.953125 314.070312 533.910156 314.175781 533.976562 C 315.261719 534.609375 316.546875 534.855469 317.796875 534.71875 C 320.195312 534.457031 321.96875 532.707031 322.660156 530.445312 C 323.644531 527.199219 322.546875 523.636719 322.375 520.347656 C 322.152344 516.101562 322.667969 511.984375 324.109375 507.972656 C 324.140625 507.890625 324.082031 507.839844 324.097656 507.765625 C 325.828125 502.027344 328.355469 486.371094 330.433594 481.4375 C 335.257812 470.109375 341.8125 459.402344 350.652344 450.792969 C 353.105469 448.429688 355.785156 446.199219 358.863281 444.769531 C 354.710938 443.878906 349.578125 444.949219 346.191406 446.332031 Z M 346.191406 446.332031 " fill-opacity="1" fill-rule="nonzero"/><g clip-path="url(#50dd928a5f)"><path fill="#bbb3b0" d="M 412.328125 346.011719 C 413.402344 344.628906 414.738281 343.472656 416.253906 342.574219 C 417.054688 343.242188 417.910156 343.957031 418.710938 344.628906 C 422.550781 342.84375 425.808594 339.898438 427.902344 336.238281 C 430.359375 332.046875 431.203125 327.183594 432.816406 322.59375 C 435.046875 316.347656 438.703125 310.59375 443.484375 306.003906 C 444.644531 307.609375 445.804688 309.214844 447.011719 310.820312 C 445.894531 303.058594 446.96875 294.984375 450.042969 287.757812 C 450.175781 287.488281 450.269531 287.222656 450.402344 286.910156 C 447.324219 278.214844 444.199219 269.425781 441.027344 260.726562 C 439.914062 263.09375 438.839844 265.5 437.722656 267.863281 C 435.132812 265.542969 433.082031 262.644531 431.695312 259.476562 C 431.160156 260.589844 430.625 261.660156 430.132812 262.78125 C 427.410156 260.152344 425.042969 257.203125 423.167969 253.949219 C 422.277344 255.6875 421.425781 257.472656 420.578125 259.253906 C 417.632812 252.605469 415.136719 245.78125 413.125 238.820312 C 412.722656 241.769531 412.011719 244.710938 411.074219 247.5625 C 410.179688 246.179688 409.289062 244.800781 408.394531 243.371094 C 406.742188 246.179688 404.199219 249.394531 400.984375 248.8125 C 398.527344 248.367188 397.058594 245.910156 396.34375 243.546875 C 395.582031 241.179688 395.226562 238.59375 393.710938 236.675781 C 392.773438 238.28125 391.832031 239.929688 390.898438 241.535156 C 389.648438 239.886719 388.402344 238.238281 387.148438 236.589844 C 383.980469 239.933594 379.785156 242.390625 375.277344 243.503906 C 373.398438 240.554688 371.214844 237.835938 368.714844 235.386719 C 368 238.195312 366.570312 241.589844 363.671875 241.765625 C 361.617188 241.898438 359.746094 239.886719 360.015625 237.882812 C 358.136719 238.683594 356.578125 240.066406 355.554688 241.808594 C 356 238.59375 355.734375 235.25 354.753906 232.128906 C 350.292969 238.152344 344.710938 243.28125 338.371094 247.25 C 338.191406 245.734375 338.015625 244.21875 337.835938 242.703125 C 335.425781 244.039062 333.285156 245.777344 331.453125 247.835938 C 333.019531 244.84375 333.550781 241.367188 332.929688 238.0625 C 328.292969 249.457031 317.613281 256.667969 307.488281 264.015625 C 303.96875 261.089844 299.34375 262.976562 295.132812 266.246094 C 291.65625 268.945312 288.96875 272.511719 286.328125 276.035156 C 286 275.035156 285.332031 274.152344 284.457031 273.566406 C 284.125 277.417969 283.664062 281.570312 281.050781 284.421875 C 278.4375 287.273438 272.878906 287.578125 271.246094 284.070312 C 269.742188 284.820312 268.234375 285.5625 266.726562 286.3125 C 265.726562 285.105469 264.722656 283.890625 263.722656 282.683594 C 263.320312 284.394531 261.414062 285.519531 259.671875 285.265625 C 257.933594 285.015625 256.496094 283.5625 256.007812 281.878906 C 254.867188 286.429688 248.777344 288.628906 244.65625 286.371094 C 243.335938 285.640625 242.148438 284.546875 240.660156 284.304688 C 239.171875 284.0625 237.328125 285.355469 237.835938 286.777344 C 236.300781 284.640625 234.449219 282.734375 232.363281 281.132812 C 231.078125 284.339844 229.570312 287.453125 227.847656 290.445312 C 227.148438 289.644531 226.449219 288.84375 225.75 288.042969 C 224.214844 289.429688 223.011719 291.195312 222.269531 293.132812 C 221.46875 292.632812 220.667969 292.136719 219.863281 291.640625 C 222.089844 293.023438 218.441406 297.941406 217.289062 298.855469 C 214.789062 300.832031 211.953125 302.492188 208.660156 302.410156 C 205.316406 302.328125 202.058594 300.558594 200.171875 297.792969 C 199.589844 298.734375 198.902344 299.675781 197.890625 300.117188 C 196.882812 300.5625 195.484375 300.285156 195.027344 299.28125 C 195.316406 299.914062 194.644531 300.640625 193.953125 300.691406 C 193.257812 300.734375 192.625 300.339844 192.039062 299.960938 C 189.894531 298.5625 187.746094 297.164062 185.597656 295.765625 C 185.9375 296.726562 186.089844 297.757812 186.042969 298.78125 C 184.203125 299.355469 182.203125 299.382812 180.34375 298.875 C 179.480469 298.636719 178.550781 298.289062 177.726562 298.632812 C 177.242188 298.835938 176.875 299.257812 176.390625 299.453125 C 174.613281 300.164062 172.203125 297.679688 170.957031 299.140625 C 170.539062 299.628906 170.554688 300.339844 170.585938 300.980469 C 170.789062 304.785156 170.5 308.839844 171.902344 312.425781 C 174.355469 318.671875 177.878906 324.472656 182.296875 329.511719 C 188.589844 336.695312 196.804688 342.539062 200.863281 351.234375 C 203.722656 357.386719 204.167969 364.300781 204.703125 371.082031 C 205.238281 377.726562 205.957031 384.152344 206.847656 390.441406 C 206.9375 390.21875 207.070312 390.039062 207.203125 389.859375 C 208.628906 387.894531 210.597656 386.289062 211.710938 384.105469 C 213.1875 381.164062 213.273438 377.148438 216.039062 375.410156 C 217.023438 374.785156 218.183594 374.5625 219.164062 373.9375 C 222.734375 371.4375 220.773438 365.015625 224.121094 362.203125 C 225.503906 361.042969 227.425781 360.867188 229.027344 360.019531 C 230.539062 359.242188 231.589844 357.917969 232.3125 356.394531 C 232.597656 356.625 232.890625 356.863281 233.089844 357.15625 C 233.359375 357.542969 233.453125 358.023438 233.585938 358.476562 C 234.183594 360.519531 235.777344 362.289062 237.8125 362.917969 C 239.265625 363.375 240.957031 363.191406 242.265625 362.410156 C 243.242188 361.828125 245.503906 359.863281 245.984375 358.949219 C 247.691406 355.714844 241.882812 354.164062 239.730469 353.894531 C 237.753906 353.648438 235.769531 353.460938 233.78125 353.5625 C 233.585938 353.574219 233.386719 353.601562 233.195312 353.625 C 233.371094 352.589844 233.445312 351.539062 233.359375 350.515625 C 233.003906 346.816406 231.308594 343.421875 229.921875 340.035156 C 228.539062 336.601562 227.425781 332.851562 228.226562 329.242188 C 229.253906 324.867188 232.914062 321.476562 233.804688 317.105469 C 234.25 315.011719 234.027344 312.6875 235.191406 310.859375 C 235.816406 309.789062 236.886719 309.03125 238 308.453125 C 245.277344 304.527344 255.632812 308.898438 257.910156 316.839844 C 258.445312 318.757812 258.621094 320.851562 259.601562 322.550781 C 260.855469 324.691406 263.21875 325.984375 264.558594 328.035156 C 267.183594 331.878906 265.8125 337.550781 267.695312 341.578125 C 267.539062 341.6875 267.386719 341.792969 267.234375 341.910156 C 265.683594 343.164062 264.332031 344.632812 263.03125 346.132812 C 261.609375 347.773438 258.328125 352.804688 261.753906 354.066406 C 262.726562 354.425781 265.71875 354.378906 266.835938 354.160156 C 268.335938 353.863281 269.710938 352.878906 270.492188 351.570312 C 271.582031 349.738281 271.582031 347.359375 270.667969 345.441406 C 270.519531 345.132812 270.375 344.820312 270.269531 344.5 C 274.035156 346.816406 279.535156 345.269531 284.15625 346.148438 C 289.527344 347.167969 291.859375 349.28125 297.636719 348.171875 C 301.515625 347.425781 306.03125 345.691406 309.621094 348.277344 C 311.230469 349.4375 312.261719 351.292969 313.960938 352.316406 C 316.15625 353.640625 319.269531 353.140625 320.941406 351.203125 C 323.277344 348.503906 322.414062 344.207031 320.328125 341.308594 C 318.242188 338.417969 315.1875 336.371094 312.808594 333.714844 C 310.953125 331.644531 309.53125 329.191406 308.621094 326.566406 C 307.871094 324.398438 307.46875 322.105469 307.460938 319.800781 C 307.449219 315.886719 308.527344 312.0625 309.4375 308.253906 C 311.195312 300.894531 312.332031 293.386719 312.851562 285.839844 C 313.125 281.769531 313.101562 277.535156 312.242188 273.523438 C 312.496094 273.773438 312.753906 274.085938 313 274.324219 C 319.160156 280.4375 326.210938 285.742188 331.078125 292.921875 C 332.957031 295.6875 334.425781 298.898438 335.277344 302.203125 C 336.613281 307.375 336.347656 312.816406 333.578125 317.371094 C 335.632812 315.761719 337.640625 314.15625 339.695312 312.550781 C 343.664062 314.777344 339.738281 322.808594 343.890625 324.683594 C 345.449219 325.398438 347.28125 324.59375 349.023438 324.5 C 353.933594 324.277344 357.105469 329.542969 358.574219 334.226562 C 362.457031 346.222656 362.769531 359.335938 359.464844 371.519531 C 362.457031 367.234375 366.203125 363.535156 370.53125 360.542969 C 370.308594 366.121094 370.128906 371.652344 369.90625 377.230469 C 370.617188 375.398438 373.566406 376.605469 374.324219 378.433594 C 375.035156 380.261719 374.992188 382.535156 376.558594 383.738281 C 378.875 385.480469 382 383.15625 383.921875 380.976562 C 394.09375 369.292969 403.066406 356.578125 410.652344 343.0625 C 411.171875 344.050781 411.75 345.03125 412.328125 346.011719 Z M 412.328125 346.011719 " fill-opacity="1" fill-rule="nonzero"/></g><path fill="#bbb3b0" d="M 256.695312 377.660156 C 255.625 378.746094 257.296875 380.421875 258.375 379.339844 C 258.992188 378.710938 259.605469 378.089844 260.222656 377.464844 C 260.738281 376.941406 261.222656 376.414062 261.835938 376.0625 C 263.0625 375.351562 264.671875 375.570312 266.113281 375.730469 C 266.746094 375.804688 267.296875 375.140625 267.296875 374.546875 C 267.296875 373.851562 266.75 373.433594 266.113281 373.363281 C 264.972656 373.238281 263.816406 373.183594 262.695312 373.351562 C 262.222656 371.789062 261.753906 370.230469 261.285156 368.667969 C 261.105469 368.074219 260.445312 367.636719 259.824219 367.835938 C 259.226562 368.03125 258.804688 368.65625 259 369.296875 C 259.488281 370.917969 259.972656 372.539062 260.460938 374.160156 C 259.839844 374.550781 259.28125 375.050781 258.761719 375.570312 C 258.070312 376.265625 257.382812 376.964844 256.695312 377.660156 Z M 256.695312 377.660156 " fill-opacity="1" fill-rule="nonzero"/><g clip-path="url(#852fe3e079)"><path fill="#bbb3b0" d="M 279.832031 499.0625 C 279.914062 505.535156 279.988281 512.007812 280.066406 518.480469 C 280.101562 521.566406 280.441406 524.84375 280.050781 527.90625 C 279.867188 529.351562 279.378906 530.882812 278.082031 531.710938 C 276.863281 532.492188 275.207031 532.128906 274.917969 530.578125 C 274.707031 529.460938 273.292969 529.574219 272.75 530.292969 C 269.960938 533.984375 263.953125 533.675781 261.199219 530.171875 C 260.691406 529.519531 259.726562 529.859375 259.335938 530.414062 C 258.136719 532.113281 255.789062 532.671875 254.035156 531.46875 C 251.929688 530.019531 252.394531 527.667969 252.742188 525.507812 C 253.402344 521.375 251.605469 518.125 249.402344 514.761719 C 248.574219 513.484375 246.519531 514.675781 247.355469 515.953125 C 248.992188 518.460938 250.839844 521.148438 250.539062 524.285156 C 250.285156 526.859375 249.453125 529.222656 250.964844 531.601562 C 253.164062 535.054688 257.625 535.226562 260.394531 532.699219 C 263.929688 536.085938 269.757812 536.011719 273.414062 532.90625 C 274.585938 534.351562 276.75 534.894531 278.546875 534.132812 C 281.800781 532.753906 282.507812 529.039062 282.519531 525.878906 C 282.558594 516.941406 282.308594 507.988281 282.203125 499.050781 C 282.183594 497.539062 279.8125 497.535156 279.832031 499.0625 Z M 279.832031 499.0625 " fill-opacity="1" fill-rule="nonzero"/></g><path fill="#bbb3b0" d="M 473.132812 515.753906 C 472.570312 519.59375 471.878906 523.90625 468.117188 525.933594 C 464.71875 527.761719 460.40625 527.003906 457.109375 525.375 C 456.613281 525.128906 456.09375 525.191406 455.671875 525.558594 C 453.808594 527.214844 451.644531 528.453125 449.21875 526.96875 C 448.355469 526.441406 447.996094 525.679688 446.921875 525.417969 C 446.109375 525.21875 445.484375 525.554688 444.707031 525.574219 C 441.507812 525.660156 440.453125 524.054688 440.226562 521.082031 C 439.722656 514.453125 439.191406 508.101562 437.503906 501.628906 C 434.089844 488.527344 428.042969 476.296875 422.039062 464.226562 C 421.359375 462.863281 419.3125 464.0625 419.992188 465.421875 C 425.171875 475.847656 430.425781 486.527344 433.890625 497.707031 C 433.890625 497.710938 433.886719 497.710938 433.886719 497.714844 C 433.613281 505.410156 432.96875 514.808594 426.816406 520.296875 C 423.464844 523.28125 419.941406 523.464844 415.671875 523.082031 C 413.527344 522.886719 411.632812 523.175781 409.535156 523.535156 C 407.457031 523.894531 404.804688 524.09375 403.800781 521.789062 C 403.464844 521.015625 402.460938 521.128906 401.9375 521.546875 C 400.117188 522.996094 397.445312 522.753906 396.136719 520.753906 C 394.828125 518.75 395.886719 516.773438 396.699219 514.832031 C 398.066406 511.5625 398.097656 508.164062 397.910156 504.671875 C 397.832031 503.15625 395.457031 503.144531 395.539062 504.671875 C 395.707031 507.773438 395.761719 510.835938 394.582031 513.769531 C 393.660156 516.058594 392.605469 518.195312 393.484375 520.679688 C 394.851562 524.546875 399.066406 525.671875 402.386719 523.988281 C 404.753906 527.246094 409.566406 525.589844 413.003906 525.359375 C 415.746094 525.175781 418.4375 526 421.183594 525.589844 C 423.238281 525.28125 425.191406 524.445312 426.890625 523.246094 C 432.894531 519.019531 434.980469 511.835938 435.785156 504.714844 C 436.472656 507.707031 437.0625 510.738281 437.40625 513.8125 C 437.875 517.988281 436.464844 527.40625 442.617188 528.25 C 444.5625 528.515625 445.601562 527.3125 447.546875 528.636719 C 448.65625 529.386719 449.234375 530.1875 450.660156 530.351562 C 452.976562 530.617188 455.027344 529.1875 456.738281 527.734375 C 460.460938 529.378906 464.765625 529.996094 468.582031 528.316406 C 473.4375 526.179688 474.714844 521.179688 475.425781 516.375 C 475.640625 514.894531 473.355469 514.253906 473.132812 515.753906 Z M 473.132812 515.753906 " fill-opacity="1" fill-rule="nonzero"/><path fill="#bbb3b0" d="M 290.9375 353.597656 C 284.339844 352.582031 277.527344 354.046875 272.023438 357.847656 C 270.777344 358.710938 271.960938 360.761719 273.21875 359.894531 C 278.171875 356.476562 284.335938 354.960938 290.304688 355.882812 C 290.941406 355.980469 291.570312 355.71875 291.761719 355.058594 C 291.925781 354.492188 291.570312 353.691406 290.9375 353.597656 Z M 290.9375 353.597656 " fill-opacity="1" fill-rule="nonzero"/><path fill="#bbb3b0" d="M 275.773438 361.667969 C 274.277344 361.933594 274.910156 364.214844 276.40625 363.953125 C 282.070312 362.960938 287.972656 364.136719 292.871094 367.121094 C 294.175781 367.917969 295.371094 365.871094 294.066406 365.074219 C 288.597656 361.742188 282.070312 360.5625 275.773438 361.667969 Z M 275.773438 361.667969 " fill-opacity="1" fill-rule="nonzero"/><path fill="#bbb3b0" d="M 241.667969 369.515625 C 236.550781 371.316406 231.894531 374.230469 228.070312 378.066406 C 226.992188 379.152344 228.667969 380.824219 229.746094 379.746094 C 233.285156 376.199219 237.574219 373.460938 242.296875 371.796875 C 243.722656 371.292969 243.113281 369.003906 241.667969 369.515625 Z M 241.667969 369.515625 " fill-opacity="1" fill-rule="nonzero"/><path fill="#bbb3b0" d="M 244.464844 373.414062 C 239.960938 377.929688 236.660156 383.546875 234.894531 389.679688 C 234.472656 391.148438 236.765625 391.773438 237.179688 390.308594 C 238.832031 384.566406 241.917969 379.328125 246.136719 375.09375 C 247.222656 374.011719 245.542969 372.335938 244.464844 373.414062 Z M 244.464844 373.414062 " fill-opacity="1" fill-rule="nonzero"/><path fill="#fff9f5" d="M 224.75 493.617188 C 225.550781 493.617188 226.355469 493.707031 227.160156 493.839844 C 226.355469 493.882812 225.554688 493.839844 224.75 493.617188 Z M 224.75 493.617188 " fill-opacity="1" fill-rule="nonzero"/><path fill="#fff9f5" d="M 307.460938 277.789062 C 307.328125 274.128906 307.042969 264.28125 301.886719 268.640625 C 300.851562 269.523438 293.53125 279.996094 293.953125 280.046875 C 295.925781 280.3125 297.980469 279.863281 299.664062 278.800781 C 297.789062 282.546875 295.90625 286.285156 294.027344 290.023438 C 295.75 290.492188 297.679688 290.140625 299.125 289.09375 C 298.480469 289.648438 297.8125 290.226562 297.476562 291.007812 C 297.136719 291.789062 297.242188 292.835938 297.945312 293.320312 C 298.3125 293.578125 298.792969 293.644531 299.167969 293.890625 C 299.660156 294.210938 299.925781 294.847656 299.816406 295.421875 C 300.917969 295.203125 302.027344 294.980469 303.128906 294.761719 C 301.914062 299.402344 300.972656 304.121094 300.324219 308.875 C 300.125 310.328125 299.984375 311.925781 300.789062 313.148438 C 301.015625 313.492188 301.339844 313.804688 301.738281 313.914062 C 302.964844 314.257812 303.789062 312.699219 304.089844 311.460938 C 306.734375 300.460938 307.871094 289.09375 307.460938 277.789062 Z M 307.460938 277.789062 " fill-opacity="1" fill-rule="nonzero"/><path fill="#fff9f5" d="M 196.042969 329.140625 C 194.324219 327.144531 192.609375 325.144531 190.894531 323.152344 C 193.089844 322.304688 195.730469 320.75 195.351562 318.425781 C 195.121094 316.996094 193.757812 316.023438 192.394531 315.511719 C 191.039062 315.003906 189.554688 314.777344 188.324219 314.015625 C 188.011719 313.820312 187.683594 313.507812 187.757812 313.148438 C 187.835938 312.808594 188.222656 312.65625 188.554688 312.554688 C 189.742188 312.203125 190.921875 311.855469 192.105469 311.5 C 190.746094 309.957031 188.898438 308.855469 186.890625 308.390625 C 189.058594 308.457031 191.238281 307.917969 193.125 306.855469 C 190.128906 305.230469 186.515625 304.78125 183.210938 305.617188 C 182.1875 305.878906 181.167969 306.265625 180.363281 306.953125 C 178.941406 308.164062 178.363281 310.15625 178.492188 312.019531 C 178.617188 313.886719 179.363281 315.648438 180.210938 317.3125 C 183.542969 323.871094 188.539062 329.378906 193.875 334.363281 C 195.261719 335.65625 199.152344 340.75 200.679688 337.648438 C 201.742188 335.484375 197.753906 333.101562 197.222656 331.03125 C 197.039062 330.308594 196.53125 329.710938 196.042969 329.140625 Z M 196.042969 329.140625 " fill-opacity="1" fill-rule="nonzero"/><path fill="#7f746f" d="M 302.898438 261.835938 C 303.210938 261.390625 303.480469 260.898438 303.789062 260.410156 C 303.699219 261.210938 303.609375 262.015625 303.519531 262.816406 C 303.300781 262.511719 303.074219 262.148438 302.898438 261.835938 Z M 302.898438 261.835938 " fill-opacity="1" fill-rule="nonzero"/><path fill="#e2a4a1" d="M 263.390625 361.207031 C 263.636719 361.195312 263.894531 361.1875 264.105469 361.308594 C 264.570312 361.566406 264.566406 362.269531 264.296875 362.730469 C 264.027344 363.1875 263.570312 363.507812 263.242188 363.933594 C 262.441406 364.988281 262.574219 366.449219 262.507812 367.777344 C 262.441406 369.101562 261.886719 370.671875 260.578125 370.921875 C 259.847656 371.058594 259.105469 370.71875 258.519531 370.261719 C 257.9375 369.808594 257.449219 369.230469 256.855469 368.785156 C 256.011719 368.148438 254.960938 367.789062 253.902344 367.78125 C 252.972656 367.777344 251.9375 368 251.191406 367.445312 C 250.265625 366.757812 250.457031 365.199219 251.304688 364.421875 C 252.152344 363.644531 253.390625 363.46875 254.546875 363.472656 C 256.050781 363.480469 257.476562 363.679688 258.839844 363.003906 C 260.414062 362.226562 261.542969 361.335938 263.390625 361.207031 Z M 263.390625 361.207031 " fill-opacity="1" fill-rule="nonzero"/></svg>