<svg xmlns="http://www.w3.org/2000/svg" xmlns:xlink="http://www.w3.org/1999/xlink" width="1024" zoomAndPan="magnify" viewBox="0 0 768 767.999994" height="1024" preserveAspectRatio="xMidYMid meet" version="1.0"><defs><clipPath id="97bfb77ef4"><path d="M 218 226.671875 L 580 226.671875 L 580 513 L 218 513 Z M 218 226.671875 " clip-rule="nonzero"/></clipPath><clipPath id="edca39fcb5"><path d="M 228 474 L 335 474 L 335 541.671875 L 228 541.671875 Z M 228 474 " clip-rule="nonzero"/></clipPath></defs><rect x="-76.8" width="921.6" fill="#ffffff" y="-76.799999" height="921.599993" fill-opacity="1"/><rect x="-76.8" width="921.6" fill="#f4d7bf" y="-76.799999" height="921.599993" fill-opacity="1"/><g clip-path="url(#97bfb77ef4)"><path fill="#ceb19b" d="M 578.65625 400.601562 C 579.945312 397.132812 578.035156 393.152344 575.199219 390.722656 C 572.929688 390.722656 565.90625 385.855469 563.53125 384.667969 C 560.585938 383.273438 555.527344 381.410156 553.828125 378.460938 C 550.109375 372.148438 561.105469 359.628906 564.308594 354.253906 C 564.980469 355.027344 565.703125 355.859375 566.375 356.632812 C 565.859375 344.476562 565.34375 332.371094 564.773438 320.210938 C 565.652344 320.007812 566.683594 320.261719 567.304688 320.886719 C 567.148438 308.007812 558.785156 296.882812 558.628906 284 C 558.472656 270.914062 564.101562 257.097656 569.882812 245.617188 C 570.402344 244.683594 570.8125 243.339844 570.039062 242.617188 C 569.472656 242.046875 568.492188 242.207031 567.664062 242.363281 C 558.113281 244.792969 547.222656 249.445312 540.097656 256.53125 C 536.941406 259.691406 535.964844 263.3125 531.269531 264.808594 C 529.148438 265.480469 526.828125 265.632812 524.605469 265.273438 C 522.285156 264.914062 520.0625 263.929688 518.257812 262.375 C 517.066406 261.339844 515.625 259.945312 514.128906 260.515625 C 513.457031 260.773438 512.992188 261.339844 512.316406 261.652344 C 510.820312 262.378906 508.859375 260.722656 509.269531 259.066406 C 507.671875 259.636719 505.605469 260.101562 504.472656 258.859375 C 504.058594 258.34375 503.796875 257.671875 503.179688 257.464844 C 502.613281 257.203125 502.046875 257.464844 501.480469 257.667969 C 494.097656 260.203125 489.503906 253.945312 488 247.996094 C 486.089844 240.339844 482.890625 233.148438 478.136719 226.839844 C 476.847656 229.324219 473.441406 230.460938 470.910156 229.324219 C 470.082031 228.910156 469.363281 228.339844 468.433594 228.234375 C 467.039062 228.078125 465.851562 229.164062 464.816406 230.148438 C 458.878906 236.148438 452.886719 242.097656 446.953125 248.046875 C 446.277344 247.066406 445.609375 246.082031 444.9375 245.050781 C 446.847656 247.949219 431.152344 265.640625 428.621094 268.222656 C 421.1875 275.933594 409.722656 279.964844 399.195312 277.636719 C 398.367188 279.554688 398.78125 281.878906 400.125 283.484375 C 394.652344 284.003906 390.003906 287.570312 385.203125 290.265625 C 374.71875 296.109375 362.585938 298.074219 350.761719 299.9375 C 351.382812 301.386719 352.003906 302.78125 352.675781 304.230469 C 348.078125 309.402344 341.523438 312.871094 334.65625 313.699219 C 335.796875 315.972656 333.625 318.667969 331.300781 319.648438 C 328.925781 320.632812 326.242188 320.738281 324.070312 322.082031 C 321.898438 323.425781 320.660156 326.890625 322.675781 328.496094 C 314.769531 331.363281 306.5625 334.46875 300.339844 339.976562 C 295.984375 331.660156 290.757812 323.394531 288.394531 315.199219 C 288.652344 316.546875 287.105469 317.683594 285.761719 317.476562 C 284.421875 317.316406 283.335938 316.335938 282.351562 315.355469 C 282.046875 315.09375 281.785156 314.785156 281.476562 314.476562 C 277.191406 310.183594 272.90625 305.730469 267.636719 302.734375 C 262.007812 299.527344 254.882812 298.132812 249.050781 300.976562 C 250.652344 302.164062 252.203125 303.355469 253.800781 304.542969 C 250.242188 304.234375 246.675781 304.128906 243.0625 304.234375 C 222.292969 310.738281 209.886719 328.355469 226.488281 343.550781 C 226.695312 343.550781 226.847656 343.496094 227.058594 343.449219 C 230.105469 344.6875 233.097656 345.882812 236.144531 347.121094 C 236.714844 347.324219 237.28125 347.585938 237.898438 347.792969 C 241.414062 349.1875 244.921875 350.636719 248.429688 352.035156 C 248.273438 353.171875 247.191406 354.105469 246.054688 354.152344 C 251.480469 357.3125 255.609375 362.585938 257.3125 368.636719 C 256.640625 368.945312 256.019531 369.308594 255.347656 369.621094 C 257.449219 373.320312 261.140625 378.917969 265.457031 383.28125 C 258.714844 392.023438 251.960938 400.75 245.230469 409.503906 C 247.398438 409.039062 249.566406 408.574219 251.683594 408.105469 C 244.871094 417.46875 239.910156 428.230469 237.226562 439.507812 C 238.570312 438.730469 239.964844 437.957031 241.304688 437.179688 C 238.257812 438.9375 237.84375 459.117188 237.484375 462.835938 C 236.554688 471.835938 236.039062 480.886719 235.984375 489.890625 C 235.984375 493.921875 235.675781 498.164062 235.109375 502.457031 C 243.003906 518.265625 266.320312 512.195312 279.253906 500.859375 C 280.496094 499.355469 281.988281 498.011719 283.433594 496.714844 C 286.171875 494.285156 289.011719 491.90625 291.640625 489.371094 C 292.570312 488.492188 293.242188 487.40625 294.121094 486.527344 C 294.324219 486.320312 294.792969 486.0625 295.308594 485.75 C 295.566406 485.59375 295.824219 485.441406 296.078125 485.285156 C 296.648438 484.925781 297.164062 484.613281 297.21875 484.355469 C 297.011719 485.128906 296.804688 485.902344 296.597656 486.628906 C 298.109375 503.125 318.234375 502.273438 334.695312 490.617188 C 336.507812 489.429688 338.363281 488.339844 340.21875 487.199219 C 342.285156 485.960938 344.347656 484.714844 346.363281 483.476562 C 359.015625 475.820312 371.816406 468.476562 384.980469 461.75 C 387.992188 447.652344 417.789062 430.84375 455.820312 434.695312 C 465.679688 433.296875 476.417969 434.125 485.816406 436.867188 C 495.625 439.710938 504.191406 445.453125 513.589844 449.28125 C 516.015625 450.320312 518.804688 451.144531 521.128906 450.007812 C 524.074219 448.507812 525.054688 444.476562 528.046875 443.230469 C 528.921875 442.816406 529.902344 442.714844 530.730469 442.300781 C 532.019531 441.574219 532.847656 440.078125 532.640625 438.628906 C 532.539062 437.695312 532.070312 436.765625 532.539062 435.9375 C 532.847656 435.421875 533.417969 435.164062 533.933594 434.851562 C 535.640625 433.664062 536.152344 431.285156 535.742188 429.316406 C 535.277344 427.300781 534.039062 425.539062 532.796875 423.941406 C 530.421875 420.9375 527.839844 418.144531 525.105469 415.558594 C 533.984375 414.472656 543.847656 413.023438 552.726562 414.421875 C 554.015625 414.628906 555.257812 414.988281 556.550781 415.246094 C 560.476562 416.175781 564.449219 416.695312 568.476562 416.695312 C 569.976562 416.746094 571.679688 416.589844 572.660156 415.402344 C 573.746094 414.058594 573.328125 411.882812 574.414062 410.492188 C 575.082031 409.664062 576.167969 409.246094 576.683594 408.316406 C 577.351562 407.175781 576.890625 405.777344 577.046875 404.488281 C 577.261719 403.085938 578.140625 401.949219 578.65625 400.601562 Z M 578.65625 400.601562 " fill-opacity="1" fill-rule="nonzero"/></g><path fill="#fff5ee" d="M 555.898438 325.339844 C 554.863281 324.832031 553.621094 324.777344 552.671875 324.117188 C 551.542969 323.339844 551.085938 321.914062 550.226562 320.847656 C 549.164062 319.527344 547.539062 318.820312 546.160156 317.828125 C 543.972656 316.253906 542.320312 313.894531 539.839844 312.828125 C 537.066406 311.640625 531.878906 312.921875 529.707031 310.683594 C 527.859375 308.777344 528.574219 304.421875 528.605469 302.050781 C 528.679688 296.671875 527.117188 291.28125 524.175781 286.78125 C 523.6875 286.027344 523.140625 285.277344 522.382812 284.796875 C 521.433594 284.1875 519.964844 283.558594 520.304688 282.480469 C 519.167969 283.980469 517.796875 285.300781 516.257812 286.378906 C 513.285156 288.453125 512.972656 296.777344 512.550781 299.972656 C 512.113281 303.308594 511.261719 308.792969 506.667969 308.402344 C 505.328125 308.289062 504.023438 307.738281 502.683594 307.84375 C 499.867188 308.0625 497.816406 311.066406 494.992188 311.152344 C 493.714844 311.191406 492.5 310.613281 491.230469 310.441406 C 488.855469 310.109375 486.535156 311.210938 484.386719 312.277344 C 481.960938 313.480469 479.488281 314.722656 477.558594 316.625 C 475.363281 318.796875 474.035156 321.671875 472.753906 324.484375 C 473.660156 324.222656 474.1875 325.566406 473.972656 326.488281 C 473.761719 327.410156 473.292969 328.464844 473.851562 329.230469 C 474.496094 330.117188 475.941406 329.800781 476.84375 330.421875 C 477.5 330.875 477.738281 331.714844 477.980469 332.476562 C 479 335.652344 480.980469 338.511719 483.597656 340.574219 C 484.445312 341.238281 485.351562 341.828125 486.15625 342.546875 C 488.554688 344.710938 489.765625 347.867188 491.65625 350.484375 C 494.625 354.605469 499.160156 357.257812 503.554688 359.796875 C 505.253906 360.773438 507.390625 361.757812 509.054688 360.730469 C 510.152344 360.050781 511.0625 358.546875 512.289062 358.941406 C 512.984375 359.167969 513.328125 359.9375 513.808594 360.492188 C 515.210938 362.121094 517.757812 361.910156 519.859375 361.449219 C 521.960938 360.988281 524.371094 360.46875 526.085938 361.761719 C 526.542969 362.109375 526.953125 362.578125 527.511719 362.703125 C 528.125 362.832031 528.722656 362.5 529.257812 362.179688 C 537.167969 357.433594 544.609375 351.890625 551.421875 345.664062 C 552.253906 344.902344 553.082031 344.125 553.910156 343.351562 C 554.25 343.03125 554.597656 342.710938 554.910156 342.363281 C 556.855469 340.222656 557.625 337.28125 558.203125 334.441406 C 558.539062 332.785156 558.832031 331.085938 558.566406 329.414062 C 558.320312 327.742188 557.414062 326.089844 555.898438 325.339844 Z M 555.898438 325.339844 " fill-opacity="1" fill-rule="nonzero"/><path fill="#fff5ee" d="M 474.511719 259.953125 C 475.082031 258.847656 475.65625 257.742188 476.222656 256.636719 C 476.917969 257.394531 477.261719 258.402344 477.835938 259.253906 C 478.40625 260.101562 479.398438 260.839844 480.386719 260.578125 C 481.824219 260.203125 482.015625 258.261719 481.855469 256.78125 C 481.09375 249.882812 479.34375 243.179688 475.554688 237.335938 C 475.011719 236.496094 474.34375 235.628906 473.375 235.390625 C 471.953125 235.046875 470.644531 236.195312 469.648438 237.273438 C 459.816406 247.941406 451.902344 261.617188 448.261719 275.738281 C 449.113281 275.792969 449.964844 275.484375 450.691406 276.113281 C 451.59375 276.890625 450.96875 278.304688 451.855469 279.027344 C 452.605469 279.644531 453.699219 278.949219 454.378906 278.257812 C 456.589844 276 458.488281 273.4375 460.003906 270.660156 C 459.710938 271.53125 459.574219 272.453125 459.605469 273.371094 C 460.757812 272.09375 461.335938 270.421875 462.105469 268.882812 C 462.875 267.347656 463.992188 265.816406 465.636719 265.335938 C 465.792969 265.988281 465.949219 266.644531 466.105469 267.300781 C 466.15625 267.511719 466.21875 267.742188 466.382812 267.875 C 466.734375 268.15625 467.246094 267.871094 467.582031 267.566406 C 469.898438 265.503906 471.542969 262.703125 472.222656 259.679688 C 472.347656 259.144531 472.660156 258.445312 473.1875 258.578125 C 473.851562 258.738281 473.84375 260.011719 474.511719 259.953125 Z M 474.511719 259.953125 " fill-opacity="1" fill-rule="nonzero"/><path fill="#fff5ee" d="M 564.234375 247.613281 C 562.4375 248.496094 560.933594 250.21875 559.585938 251.652344 C 558.710938 252.574219 557.878906 253.53125 557.082031 254.519531 C 556.644531 255.0625 555.617188 257.078125 555.007812 257.289062 C 555.589844 257.089844 556.171875 256.886719 556.753906 256.683594 C 555.933594 257.832031 555.105469 258.976562 554.285156 260.121094 C 554.976562 260.144531 555.664062 260.164062 556.355469 260.1875 C 554.878906 263.835938 553.402344 267.488281 551.925781 271.136719 C 551.691406 271.710938 551.484375 272.453125 551.925781 272.886719 C 552.511719 272.253906 553.339844 271.84375 554.199219 271.773438 C 553.660156 273.992188 553.949219 276.398438 554.996094 278.429688 C 556.210938 277.28125 556.714844 275.582031 557.058594 273.941406 C 558.402344 267.445312 558.035156 260.269531 561.769531 254.792969 C 562.480469 253.753906 568.832031 245.363281 564.234375 247.613281 Z M 564.234375 247.613281 " fill-opacity="1" fill-rule="nonzero"/><path fill="#fff5ee" d="M 268.304688 506.859375 C 268.101562 506.1875 267.21875 505.875 266.5 505.980469 C 265.777344 506.082031 265.105469 506.445312 264.378906 506.546875 C 263.089844 506.808594 261.75 506.289062 260.457031 506.082031 C 257.410156 505.511719 254.316406 506.390625 251.324219 507.269531 C 249.464844 507.789062 247.65625 508.359375 245.800781 508.875 C 244.871094 509.132812 243.886719 509.394531 243.011719 509.082031 C 242.496094 508.875 242.082031 508.5625 241.667969 508.203125 C 239.96875 506.753906 238.3125 505.253906 236.609375 503.804688 C 236.09375 503.335938 235.628906 502.925781 235.113281 502.457031 C 234.027344 511.566406 232.015625 521.03125 229.949219 529.359375 C 229.328125 531.792969 230.105469 534.480469 231.292969 536.703125 C 232.429688 538.925781 234.910156 540.691406 237.382812 540.222656 C 238.3125 540.066406 239.191406 539.652344 240.121094 539.496094 C 241.769531 539.1875 243.421875 539.859375 245.074219 540.324219 C 246.726562 540.738281 248.640625 540.890625 249.875 539.753906 C 250.960938 538.769531 251.527344 536.910156 252.972656 536.804688 C 253.386719 536.804688 253.796875 536.910156 254.210938 537.007812 C 257.46875 537.789062 260.976562 536.128906 263.246094 533.648438 C 265.519531 531.113281 266.808594 527.90625 268.046875 524.804688 C 269.75 520.5625 271.453125 516.371094 273.15625 512.128906 C 274.703125 508.355469 276.253906 504.472656 278.785156 501.320312 C 278.886719 501.164062 279.042969 501.003906 279.25 500.851562 C 278.371094 500.644531 276.617188 502.199219 275.6875 502.714844 C 273.210938 504.113281 270.785156 505.511719 268.304688 506.859375 Z M 268.304688 506.859375 " fill-opacity="1" fill-rule="nonzero"/><path fill="#fff5ee" d="M 319.628906 494.957031 C 319.007812 494.703125 318.542969 493.976562 318.855469 493.410156 C 317.976562 493.875 317.050781 494.390625 316.015625 494.390625 C 314.980469 494.339844 313.894531 493.664062 313.84375 492.632812 C 311.671875 493.046875 309.558594 493.410156 307.390625 493.824219 C 307.390625 493.304688 307.445312 492.785156 307.445312 492.269531 C 304.65625 493.457031 300.9375 491.441406 300.421875 488.441406 C 299.957031 489.527344 299.179688 490.511719 298.203125 491.179688 C 297.6875 489.679688 297.117188 488.128906 296.601562 486.628906 C 293.863281 496.097656 291.4375 505.253906 290.765625 515.238281 C 290.609375 517.773438 291.125 521.082031 293.65625 521.492188 C 295.621094 521.800781 297.425781 519.839844 299.386719 520.148438 C 300.992188 520.355469 302.378906 521.960938 303.878906 521.492188 C 305.480469 520.925781 306.304688 518.289062 307.855469 518.855469 C 308.269531 519.015625 308.582031 519.375 308.992188 519.636719 C 309.976562 520.203125 311.316406 519.636719 311.984375 518.703125 C 312.660156 517.773438 312.863281 516.585938 313.125 515.5 C 314.671875 508.929688 318.804688 503.238281 323.757812 498.6875 C 327.113281 495.632812 330.832031 493.046875 334.707031 490.617188 C 330.417969 492.269531 326.085938 493.824219 321.539062 494.910156 C 320.917969 495.0625 320.246094 495.167969 319.628906 494.957031 Z M 319.628906 494.957031 " fill-opacity="1" fill-rule="nonzero"/><path fill="#fff5ee" d="M 425.109375 416.015625 C 423.148438 415.136719 420.566406 415.136719 418.964844 416.585938 C 418.238281 417.207031 417.621094 418.191406 416.640625 418.238281 C 415.816406 418.292969 415.144531 417.570312 414.476562 417 C 412.046875 414.722656 408.742188 413.792969 405.542969 412.914062 C 403.835938 412.5 402.085938 412.035156 400.378906 411.570312 C 396.453125 410.484375 392.375 409.394531 388.300781 409.65625 C 385.765625 409.8125 383.292969 410.484375 380.863281 411.15625 C 365.121094 415.707031 349.9375 422.277344 335.84375 430.65625 C 337.183594 431.589844 338.527344 432.519531 339.921875 433.449219 C 332.742188 436.8125 325.980469 441.003906 319.785156 445.867188 C 320.660156 447.007812 321.957031 447.835938 323.402344 448.089844 C 320.097656 450.214844 316.6875 452.386719 314.160156 455.386719 C 311.628906 458.4375 309.980469 462.476562 310.804688 466.304688 C 312.921875 465.476562 315.039062 464.59375 317.210938 463.714844 C 317.878906 465.425781 318.085938 467.386719 317.777344 469.195312 C 327.535156 469.765625 338.066406 474.835938 346.585938 469.972656 C 347.3125 469.609375 348.082031 469.09375 348.855469 469.25 C 349.683594 469.402344 350.199219 470.59375 349.53125 471.007812 C 356.035156 469.195312 362.074219 465.734375 366.929688 461.027344 C 367.238281 462.785156 369.253906 463.664062 371.007812 463.5625 C 372.8125 463.40625 374.417969 462.578125 376.117188 462.0625 C 378.957031 461.285156 381.953125 461.597656 385 461.753906 C 403.84375 452.027344 423.359375 443.597656 443.703125 437.542969 C 447.113281 436.507812 450.515625 435.578125 453.976562 434.957031 C 454.597656 434.851562 455.214844 434.75 455.835938 434.699219 C 446.4375 431.4375 437.765625 426.628906 430.328125 419.953125 C 428.722656 418.5 427.121094 416.898438 425.109375 416.015625 Z M 425.109375 416.015625 " fill-opacity="1" fill-rule="nonzero"/><path fill="#fff5ee" d="M 224.835938 323.679688 C 226.902344 320.578125 229.273438 317.160156 232.941406 316.335938 C 232.117188 315.507812 231.292969 314.785156 230.617188 313.902344 C 233.769531 311.417969 241.820312 308.78125 243.0625 304.226562 C 235.886719 304.488281 228.765625 305.675781 221.894531 307.746094 C 220.035156 308.316406 218.125 308.984375 216.785156 310.433594 C 215.492188 311.882812 215.082031 314.367188 216.421875 315.765625 C 211.929688 317.886719 207.4375 320.058594 202.894531 322.183594 C 202.328125 325.179688 199.695312 327.25 197.578125 329.425781 C 193.085938 333.925781 190.089844 339.929688 189.003906 346.1875 C 188.382812 350.015625 187.09375 357.050781 192.722656 356.222656 C 197.9375 355.496094 203.101562 350.375 208.105469 348.566406 C 214.042969 346.34375 220.34375 345.203125 226.484375 343.550781 C 226.019531 342.308594 227.519531 340.652344 226.792969 339.515625 C 226.171875 338.480469 224.519531 338.789062 223.644531 337.96875 C 221.785156 336.3125 225.351562 333.3125 224.46875 330.984375 C 224.058594 329.949219 222.816406 329.332031 222.609375 328.242188 C 222.453125 327.417969 222.917969 326.589844 223.4375 325.863281 C 223.90625 325.128906 224.371094 324.40625 224.835938 323.679688 Z M 224.835938 323.679688 " fill-opacity="1" fill-rule="nonzero"/><path fill="#e2a4a1" d="M 513.167969 328.777344 C 513.292969 328.496094 513.4375 328.207031 513.664062 327.996094 C 514.03125 327.65625 514.578125 327.574219 515.070312 327.664062 C 515.5625 327.761719 516.003906 328.011719 516.425781 328.28125 C 518.257812 329.460938 519.875 331.171875 520.347656 333.296875 C 520.492188 333.964844 520.515625 334.699219 520.160156 335.28125 C 519.734375 335.972656 518.886719 336.269531 518.085938 336.390625 C 516.890625 336.574219 515.664062 336.492188 514.46875 336.332031 C 513.667969 336.222656 512.839844 336.066406 512.207031 335.566406 C 511.066406 334.660156 511.636719 333.8125 511.945312 332.746094 C 512.335938 331.398438 512.582031 330.074219 513.167969 328.777344 Z M 513.167969 328.777344 " fill-opacity="1" fill-rule="nonzero"/><path fill="#fff5ee" d="M 296.082031 485.285156 C 295.828125 485.441406 295.566406 485.59375 295.3125 485.75 C 295.46875 485.390625 295.671875 485.023438 295.878906 484.664062 C 295.925781 484.871094 296.03125 485.078125 296.082031 485.285156 Z M 296.082031 485.285156 " fill-opacity="1" fill-rule="nonzero"/><path fill="#86776f" d="M 537.847656 307.011719 C 537.71875 306.792969 537.476562 306.679688 537.242188 306.585938 C 535.230469 305.734375 532.765625 304.851562 530.546875 305.210938 C 528.515625 305.535156 526.621094 306.800781 525.605469 308.609375 C 525.464844 308.855469 525.339844 309.121094 525.332031 309.402344 C 525.324219 309.6875 525.453125 309.992188 525.714844 310.109375 C 526.011719 310.242188 526.414062 310.109375 526.660156 310.328125 C 526.777344 310.429688 526.828125 310.589844 526.882812 310.734375 C 527.265625 311.769531 528.160156 312.597656 529.21875 312.898438 C 530.203125 313.171875 532.359375 313.058594 533.226562 312.359375 C 534.476562 311.351562 534.625 309.359375 536.152344 308.632812 C 536.558594 308.441406 537.019531 308.378906 537.40625 308.148438 C 537.792969 307.914062 538.078125 307.398438 537.847656 307.011719 Z M 537.847656 307.011719 " fill-opacity="1" fill-rule="nonzero"/><path fill="#86776f" d="M 509.457031 301.453125 C 507.492188 300.355469 504.878906 300.328125 502.695312 300.433594 C 502.441406 300.445312 502.171875 300.464844 501.984375 300.625 C 501.636719 300.90625 501.730469 301.484375 502.011719 301.835938 C 502.289062 302.191406 502.703125 302.40625 503.015625 302.730469 C 504.203125 303.9375 503.660156 305.863281 504.484375 307.242188 C 505.058594 308.199219 507.035156 309.050781 508.058594 309.128906 C 509.15625 309.21875 510.28125 308.746094 510.992188 307.90625 C 511.09375 307.789062 511.195312 307.65625 511.34375 307.597656 C 511.648438 307.480469 511.980469 307.746094 512.308594 307.71875 C 512.589844 307.699219 512.820312 307.460938 512.90625 307.1875 C 512.996094 306.917969 512.96875 306.628906 512.921875 306.34375 C 512.59375 304.304688 511.253906 302.464844 509.457031 301.453125 Z M 509.457031 301.453125 " fill-opacity="1" fill-rule="nonzero"/><path fill="#9b8c89" d="M 578.765625 392.675781 C 573.316406 385.085938 562.765625 383.054688 555.152344 378.460938 C 553.953125 377.734375 552.859375 379.617188 554.054688 380.339844 C 560.09375 383.980469 567.089844 385.878906 572.832031 390.019531 C 574.484375 391.207031 576.335938 392.695312 577.367188 394.488281 C 578.78125 396.957031 577.414062 398.117188 576.613281 400.222656 C 576.085938 401.617188 576.535156 402.691406 576.660156 404.113281 C 576.882812 406.761719 575.382812 408.828125 572.742188 409.371094 C 572.207031 409.480469 571.777344 410.191406 571.980469 410.714844 C 573.011719 413.34375 571.078125 415.457031 568.539062 416.011719 C 566.320312 416.5 564.035156 415.84375 561.898438 415.304688 C 558.003906 414.324219 553.976562 413.371094 549.949219 413.226562 C 545.875 413.085938 541.742188 413.332031 537.660156 413.335938 C 533.371094 413.34375 529.085938 413.476562 524.828125 414.011719 C 524.820312 414.011719 524.820312 414.019531 524.808594 414.019531 C 517.644531 406.789062 509.519531 400.566406 500.640625 395.5625 C 499.421875 394.875 498.328125 396.753906 499.546875 397.441406 C 506.816406 401.542969 513.605469 406.386719 519.75 412.046875 C 522.613281 414.679688 525.328125 417.472656 527.886719 420.40625 C 529.382812 422.128906 530.835938 423.890625 532.21875 425.714844 C 532.710938 426.363281 533.226562 427.007812 533.667969 427.695312 C 534.101562 428.277344 534.453125 428.90625 534.71875 429.585938 C 535.898438 431.433594 535.042969 433.058594 532.152344 434.46875 C 531.300781 434.101562 529.917969 434.976562 530.667969 435.957031 C 532.792969 438.726562 531.234375 441.074219 528.460938 442.148438 C 527.542969 442.503906 526.558594 442.542969 525.722656 443.136719 C 522.769531 445.214844 523.933594 449.390625 519.046875 449.539062 C 515.773438 449.640625 511.574219 446.183594 508.664062 444.71875 C 505.734375 443.246094 502.742188 441.898438 499.699219 440.675781 C 486.902344 435.539062 473.265625 432.855469 459.496094 432.523438 C 458.097656 432.492188 458.101562 434.667969 459.496094 434.699219 C 478.476562 435.15625 496.390625 440.402344 512.984375 449.519531 C 515.5625 450.933594 518.519531 452.398438 521.523438 451.398438 C 524.507812 450.402344 524.46875 447.839844 526.207031 445.722656 C 528.277344 443.214844 531.753906 444.421875 533.277344 440.976562 C 533.910156 439.550781 533.933594 438.066406 533.472656 436.695312 C 535.53125 436.445312 537.25 434.789062 537.515625 432.421875 C 538.042969 427.703125 532.625 422.59375 529.84375 419.363281 C 528.839844 418.195312 527.738281 417.128906 526.6875 416.011719 C 531.53125 415.539062 536.398438 415.507812 541.273438 415.523438 C 546.945312 415.546875 552.265625 415.359375 557.859375 416.570312 C 561.976562 417.457031 566.535156 419.421875 570.679688 417.597656 C 573.246094 416.464844 574.855469 413.863281 574.355469 411.164062 C 577.101562 410.144531 579.101562 407.480469 578.90625 404.433594 C 578.808594 402.851562 578.535156 401.542969 579.234375 399.988281 C 579.589844 399.195312 580.074219 398.601562 580.238281 397.71875 C 580.570312 395.902344 579.792969 394.109375 578.765625 392.675781 Z M 578.765625 392.675781 " fill-opacity="1" fill-rule="nonzero"/><g clip-path="url(#edca39fcb5)"><path fill="#9b8c89" d="M 332.882812 491.53125 C 327.136719 494.410156 322.15625 498.625 318.28125 503.761719 C 316.324219 506.351562 314.6875 509.175781 313.402344 512.160156 C 312.777344 513.613281 312.355469 515.171875 311.675781 516.601562 C 311.226562 517.554688 309.324219 519.828125 308.230469 518.191406 C 307.921875 517.726562 307.433594 517.632812 307.007812 517.753906 C 306.558594 517.542969 306 517.578125 305.707031 518.15625 C 304.472656 520.558594 302.171875 520.421875 300.152344 519.234375 C 298.695312 518.375 297.453125 518.414062 296.082031 519.410156 C 294.960938 520.226562 293.679688 521.441406 292.515625 519.75 C 291.761719 518.652344 291.953125 517.058594 292.058594 515.816406 C 292.242188 513.578125 292.464844 511.34375 292.707031 509.113281 C 293.65625 500.21875 295.222656 490.964844 300.5 483.523438 C 304.15625 480.96875 307.953125 478.546875 311.820312 476.175781 C 313.011719 475.449219 311.921875 473.566406 310.726562 474.296875 C 298.71875 481.65625 286.914062 489.300781 278.5 500.863281 C 274.632812 506.179688 271.546875 512.046875 269.332031 518.242188 C 268.132812 521.597656 267.46875 525.152344 266.140625 528.457031 C 264.359375 532.882812 259.625 537.84375 254.644531 534.320312 C 254.015625 533.875 253.285156 534.382812 253.046875 534.96875 C 251.910156 537.851562 248.949219 539.535156 245.898438 539.203125 C 244.414062 539.035156 243.351562 537.988281 241.960938 537.90625 C 239.90625 537.777344 237.878906 539.519531 235.59375 539.199219 C 230.320312 538.457031 230.96875 533.191406 231.539062 529.320312 C 233.199219 518.074219 235.105469 506.859375 236.882812 495.628906 C 237.101562 494.261719 235.007812 493.671875 234.792969 495.050781 C 233.382812 503.929688 231.972656 512.808594 230.5625 521.691406 C 229.757812 526.742188 226.613281 535.785156 231.417969 539.816406 C 233.21875 541.328125 235.546875 541.542969 237.8125 541.25 C 239.007812 541.09375 240.296875 540.414062 241.464844 540.371094 C 242.707031 540.324219 243.769531 541.074219 244.988281 541.296875 C 248.917969 542.035156 252.65625 540.078125 254.542969 536.742188 C 258.539062 538.78125 263.300781 536.878906 265.949219 533.332031 C 268.140625 530.390625 268.996094 526.75 270 523.28125 C 271.214844 519.070312 272.777344 514.988281 274.769531 511.085938 C 279.953125 500.945312 287.457031 493.316406 296.054688 486.757812 C 291.808594 495.164062 290.886719 505.03125 290.023438 514.296875 C 289.800781 516.695312 289.351562 519.5625 291.148438 521.503906 C 292.640625 523.117188 294.734375 523.277344 296.441406 521.941406 C 296.804688 521.660156 297.375 520.976562 297.808594 520.839844 C 298.671875 520.566406 299.253906 521.316406 299.953125 521.691406 C 300.839844 522.164062 301.8125 522.390625 302.820312 522.339844 C 304.527344 522.25 306.039062 521.371094 307.039062 520.035156 C 309 521.71875 312.003906 520.40625 313.269531 518.25 C 314.210938 516.652344 314.628906 514.757812 315.363281 513.066406 C 316.085938 511.386719 316.933594 509.765625 317.882812 508.207031 C 321.742188 501.863281 327.359375 496.726562 333.984375 493.402344 C 335.230469 492.78125 334.128906 490.902344 332.882812 491.53125 Z M 332.882812 491.53125 " fill-opacity="1" fill-rule="nonzero"/></g><path fill="#9b8c89" d="M 512.074219 327.621094 C 511.644531 329.332031 511.191406 331.035156 510.816406 332.757812 C 510.621094 333.652344 510.554688 334.621094 511.085938 335.417969 C 511.570312 336.15625 512.382812 336.535156 513.199219 336.78125 C 515 337.324219 517.023438 337.78125 518.875 337.226562 C 520.46875 336.75 521.746094 335.597656 522.625 334.210938 C 523.480469 332.882812 523.914062 331.355469 524.230469 329.8125 C 524.300781 329.867188 524.375 329.914062 524.449219 329.964844 C 525.601562 330.765625 526.6875 328.878906 525.542969 328.085938 C 524.429688 327.3125 523.308594 326.539062 522.195312 325.757812 C 521.523438 325.292969 520.890625 324.898438 520.191406 324.671875 C 520.195312 324.664062 520.207031 324.65625 520.207031 324.648438 C 520.796875 322.488281 521.0625 320.230469 520.988281 317.988281 C 520.972656 317.421875 520.503906 316.875 519.902344 316.902344 C 519.335938 316.925781 518.800781 317.378906 518.816406 317.988281 C 518.890625 320.144531 518.675781 322.019531 518.113281 324.070312 C 518.066406 324.25 518.136719 324.433594 518.183594 324.609375 C 516.085938 325.046875 513.859375 326.386719 511.777344 325.269531 C 510.546875 324.609375 509.445312 326.488281 510.683594 327.152344 C 511.140625 327.394531 511.605469 327.511719 512.074219 327.621094 Z M 519.4375 326.652344 C 520.007812 326.746094 520.527344 327.242188 520.988281 327.558594 C 521.417969 327.859375 521.847656 328.15625 522.277344 328.457031 C 521.695312 331.546875 520.582031 335.433594 516.796875 335.292969 C 515.824219 335.253906 514.867188 334.992188 513.9375 334.726562 C 513.285156 334.542969 512.761719 334.40625 512.847656 333.640625 C 512.957031 332.691406 513.304688 331.710938 513.535156 330.773438 C 513.777344 329.777344 514.023438 328.78125 514.265625 327.78125 C 515.460938 327.664062 516.664062 327.304688 517.839844 326.941406 C 518.332031 326.792969 518.910156 326.5625 519.4375 326.652344 Z M 519.4375 326.652344 " fill-opacity="1" fill-rule="nonzero"/><path fill="#9b8c89" d="M 490.996094 313.53125 C 496.5 311.992188 502.441406 312.796875 507.339844 315.738281 C 508.542969 316.460938 509.632812 314.582031 508.433594 313.859375 C 503.050781 310.625 496.460938 309.742188 490.417969 311.4375 C 489.074219 311.808594 489.644531 313.910156 490.996094 313.53125 Z M 490.996094 313.53125 " fill-opacity="1" fill-rule="nonzero"/><path fill="#9b8c89" d="M 495.152344 321.28125 C 494.621094 321.539062 494.484375 322.292969 494.761719 322.769531 C 495.078125 323.3125 495.714844 323.414062 496.246094 323.160156 C 499.777344 321.464844 503.554688 320.335938 507.429688 319.769531 C 508.011719 319.679688 508.332031 318.945312 508.1875 318.425781 C 508.015625 317.800781 507.4375 317.582031 506.851562 317.671875 C 502.785156 318.261719 498.855469 319.496094 495.152344 321.28125 Z M 495.152344 321.28125 " fill-opacity="1" fill-rule="nonzero"/><path fill="#9b8c89" d="M 530.964844 320.765625 C 536.097656 319.609375 541.527344 320.488281 546.058594 323.15625 C 547.265625 323.871094 548.359375 321.988281 547.152344 321.277344 C 542.113281 318.308594 536.082031 317.382812 530.386719 318.667969 C 529.023438 318.976562 529.601562 321.074219 530.964844 320.765625 Z M 530.964844 320.765625 " fill-opacity="1" fill-rule="nonzero"/><path fill="#9b8c89" d="M 530.011719 323.480469 C 529.863281 324.019531 530.195312 324.691406 530.773438 324.820312 C 534.132812 325.53125 537.261719 327.101562 539.804688 329.421875 C 540.238281 329.816406 540.910156 329.851562 541.34375 329.421875 C 541.742188 329.023438 541.78125 328.28125 541.34375 327.882812 C 538.53125 325.320312 535.074219 323.507812 531.355469 322.71875 C 530.773438 322.601562 530.171875 322.890625 530.011719 323.480469 Z M 530.011719 323.480469 " fill-opacity="1" fill-rule="nonzero"/><path fill="#e2a4a1" d="M 514.632812 313.257812 C 513.859375 313.742188 513.445312 314.851562 513.9375 315.617188 C 514.316406 316.203125 515.058594 316.421875 515.683594 316.726562 C 516.882812 317.3125 517.824219 318.40625 518.234375 319.675781 C 518.328125 319.949219 518.398438 320.246094 518.59375 320.457031 C 518.96875 320.863281 519.65625 320.789062 520.125 320.496094 C 520.59375 320.195312 520.925781 319.730469 521.335938 319.359375 C 522.363281 318.433594 523.816406 318.125 524.902344 317.265625 C 525.273438 316.96875 525.617188 316.574219 525.664062 316.09375 C 525.703125 315.695312 525.53125 315.300781 525.285156 314.984375 C 523.914062 313.257812 521.898438 314.667969 520.128906 314.214844 C 518.359375 313.761719 516.511719 312.089844 514.632812 313.257812 Z M 514.632812 313.257812 " fill-opacity="1" fill-rule="nonzero"/></svg>