<svg xmlns="http://www.w3.org/2000/svg" xmlns:xlink="http://www.w3.org/1999/xlink" width="1024" zoomAndPan="magnify" viewBox="0 0 768 767.999994" height="1024" preserveAspectRatio="xMidYMid meet" version="1.0"><defs><clipPath id="eab2a959d0"><path d="M 369 154.207031 L 534 154.207031 L 534 563 L 369 563 Z M 369 154.207031 " clip-rule="nonzero"/></clipPath><clipPath id="89b23e38ec"><path d="M 403 514 L 446 514 L 446 613.957031 L 403 613.957031 Z M 403 514 " clip-rule="nonzero"/></clipPath></defs><rect x="-76.8" width="921.6" fill="#ffffff" y="-76.799999" height="921.599993" fill-opacity="1"/><rect x="-76.8" width="921.6" fill="#f1eaea" y="-76.799999" height="921.599993" fill-opacity="1"/><path fill="#c9c3c0" d="M 382.117188 479.355469 C 380.636719 485.105469 374.835938 487.898438 369.25 486.972656 C 364.546875 486.148438 361.203125 482.261719 356.933594 480.230469 C 347.519531 475.792969 338.488281 470.539062 329.292969 465.605469 C 326.613281 464.179688 323.488281 462.644531 320.207031 461.332031 C 317.6875 460.292969 315.058594 459.417969 312.546875 458.761719 C 310.464844 458.265625 308.441406 457.886719 306.472656 457.773438 C 305.761719 457.71875 305.046875 457.71875 304.335938 457.71875 C 305.378906 456.234375 304.230469 454.046875 302.640625 453.113281 C 301 452.238281 299.140625 452.019531 297.441406 451.25 C 295.960938 450.539062 294.761719 449.386719 293.28125 448.617188 C 293.0625 448.511719 292.789062 448.398438 292.570312 448.34375 C 289.613281 447.195312 286.222656 447.6875 282.992188 447.414062 C 281.949219 447.355469 280.964844 447.195312 279.980469 446.917969 C 279.324219 446.75 278.667969 446.425781 278.222656 445.875 C 277.949219 445.4375 277.84375 444.886719 277.625 444.394531 C 276.363281 441.492188 272.371094 441.710938 269.195312 440.886719 C 268.921875 440.777344 268.652344 440.722656 268.375 440.609375 C 264.925781 439.460938 262.789062 436.226562 260.328125 433.597656 C 259.234375 432.394531 258.027344 431.355469 256.773438 430.367188 C 253.65625 427.902344 250.039062 426.035156 246.320312 424.613281 C 245.445312 424.28125 244.351562 423.789062 244.351562 422.855469 C 244.351562 421.65625 245.882812 421.210938 246.648438 420.28125 C 247.800781 418.746094 246.324219 416.558594 244.738281 415.457031 C 243.148438 414.308594 241.175781 413.214844 241.011719 411.238281 C 240.957031 410.695312 241.070312 410.085938 241.121094 409.488281 C 241.226562 406.910156 239.257812 404.777344 237.402344 403.019531 C 240.519531 402.414062 244.40625 400.882812 244.242188 397.707031 C 244.242188 397.160156 244.082031 396.5 244.410156 396.011719 C 244.6875 395.683594 245.175781 395.570312 245.613281 395.464844 C 247.304688 395.140625 248.953125 394.859375 250.59375 394.535156 C 250.753906 393.820312 250.867188 393.164062 251.03125 392.449219 C 257.433594 393.652344 263.839844 395.246094 270.082031 397.214844 C 271.558594 397.65625 273.035156 398.148438 274.460938 398.640625 C 274.460938 398.09375 282.339844 401.273438 284.589844 402.914062 C 285.851562 403.84375 287.105469 404.722656 288.363281 405.539062 C 291.210938 407.460938 294.21875 409.210938 297.558594 409.925781 C 299.253906 410.3125 300.953125 410.417969 302.703125 410.695312 L 302.921875 410.695312 C 307.902344 411.519531 312.5 413.871094 316.660156 416.773438 C 317.972656 417.703125 319.230469 418.6875 320.492188 419.730469 C 320.546875 419.785156 320.65625 419.835938 320.710938 419.894531 C 322.734375 421.589844 324.597656 423.234375 326.460938 424.878906 C 329.964844 427.890625 333.519531 430.632812 338.0625 432.546875 C 345.722656 435.722656 352.953125 442.078125 359.25 447.390625 C 366.84375 453.824219 385.019531 467.628906 382.117188 479.355469 Z M 382.117188 479.355469 " fill-opacity="1" fill-rule="nonzero"/><path fill="#bbb3b0" d="M 326.449219 424.898438 C 324.804688 425.992188 323.054688 426.980469 321.46875 428.019531 C 318.730469 429.769531 316.101562 432.070312 315.0625 435.140625 C 314.40625 437.054688 314.40625 439.082031 314.519531 441.113281 C 314.84375 445.222656 318.519531 452.179688 316.542969 455.90625 C 315.78125 457.273438 314.246094 458.257812 312.550781 458.757812 C 310.472656 458.261719 308.445312 457.878906 306.476562 457.769531 C 302.210938 453.992188 301.878906 442.429688 302.316406 437.824219 C 302.535156 438.429688 303.136719 438.976562 303.410156 439.527344 C 304.398438 437.605469 304.617188 435.085938 304.453125 432.949219 C 305.222656 433.109375 305.765625 432.289062 305.933594 431.578125 C 306.152344 430.867188 306.207031 429.988281 306.808594 429.550781 C 307.191406 429.277344 307.738281 429.226562 308.234375 429.058594 C 310.417969 428.183594 310.363281 424.347656 312.667969 423.910156 C 313.210938 423.855469 313.761719 423.964844 314.3125 423.855469 C 315.023438 423.746094 315.625 423.140625 316.222656 422.648438 C 317.535156 421.496094 319.074219 420.566406 320.710938 419.910156 C 322.730469 421.609375 324.585938 423.253906 326.449219 424.898438 Z M 326.449219 424.898438 " fill-opacity="1" fill-rule="nonzero"/><path fill="#fff9f5" d="M 451.960938 562.84375 C 451.398438 565.527344 449.730469 568.042969 448.503906 570.851562 C 447.332031 573.550781 445.785156 575.914062 445.078125 578.824219 C 444.351562 581.800781 444.277344 584.894531 444.320312 587.960938 C 444.351562 590.398438 444.445312 592.832031 444.621094 595.261719 C 444.796875 597.882812 445.050781 600.523438 444.714844 603.132812 C 444.375 605.738281 443.363281 608.351562 441.398438 610.097656 C 439.429688 611.835938 436.386719 612.496094 434.09375 611.210938 C 433.671875 610.976562 433.265625 610.671875 432.785156 610.59375 C 431.976562 610.464844 431.234375 610.988281 430.507812 611.359375 C 428.855469 612.199219 426.839844 612.285156 425.121094 611.589844 C 424.578125 611.371094 424.046875 611.074219 423.460938 611.042969 C 422.796875 611.007812 422.140625 611.328125 421.480469 611.226562 C 420.324219 611.054688 419.75 609.746094 419.503906 608.605469 C 419.128906 606.867188 419.023438 605.089844 418.914062 603.316406 C 418.78125 601.074219 418.648438 598.828125 418.816406 596.59375 C 419.027344 593.828125 419.6875 591.105469 419.722656 588.332031 C 419.738281 586.785156 419.5625 585.246094 419.382812 583.703125 C 418.578125 576.789062 417.285156 570.59375 414.40625 564.269531 C 411.015625 556.765625 403.953125 551.722656 397.492188 546.683594 C 387.089844 538.628906 376.742188 529.484375 367.550781 520.167969 C 359.066406 511.511719 352.554688 502.46875 342.152344 495.628906 C 339.507812 493.890625 336.769531 492.296875 333.96875 490.839844 C 323.558594 485.445312 312.132812 481.992188 300.464844 480.820312 C 294.644531 480.234375 288.753906 480.210938 282.933594 480.832031 C 277.3125 481.433594 271.757812 483.304688 266.3125 484.847656 C 263.46875 485.652344 260.578125 486.273438 257.6875 486.894531 C 255.273438 487.414062 252.972656 487.039062 250.546875 486.777344 C 249.453125 486.660156 248.339844 486.640625 247.269531 486.371094 C 245.671875 485.964844 244.257812 485.03125 243.011719 483.953125 C 241.757812 482.863281 240.585938 481.515625 240.332031 479.871094 C 240.25 479.359375 240.269531 478.796875 240.046875 478.320312 C 239.761719 477.714844 239.175781 477.542969 238.648438 477.210938 C 237.8125 476.691406 236.964844 475.835938 236.265625 475.140625 C 234.527344 473.394531 236.347656 471.011719 236.882812 469.15625 C 237.335938 467.578125 237.023438 465.847656 237.5625 464.300781 C 238.402344 461.902344 241.09375 460.605469 243.632812 460.4375 C 246.167969 460.269531 248.675781 460.949219 251.199219 461.242188 C 257.421875 461.957031 263.65625 460.28125 269.703125 458.625 C 274.835938 457.21875 279.984375 455.804688 284.949219 453.875 C 289.371094 452.15625 293.433594 449.808594 297.644531 447.675781 C 305.25 443.824219 313.425781 439.113281 317.414062 431.210938 C 317.519531 430.992188 317.632812 430.773438 317.6875 430.554688 C 318.605469 426.898438 319.964844 423.21875 321.082031 419.613281 C 321.921875 416.925781 322.414062 415.050781 322.589844 412.15625 C 322.78125 409.011719 323.136719 405.875 323.910156 402.816406 C 325.289062 397.347656 327.929688 392.273438 329.480469 386.851562 C 330.757812 382.394531 331.292969 377.757812 332.445312 373.265625 C 333.765625 368.125 335.910156 363.003906 335.414062 357.71875 C 335.214844 355.636719 334.609375 353.53125 335.0625 351.492188 C 335.539062 349.320312 337.121094 347.601562 338.515625 345.875 C 341.53125 342.132812 342.113281 336.007812 341.726562 331.285156 C 341.644531 330.300781 341.78125 329.3125 341.78125 328.269531 C 341.835938 323.777344 342.601562 319.5 341.835938 314.957031 C 341.011719 309.972656 338.988281 305.257812 337.292969 300.546875 C 333.789062 290.523438 331.820312 279.945312 332.039062 269.320312 C 332.167969 264.320312 332.597656 259.164062 333.507812 254.242188 C 334.328125 249.816406 334.152344 245.339844 334.304688 240.816406 C 334.414062 237.492188 334.613281 234.070312 336.023438 231.058594 C 336.582031 229.867188 337.351562 228.734375 338.4375 227.988281 C 339.523438 227.246094 340.96875 226.9375 342.191406 227.425781 C 342.792969 227.664062 343.316406 228.078125 343.933594 228.269531 C 345.742188 228.828125 347.6875 227.332031 349.527344 227.792969 C 351.503906 228.28125 352.289062 230.648438 353.871094 231.921875 C 355.90625 233.554688 359.046875 233.203125 361.046875 234.882812 C 363.082031 236.589844 363.144531 239.652344 363.007812 242.308594 C 362.71875 247.796875 362.28125 253.277344 362.199219 258.773438 C 362.128906 263.472656 361.613281 269.113281 364.027344 273.273438 C 359.84375 266.0625 366.363281 246.058594 369.910156 239.792969 C 383.925781 231.8125 386.144531 229.058594 389.925781 224.375 C 407.101562 203.089844 439.347656 209.367188 460.121094 227.15625 C 475.707031 240.507812 481.847656 261.742188 485.214844 282 C 493.589844 332.417969 489.429688 384.886719 473.199219 433.351562 C 469.382812 444.738281 464.894531 455.996094 462.984375 467.855469 C 460.324219 484.367188 462.773438 501.277344 461.332031 517.9375 C 460.449219 528.050781 458 537.722656 454.511719 547.222656 C 452.523438 552.644531 453.011719 557.804688 451.960938 562.84375 Z M 451.960938 562.84375 " fill-opacity="1" fill-rule="nonzero"/><g clip-path="url(#eab2a959d0)"><path fill="#c9c3c0" d="M 531.882812 226.792969 C 525.527344 223.890625 518.085938 225.3125 511.300781 227.179688 C 504.074219 229.152344 493.785156 232.328125 486.335938 230.082031 C 484.75 229.589844 483.324219 228.769531 482.121094 227.667969 C 481.132812 226.738281 480.316406 225.699219 479.601562 224.546875 C 479.277344 224 478.726562 222.960938 478.234375 221.644531 C 477.195312 219.183594 476.152344 216.054688 476.921875 214.90625 C 476.101562 216.113281 474.183594 215.292969 472.984375 214.359375 C 472.710938 214.140625 472.378906 213.867188 472.109375 213.648438 C 471.617188 213.265625 471.066406 212.828125 470.578125 212.390625 C 468.714844 210.632812 467.128906 208.554688 467.460938 206.199219 C 466.859375 206.144531 466.199219 206.144531 465.597656 206.035156 C 462.699219 205.816406 459.851562 205.433594 457.007812 204.828125 C 455.527344 204.503906 454.050781 204.171875 452.570312 203.734375 C 453.0625 203.078125 453.5 202.472656 453.9375 201.871094 C 452.953125 201.871094 451.914062 201.816406 450.925781 201.871094 C 449.503906 201.816406 448.132812 201.816406 446.765625 201.816406 C 446.160156 201.757812 445.558594 201.757812 445.121094 201.378906 C 444.683594 200.996094 444.628906 200.171875 445.179688 199.953125 C 444.632812 200.171875 444.191406 200.277344 443.753906 200.277344 C 441.511719 200.664062 439.925781 199.675781 438.773438 198.03125 C 436.855469 195.457031 435.980469 191.347656 434.832031 188.609375 C 431.875 181.324219 428.921875 174.035156 425.964844 166.808594 C 423.992188 161.875 421.636719 156.5625 416.929688 154.207031 C 416.324219 156.890625 417.257812 159.628906 417.257812 162.371094 C 417.199219 165.113281 415.34375 168.34375 412.65625 168.011719 C 412.601562 171.742188 412.601562 175.410156 412.550781 179.136719 C 411.183594 178.917969 410.308594 180.453125 409.703125 181.714844 C 409.097656 182.921875 407.730469 184.289062 406.585938 183.628906 C 407.078125 186.261719 407.242188 189.65625 404.828125 190.808594 C 404.285156 197 401.761719 201.984375 398.316406 206.367188 C 397.441406 207.515625 396.511719 208.613281 395.582031 209.65625 C 388.957031 216.722656 380.421875 222.582031 374.890625 230.472656 C 374.234375 231.40625 373.628906 232.390625 373.085938 233.375 C 372.867188 233.757812 372.703125 234.089844 372.535156 234.472656 C 371.554688 236.171875 370.675781 237.980469 369.910156 239.785156 C 371.0625 239.679688 372.261719 239.1875 373.359375 238.855469 C 377.085938 237.597656 381.023438 237.652344 385.019531 237.761719 C 385.734375 237.816406 386.445312 237.867188 387.152344 237.867188 C 390.980469 238.03125 394.875 238.085938 398.535156 237.042969 C 402.753906 235.835938 406.746094 233.152344 411.019531 233.539062 C 411.074219 233.539062 411.074219 233.539062 411.074219 233.539062 C 411.238281 233.539062 411.351562 233.59375 411.511719 233.59375 C 411.675781 233.652344 411.894531 233.652344 412.058594 233.703125 L 412.113281 233.703125 C 413.320312 233.921875 414.46875 234.359375 415.726562 234.304688 C 417.148438 234.304688 418.738281 233.320312 418.738281 231.894531 C 418.792969 230.851562 417.96875 229.980469 417.75 228.992188 C 417.09375 226.140625 420.648438 224.390625 423.605469 223.789062 C 423.769531 223.734375 423.878906 223.683594 424.042969 223.683594 C 425.460938 223.464844 426.941406 223.246094 428.421875 223.082031 C 433.183594 222.476562 438.058594 222.476562 442.050781 224.453125 C 442.652344 224.777344 443.25 225.109375 443.800781 225.488281 C 444.183594 225.820312 444.570312 226.097656 444.894531 226.421875 C 448.179688 229.324219 449.273438 232.558594 449.160156 235.957031 C 449.105469 237.765625 448.78125 239.628906 448.179688 241.4375 C 447.578125 243.679688 446.699219 245.925781 445.824219 248.121094 C 444.894531 250.308594 445.007812 251.953125 445.445312 253.761719 C 445.664062 254.914062 446.042969 256.0625 446.375 257.433594 C 446.375 257.488281 446.429688 257.597656 446.429688 257.652344 C 447.523438 262.144531 447.46875 266.746094 448.234375 271.292969 C 449.109375 276.550781 451.355469 281.371094 454.476562 285.757812 C 454.476562 285.8125 454.476562 285.8125 454.535156 285.863281 C 454.535156 285.863281 454.539062 285.867188 454.539062 285.867188 C 456.039062 289.582031 458.144531 292.984375 461.050781 295.726562 C 461.59375 296.269531 462.199219 296.769531 462.308594 297.53125 C 462.476562 298.738281 461.324219 299.726562 461.15625 300.929688 C 460.9375 302.84375 463.183594 303.941406 464.875 304.925781 C 469.75 307.664062 472.265625 313.582031 472.535156 319.226562 C 472.59375 321.359375 472.535156 323.828125 474.125 325.304688 C 475.273438 326.351562 477.304688 326.949219 477.304688 328.539062 C 477.304688 329.414062 476.648438 330.070312 476.210938 330.839844 C 475.773438 331.554688 475.609375 332.753906 476.429688 333.140625 C 476.753906 333.304688 477.195312 333.25 477.523438 333.46875 C 477.960938 333.792969 477.902344 334.449219 477.847656 334.949219 C 477.304688 338.78125 476.699219 342.617188 476.152344 346.398438 C 476.046875 347.445312 475.878906 348.480469 476.097656 349.519531 C 476.261719 350.394531 476.753906 351.164062 477.027344 352.039062 C 478.621094 356.3125 476.210938 360.914062 473.855469 364.859375 C 474.242188 364.699219 474.621094 364.480469 474.949219 364.253906 C 469.3125 367.652344 466.574219 375.046875 461.644531 379.269531 C 456.558594 383.652344 451.574219 386.886719 445.007812 388.253906 C 432.796875 390.832031 413.75 394.007812 406.199219 405.074219 C 403.296875 409.398438 401.378906 415.589844 396.238281 416.417969 C 398.261719 419.265625 395.523438 423.046875 393.007812 425.402344 C 390.488281 427.816406 387.753906 431.59375 389.777344 434.441406 C 390.269531 435.097656 390.980469 435.589844 391.75 435.921875 C 393.71875 436.691406 396.292969 436.359375 397.605469 438.003906 C 398.535156 439.097656 398.480469 440.6875 399.191406 441.945312 C 400.722656 444.847656 404.886719 444.738281 407.730469 446.328125 C 414.132812 449.941406 413.582031 461.832031 420.8125 462.929688 C 422.617188 463.207031 424.917969 462.875 425.742188 464.519531 C 426.285156 465.726562 425.574219 467.09375 425.6875 468.410156 C 425.960938 470.929688 428.972656 471.859375 430.882812 473.449219 C 432.527344 474.820312 433.402344 476.84375 434.277344 478.816406 C 436.140625 483.085938 438.058594 487.632812 437.34375 492.238281 C 437.125 493.605469 436.738281 495.03125 437.289062 496.289062 C 437.726562 497.332031 438.714844 497.933594 439.53125 498.753906 C 440.738281 499.960938 441.394531 501.605469 442.050781 503.246094 C 444.570312 509.761719 446.15625 516.664062 446.8125 523.679688 C 447.03125 526.363281 448.398438 529.980469 450.972656 529.210938 C 448.292969 539.785156 448.835938 552.441406 451.953125 562.847656 C 452.449219 561.585938 452.886719 560.328125 453.265625 559.070312 C 455.292969 551.785156 461.753906 548.222656 465.859375 542.199219 C 466.351562 541.484375 466.894531 540.714844 467.550781 540.117188 C 468.480469 539.238281 469.519531 538.691406 470.617188 539.183594 C 473.082031 537.652344 472.53125 533.980469 473.519531 531.242188 C 474.78125 527.625 478.992188 525.707031 480.417969 522.148438 C 480.960938 520.886719 481.074219 519.410156 481.292969 518.039062 C 481.511719 516.289062 481.785156 514.53125 482.933594 513.273438 C 483.535156 513.492188 484.136719 513.769531 484.742188 514.039062 C 488.40625 508.121094 488.296875 500.066406 491.527344 494.261719 C 492.351562 492.730469 493.386719 491.359375 494.8125 490.210938 C 495.523438 490.972656 496.230469 491.691406 496.945312 492.457031 L 498.914062 478.980469 C 499.351562 475.640625 499.84375 472.351562 500.335938 469.011719 C 501.160156 463.476562 501.980469 457.886719 502.53125 452.300781 C 502.53125 452.242188 502.53125 452.242188 502.53125 452.191406 C 503.292969 444.195312 503.460938 436.085938 502.910156 428.035156 L 502.910156 427.539062 C 502.804688 425.894531 503.019531 423.761719 504.605469 423.433594 C 503.34375 417.621094 503.074219 411.980469 503.179688 406.390625 C 503.238281 399.875 503.835938 393.410156 503.785156 386.886719 C 503.785156 384.472656 505.210938 382.121094 507.398438 381.027344 C 506.304688 379.542969 505.484375 377.90625 505.042969 376.097656 C 504.824219 375.222656 504.660156 374.339844 504.605469 373.414062 C 505.480469 373.25 506.410156 373.082031 507.285156 372.921875 C 508.433594 372.703125 509.527344 372.484375 510.679688 372.265625 C 510.351562 371.71875 510.023438 371.21875 509.695312 370.675781 C 507.777344 367.660156 506.085938 364.539062 504.550781 361.25 C 503.675781 359.386719 502.800781 357.472656 502.03125 355.503906 C 502.03125 355.503906 502.03125 355.503906 502.03125 355.445312 C 501.648438 354.460938 501.269531 353.472656 500.9375 352.433594 C 500.554688 351.449219 500.226562 350.460938 499.949219 349.417969 C 496.9375 340.050781 495.515625 330.246094 496.121094 320.550781 C 496.222656 318.570312 496.433594 316.636719 496.714844 314.664062 C 496.769531 314.285156 496.804688 313.902344 496.871094 313.519531 C 497.023438 312.578125 497.199219 311.617188 497.382812 310.6875 C 497.910156 308.195312 499.257812 304.609375 500.085938 301 C 500.101562 300.984375 500.117188 300.96875 500.117188 300.9375 C 500.117188 300.832031 500.117188 300.71875 500.175781 300.664062 C 500.230469 300.609375 500.230469 300.609375 500.230469 300.558594 C 500.230469 300.507812 500.285156 300.449219 500.285156 300.449219 C 500.394531 300.125 500.503906 299.847656 500.617188 299.519531 C 501.160156 298.203125 501.710938 296.886719 502.367188 295.628906 C 504.882812 290.53125 508.113281 285.824219 511.5625 281.328125 C 512.164062 280.507812 512.824219 279.632812 512.875 278.585938 C 512.875 277.824219 512.550781 277.054688 512.714844 276.285156 C 512.769531 275.90625 512.933594 275.574219 513.09375 275.300781 C 513.3125 275.023438 513.476562 274.753906 513.695312 274.535156 C 515.667969 272.339844 518.074219 270.644531 519.9375 268.398438 C 520.648438 267.523438 521.25 266.535156 521.6875 265.550781 C 522.398438 263.847656 522.667969 262.039062 522.125 260.289062 C 519.9375 261.003906 518.511719 257.65625 519.277344 255.523438 C 519.988281 253.328125 521.792969 251.414062 521.738281 249.113281 C 520.808594 249.828125 519.382812 248.730469 519.382812 247.582031 C 519.328125 246.375 520.207031 245.441406 520.96875 244.566406 C 522.886719 242.484375 524.75 240.402344 526.660156 238.320312 C 525.292969 237.996094 523.980469 237.664062 522.664062 237.386719 C 525.894531 234.816406 529.179688 232.242188 532.460938 229.664062 C 532.785156 229.390625 533.171875 229.0625 533.285156 228.683594 C 533.46875 227.835938 532.644531 227.179688 531.882812 226.792969 Z M 531.882812 226.792969 " fill-opacity="1" fill-rule="nonzero"/></g><path fill="#c9c3c0" d="M 320.15625 419.421875 C 319.71875 423.253906 319.28125 427.085938 317.695312 430.539062 C 320.375 429.339844 323.0625 427.96875 325.03125 425.71875 C 326.074219 424.566406 326.835938 423.199219 327.929688 422.046875 C 329.023438 420.953125 330.558594 420.128906 332.089844 420.457031 C 330.777344 415.910156 329.460938 410.871094 331.597656 406.652344 C 332.089844 405.667969 332.746094 404.789062 332.910156 403.691406 C 333.128906 402.324219 332.472656 400.953125 332.414062 399.527344 C 332.253906 396.570312 334.496094 394.160156 336.632812 392.078125 C 337.675781 391.097656 338.824219 389.996094 340.246094 389.890625 C 340.351562 388.738281 340.464844 387.53125 340.625 386.386719 C 340.683594 385.894531 340.789062 385.292969 341.226562 385.074219 C 341.71875 384.855469 342.320312 385.179688 342.8125 385.566406 C 343.800781 386.28125 344.789062 387.050781 345.769531 387.8125 C 344.730469 382.554688 343.6875 377.351562 342.652344 372.089844 C 342.488281 371.320312 342.269531 370.445312 341.5 370.121094 C 341.113281 369.953125 340.625 370.007812 340.238281 369.84375 C 339.308594 369.464844 339.363281 368.148438 339.582031 367.164062 C 339.964844 365.246094 340.351562 363.273438 340.734375 361.351562 C 340.894531 360.371094 341.058594 359.328125 340.675781 358.449219 C 340.183594 357.464844 339.035156 356.96875 338.320312 356.09375 C 336.570312 353.960938 337.941406 350.835938 339.035156 348.3125 C 341.332031 343 342.265625 337.082031 341.714844 331.273438 L 341.660156 331.273438 C 341.601562 335.492188 341.109375 339.382812 338.648438 343.324219 C 335.636719 348.203125 330.707031 352.253906 329.945312 357.953125 C 331.199219 357.132812 332.460938 356.363281 333.71875 355.542969 C 333.445312 358.832031 330.433594 361.460938 330.324219 364.800781 C 330.269531 365.894531 330.542969 366.988281 330.542969 368.089844 C 330.601562 372.964844 325.726562 376.199219 322.933594 380.195312 C 322.164062 381.289062 321.566406 382.992188 322.609375 383.867188 C 323.046875 384.191406 323.644531 384.359375 323.976562 384.796875 C 324.363281 385.398438 323.976562 386.222656 323.59375 386.882812 C 322.007812 389.621094 320.363281 392.304688 318.722656 395.046875 C 319.871094 393.785156 321.570312 393.070312 323.207031 393.128906 C 321.515625 397.835938 320.089844 402.664062 319.046875 407.59375 C 319.757812 407.753906 320.527344 407.59375 321.128906 407.210938 C 321.234375 409.675781 320.960938 412.195312 320.691406 414.660156 C 320.480469 416.242188 320.320312 417.832031 320.15625 419.421875 Z M 320.15625 419.421875 " fill-opacity="1" fill-rule="nonzero"/><path fill="#c9c3c0" d="M 464.347656 328.972656 C 464.351562 328.347656 463.757812 327.617188 463.074219 327.699219 C 456.082031 328.535156 450.125 332.191406 444.898438 336.722656 C 443.292969 333.992188 441.492188 331.371094 439.769531 328.667969 C 435.804688 322.410156 432.964844 316.007812 430.6875 308.984375 C 429.378906 304.949219 427.460938 300.75 423.257812 299.117188 C 417.988281 297.058594 416.789062 301.351562 413.328125 303.90625 C 411.695312 305.113281 411.082031 306.136719 410.328125 308.011719 C 409.285156 310.601562 407.132812 312.003906 405.929688 314.488281 C 403.5 319.476562 405.015625 325.25 406.574219 330.238281 C 410.542969 342.949219 410.863281 357.140625 417.9375 368.734375 C 423.988281 378.644531 436.246094 385.414062 447.449219 379.660156 C 448.90625 378.917969 447.621094 376.71875 446.164062 377.460938 C 432.09375 384.683594 420.121094 370.53125 416.078125 358.515625 C 413.875 351.976562 412.871094 345.121094 411.386719 338.394531 C 409.980469 332.042969 406.148438 324.714844 407.417969 318.089844 C 407.800781 316.085938 408.617188 314.628906 410.09375 313.265625 C 410.664062 312.734375 411.425781 312.394531 411.878906 311.757812 C 412.445312 310.964844 412.410156 310.554688 412.683594 309.660156 C 413.496094 306.96875 413.792969 307.214844 415.820312 305.558594 C 416.890625 304.679688 416.6875 304.84375 417.601562 303.570312 C 419.460938 300.996094 422.027344 300.8125 424.296875 302.691406 C 426.667969 304.652344 427.675781 307.78125 428.542969 310.632812 C 430.394531 316.675781 432.914062 322.242188 436.164062 327.667969 C 439.664062 333.511719 444.121094 338.839844 446.152344 345.441406 C 446.628906 347.003906 449.085938 346.339844 448.601562 344.765625 C 447.976562 342.734375 447.089844 340.84375 446.128906 339.011719 C 450.9375 334.742188 456.558594 331.027344 463.070312 330.25 C 463.765625 330.164062 464.339844 329.71875 464.347656 328.972656 Z M 464.347656 328.972656 " fill-opacity="1" fill-rule="nonzero"/><g clip-path="url(#89b23e38ec)"><path fill="#c9c3c0" d="M 442.847656 592.410156 C 442.828125 594.445312 442.738281 596.496094 442.847656 598.539062 C 442.910156 599.625 443.113281 600.703125 443.148438 601.789062 C 443.265625 605.167969 443.042969 606.398438 440.199219 608.5625 C 436.824219 611.121094 436.519531 609.695312 432.945312 610.117188 C 430.003906 610.464844 427.296875 611.894531 424.9375 609.144531 C 424.476562 608.605469 423.621094 608.71875 423.136719 609.144531 C 420.375 607.496094 419.398438 605.472656 420.195312 603.082031 C 420.328125 602.429688 420.441406 601.765625 420.527344 601.105469 C 420.800781 599.265625 420.980469 597.417969 421.054688 595.566406 C 421.203125 592.015625 420.992188 588.464844 420.648438 584.929688 C 419.921875 577.34375 418.898438 569.71875 417.5 562.226562 C 414.554688 546.46875 406.140625 531.417969 405.980469 515.25 C 405.964844 513.609375 403.421875 513.609375 403.433594 515.25 C 403.53125 524.914062 406.679688 533.875 409.742188 542.929688 C 413.292969 553.441406 415.507812 564.117188 416.9375 575.113281 C 417.585938 580.132812 418.292969 585.183594 418.496094 590.246094 C 418.707031 595.4375 417.53125 600.222656 417.257812 605.347656 C 417.042969 609.324219 420.074219 613.839844 423.875 611.65625 C 425.394531 613.082031 427.246094 613.871094 429.429688 613.640625 C 431.804688 613.390625 433.703125 612.714844 436.164062 612.835938 C 437.925781 612.921875 439.335938 613.1875 440.996094 612.414062 C 448.046875 609.144531 445.332031 598.386719 445.390625 592.414062 C 445.414062 590.769531 442.871094 590.769531 442.847656 592.410156 Z M 442.847656 592.410156 " fill-opacity="1" fill-rule="nonzero"/></g><path fill="#c9c3c0" d="M 347.296875 477.53125 C 328.570312 480.859375 309.734375 476.113281 290.945312 478.046875 C 282.628906 478.902344 275.007812 481.753906 267.011719 483.972656 C 262.816406 485.140625 238.519531 489.21875 241.910156 478.816406 C 242.078125 478.308594 241.800781 477.625 241.324219 477.375 C 239.722656 476.546875 237.402344 473.34375 237.476562 471.535156 C 237.5 471.011719 238.703125 469.703125 238.90625 469.023438 C 239.777344 466.214844 237.695312 463.964844 242.382812 462.488281 C 244.671875 461.765625 248.339844 462.859375 250.71875 462.996094 C 253.664062 463.164062 256.371094 463.027344 259.230469 462.410156 C 260.828125 462.066406 260.15625 459.609375 258.554688 459.957031 C 252.984375 461.160156 247.894531 459.429688 242.382812 459.945312 C 240.558594 460.117188 238.582031 460.3125 237.40625 461.933594 C 236.0625 463.78125 236.945312 466.078125 236.355469 468.109375 C 235.722656 470.277344 234.128906 471.480469 234.5 473.882812 C 234.742188 475.429688 236.0625 477.507812 237.503906 478.144531 C 239.460938 479.003906 238.917969 478.066406 239.253906 479.03125 C 239.453125 479.605469 239.125 480.726562 239.242188 481.382812 C 240.046875 485.953125 245.367188 487.5 249.308594 488.171875 C 256.148438 489.339844 263.097656 487.796875 269.648438 485.863281 C 278.773438 483.167969 287.359375 480.519531 296.980469 480.207031 C 314.042969 479.644531 331 483.015625 347.972656 479.996094 C 349.585938 479.703125 348.902344 477.246094 347.296875 477.53125 Z M 347.296875 477.53125 " fill-opacity="1" fill-rule="nonzero"/><path fill="#c9c3c0" d="M 363.671875 257.289062 C 363.691406 251.808594 364.582031 246.335938 364.554688 240.871094 C 364.539062 237.585938 363.4375 233.921875 360.121094 232.585938 C 359.230469 232.226562 358.371094 232.296875 357.4375 232.15625 C 355.398438 231.84375 355.199219 231.394531 354.382812 229.671875 C 353.847656 228.535156 353.460938 227.316406 352.378906 226.570312 C 351.15625 225.71875 349.792969 225.835938 348.457031 226.308594 C 347.523438 226.636719 346.59375 227.429688 345.625 227.601562 C 343.941406 227.898438 343.234375 226.644531 341.898438 226.183594 C 333.011719 223.113281 333.636719 243.511719 334.035156 247.824219 C 334.179688 249.445312 336.722656 249.460938 336.578125 247.824219 C 336.113281 242.78125 336.375 237.746094 337.636719 232.820312 C 338.082031 231.070312 338.566406 228.195312 341.628906 228.910156 C 342.171875 229.039062 342.761719 229.707031 343.328125 229.914062 C 344.664062 230.410156 345.730469 230.265625 347.050781 229.765625 C 347.621094 229.554688 348.265625 228.972656 348.847656 228.902344 C 350.855469 228.652344 351.488281 229.480469 352.195312 231.035156 C 352.632812 232 353.011719 232.945312 353.851562 233.636719 C 354.960938 234.542969 356.074219 234.480469 357.433594 234.695312 C 361.230469 235.304688 362.082031 237.933594 361.988281 241.378906 C 361.742188 250.082031 360.726562 258.546875 361.535156 267.28125 C 362.300781 275.578125 364.265625 283.644531 367.871094 291.171875 C 368.578125 292.648438 370.773438 291.363281 370.070312 289.890625 C 365.203125 279.71875 363.628906 268.488281 363.671875 257.289062 Z M 363.671875 257.289062 " fill-opacity="1" fill-rule="nonzero"/><path fill="#998f8a" d="M 418.390625 231.542969 C 417.933594 232.042969 417.878906 232.847656 418.390625 233.347656 C 418.613281 233.558594 418.832031 233.785156 419.042969 234.019531 C 419.148438 234.140625 419.261719 234.265625 419.363281 234.394531 C 419.410156 234.449219 419.460938 234.507812 419.5 234.566406 C 419.570312 234.660156 419.574219 234.667969 419.503906 234.566406 C 419.890625 235.082031 420.242188 235.621094 420.554688 236.1875 C 420.699219 236.460938 420.84375 236.738281 420.976562 237.023438 C 421.003906 237.089844 421.035156 237.15625 421.066406 237.226562 C 421.117188 237.335938 421.113281 237.335938 421.066406 237.226562 C 421.128906 237.378906 421.1875 237.53125 421.246094 237.6875 C 421.464844 238.292969 421.636719 238.910156 421.761719 239.542969 C 421.894531 240.195312 422.703125 240.632812 423.332031 240.433594 C 424.023438 240.210938 424.363281 239.566406 424.214844 238.863281 C 423.652344 236.09375 422.214844 233.507812 420.1875 231.542969 C 419.707031 231.082031 418.859375 231.035156 418.390625 231.542969 Z M 418.390625 231.542969 " fill-opacity="1" fill-rule="nonzero"/><path fill="#998f8a" d="M 446.421875 250.605469 C 443.707031 249.222656 440.683594 248.519531 437.628906 248.636719 C 436.96875 248.660156 436.328125 249.199219 436.359375 249.910156 C 436.386719 250.574219 436.917969 251.207031 437.628906 251.179688 C 440.269531 251.074219 442.824219 251.617188 445.136719 252.800781 C 445.734375 253.105469 446.546875 252.972656 446.878906 252.34375 C 447.183594 251.761719 447.054688 250.925781 446.421875 250.605469 Z M 446.421875 250.605469 " fill-opacity="1" fill-rule="nonzero"/><path fill="#bbb3b0" d="M 510.695312 372.25 C 509.542969 372.46875 508.449219 372.6875 507.300781 372.90625 C 508.011719 372.03125 508.832031 371.261719 509.710938 370.660156 C 510.039062 371.210938 510.367188 371.703125 510.695312 372.25 Z M 510.695312 372.25 " fill-opacity="1" fill-rule="nonzero"/><path fill="#e2a4a1" d="M 420.503906 259.898438 C 418.292969 259.226562 415.863281 259.488281 413.746094 260.40625 C 412.503906 260.941406 411.507812 261.832031 410.578125 262.800781 C 409.625 263.789062 409.996094 264.527344 411.113281 265.234375 C 413.375 266.660156 416.265625 267.5 418.921875 267.671875 C 419.898438 267.738281 420.894531 267.703125 421.820312 267.390625 C 422.746094 267.078125 423.601562 266.460938 424.027344 265.578125 C 424.585938 264.4375 424.34375 263.011719 423.605469 261.976562 C 422.878906 260.941406 421.71875 260.269531 420.503906 259.898438 Z M 420.503906 259.898438 " fill-opacity="1" fill-rule="nonzero"/><path fill="#fff9f5" d="M 519.976562 229.203125 C 516.539062 229.828125 513.171875 230.824219 509.941406 232.175781 C 509.457031 232.378906 508.882812 232.738281 508.96875 233.257812 C 509.148438 234.332031 511.527344 233.71875 511.519531 234.808594 C 511.519531 235.152344 511.21875 235.40625 510.996094 235.667969 C 510.777344 235.925781 510.628906 236.363281 510.890625 236.589844 C 511.03125 236.703125 511.226562 236.707031 511.375 236.804688 C 511.792969 237.074219 511.535156 237.710938 511.277344 238.132812 C 510.597656 239.277344 510.222656 240.601562 510.210938 241.933594 C 510.484375 241.847656 510.714844 241.660156 510.96875 241.527344 C 510.347656 242.246094 509.796875 242.992188 509.65625 243.921875 C 510.359375 243.757812 511.058594 243.59375 511.761719 243.433594 C 511.742188 243.773438 511.722656 244.113281 511.703125 244.457031 C 511.761719 244.226562 511.984375 244.164062 512.226562 244.183594 C 511.992188 245.332031 512.007812 246.527344 512.460938 247.605469 C 512.71875 247.484375 512.890625 247.246094 513.121094 247.082031 C 513.3125 248.34375 513.671875 249.578125 514.339844 250.65625 C 514.449219 250.828125 514.582031 251.011719 514.777344 251.058594 C 515.1875 251.160156 515.457031 250.660156 515.566406 250.257812 C 516.199219 247.992188 516.585938 245.65625 517.328125 243.421875 C 518.699219 239.277344 521.28125 235.5625 524.589844 232.710938 C 525.628906 231.820312 527.828125 230.300781 527.742188 228.703125 C 527.664062 227.144531 521.234375 228.972656 519.976562 229.203125 Z M 519.976562 229.203125 " fill-opacity="1" fill-rule="nonzero"/><path fill="#fff9f5" d="M 419.429688 186.347656 C 418.78125 185.992188 418.132812 185.628906 417.480469 185.277344 C 416.691406 188.148438 415.699219 191.300781 413.144531 192.84375 C 412.800781 186.820312 415.847656 181.347656 417.109375 175.605469 C 417.339844 174.554688 417.527344 168.59375 418.328125 168.53125 C 420.140625 168.402344 419.972656 173.160156 419.816406 173.929688 C 419.664062 173.730469 419.378906 173.574219 419.21875 173.386719 C 418.648438 175.472656 418.628906 177.855469 418.679688 180.019531 C 418.703125 180.933594 418.605469 185.894531 419.429688 186.347656 Z M 419.429688 186.347656 " fill-opacity="1" fill-rule="nonzero"/><path fill="#bbb3b0" d="M 499.746094 390.652344 C 496.023438 395.207031 491.699219 393.449219 486.882812 395.804688 C 480.808594 398.875 478.289062 408.957031 470.625 409.0625 C 467.011719 409.121094 463.183594 406.382812 460.007812 408.078125 C 458.582031 408.789062 457.707031 410.214844 456.453125 411.253906 C 452.621094 414.378906 446.871094 412.566406 441.945312 413.28125 C 441.289062 413.335938 440.574219 413.554688 440.027344 413.992188 C 438.820312 415.085938 439.425781 417.28125 440.792969 418.15625 C 442.164062 419.089844 443.863281 419.089844 445.5 419.089844 C 453.433594 418.980469 461.320312 418.925781 469.253906 418.8125 C 473.304688 418.757812 477.628906 418.652344 480.972656 416.351562 C 482.832031 415.085938 484.257812 413.230469 486.167969 412.128906 C 488.25 410.867188 490.710938 410.539062 493.117188 410.101562 C 496.625 409.390625 500.125 408.183594 503.191406 406.375 C 503.246094 399.859375 503.847656 393.394531 503.796875 386.871094 C 503.796875 384.457031 505.21875 382.105469 507.40625 381.011719 C 506.3125 379.527344 505.496094 377.890625 505.050781 376.082031 C 502.757812 380.464844 503.03125 386.65625 499.746094 390.652344 Z M 499.746094 390.652344 " fill-opacity="1" fill-rule="nonzero"/><path fill="#bbb3b0" d="M 482.613281 433.277344 C 482.722656 435.691406 481.410156 437.167969 479.113281 437.992188 C 471.066406 440.785156 462.144531 441.007812 453.988281 438.59375 C 451.851562 437.992188 449.664062 437.222656 447.527344 437.664062 C 445.398438 438.15625 443.480469 440.5625 444.519531 442.539062 C 438.605469 443.035156 432.695312 442.816406 426.835938 441.828125 C 425.742188 443.742188 428.203125 445.660156 430.226562 446.484375 C 436.359375 449.0625 442.488281 451.636719 448.949219 453.226562 C 452.890625 454.214844 456.996094 454.816406 461.101562 455.035156 C 467.941406 455.414062 474.890625 454.707031 481.570312 452.84375 C 485.238281 451.800781 489.449219 450.429688 492.679688 452.515625 C 493.773438 453.226562 494.707031 454.320312 495.96875 454.539062 C 497.117188 454.757812 498.210938 454.265625 499.253906 453.769531 C 500.183594 453.332031 501.277344 452.785156 502.539062 452.183594 C 503.304688 444.183594 503.46875 436.074219 502.921875 428.023438 C 495.640625 428.675781 487.597656 431.910156 482.613281 433.277344 Z M 482.613281 433.277344 " fill-opacity="1" fill-rule="nonzero"/><path fill="#bbb3b0" d="M 478.128906 475.683594 C 472.054688 477.273438 465.097656 474.371094 461.980469 468.949219 C 461.601562 468.234375 461.050781 467.417969 460.289062 467.46875 C 459.792969 467.46875 459.414062 467.792969 459.082031 468.125 C 457.386719 469.769531 455.796875 472.289062 456.894531 474.421875 C 458.15625 476.777344 461.710938 476.558594 463.953125 478.035156 C 465.046875 478.75 465.816406 479.898438 466.691406 480.886719 C 470.632812 485.378906 476.765625 487.136719 481.855469 490.257812 C 483.878906 491.460938 485.792969 492.9375 487.984375 493.820312 C 488.804688 494.144531 490.066406 494.257812 491.542969 494.257812 C 492.367188 492.726562 493.402344 491.355469 494.828125 490.207031 C 495.539062 490.96875 496.246094 491.6875 496.960938 492.449219 L 498.929688 478.972656 C 498.601562 478.972656 498.328125 478.972656 498.054688 478.917969 C 490.9375 477.605469 485.300781 473.820312 478.128906 475.683594 Z M 478.128906 475.683594 " fill-opacity="1" fill-rule="nonzero"/><path fill="#bbb3b0" d="M 472.652344 505.703125 C 472.160156 507.730469 469.421875 508.441406 467.566406 507.511719 C 465.703125 506.523438 464.71875 504.496094 464.117188 502.46875 C 463.679688 500.882812 463.347656 499.179688 462.257812 497.980469 C 461.164062 496.773438 458.863281 496.5 458.042969 497.921875 C 455.582031 493.597656 453.113281 489.269531 450.652344 484.886719 C 451.632812 493.539062 453.71875 502.03125 456.945312 510.085938 C 457.984375 512.769531 459.1875 515.566406 459.296875 518.46875 C 459.351562 521.863281 457.871094 525.535156 459.296875 528.605469 C 460.5 531.289062 463.730469 533.042969 463.84375 535.945312 C 463.84375 536.878906 463.566406 537.972656 464.117188 538.742188 C 464.441406 539.285156 465.160156 539.503906 465.761719 539.671875 C 466.359375 539.835938 466.964844 540 467.566406 540.109375 C 468.496094 539.234375 469.535156 538.683594 470.632812 539.179688 C 473.097656 537.648438 472.546875 533.976562 473.535156 531.238281 C 474.796875 527.621094 479.007812 525.703125 480.433594 522.144531 C 480.976562 520.878906 481.089844 519.402344 481.308594 518.035156 C 481.25 518.089844 481.25 518.035156 481.199219 518.035156 C 476.265625 516.113281 472.761719 511.019531 472.652344 505.703125 Z M 472.652344 505.703125 " fill-opacity="1" fill-rule="nonzero"/><path fill="#bbb3b0" d="M 284.578125 402.929688 C 284.1875 403.03125 282.3125 401.21875 281.953125 400.933594 C 280.980469 400.164062 280.019531 399.375 279.085938 398.5625 C 277.320312 397.035156 274.964844 396.199219 272.859375 395.164062 C 272.730469 395.105469 272.5625 395.046875 272.460938 395.144531 C 272.394531 395.207031 272.382812 395.300781 272.378906 395.390625 C 272.355469 395.730469 272.328125 396.074219 272.304688 396.421875 C 271.71875 396.339844 271.132812 396.265625 270.546875 396.183594 C 270.390625 396.164062 270.226562 396.140625 270.082031 396.191406 C 269.753906 396.308594 269.65625 396.71875 269.445312 396.992188 C 268.882812 397.707031 267.433594 397.726562 266.632812 397.996094 C 265.589844 398.347656 264.617188 398.847656 263.527344 399.050781 C 261.792969 399.363281 260.0625 399.425781 258.574219 400.535156 C 255.914062 402.53125 257.382812 407.265625 254.355469 408.84375 C 255.886719 410.871094 256.164062 413.667969 255.179688 415.96875 C 256.769531 417.9375 255.125 420.953125 255.675781 423.417969 C 256.167969 425.605469 258.464844 427.363281 258.027344 429.664062 C 257.589844 429.609375 257.042969 429.882812 256.605469 429.828125 C 256.660156 429.988281 256.710938 430.207031 256.765625 430.375 C 257.640625 433.609375 259.996094 437.222656 262.621094 439.195312 C 263.828125 440.125 267.601562 442.378906 269.132812 440.953125 C 270.832031 439.144531 267.710938 432.460938 267.164062 430.433594 C 266.121094 426.761719 264.484375 422.160156 266.785156 418.601562 C 267.382812 417.726562 268.265625 416.90625 268.316406 415.808594 C 268.421875 415.042969 268.039062 414.273438 267.933594 413.507812 C 267.714844 411.207031 269.796875 409.289062 271.984375 408.574219 C 272.589844 408.414062 273.246094 408.25 273.625 407.699219 C 274.011719 407.097656 273.789062 406.332031 273.902344 405.5625 C 274.226562 403.429688 276.96875 402.546875 279.15625 402.714844 C 280.960938 402.820312 282.878906 403.367188 284.578125 402.929688 Z M 284.578125 402.929688 " fill-opacity="1" fill-rule="nonzero"/><path fill="#bbb3b0" d="M 302.691406 410.707031 C 301.542969 410.925781 300.449219 411.253906 299.355469 411.753906 C 298.148438 412.296875 297 412.960938 295.742188 413.179688 C 294.59375 413.339844 293.335938 413.121094 292.242188 413.503906 C 291.257812 413.886719 290.550781 414.710938 289.671875 415.367188 C 288.796875 416.023438 287.644531 416.460938 286.714844 415.917969 C 286.441406 419.3125 281.679688 420.40625 280.421875 423.535156 C 279.984375 424.683594 279.660156 426.386719 278.398438 426.273438 C 278.453125 427.804688 278.503906 429.34375 278.503906 430.820312 C 277.574219 430.214844 276.640625 429.558594 275.710938 428.957031 C 277.023438 435.421875 279.484375 441.71875 282.992188 447.417969 C 286.222656 447.691406 289.613281 447.199219 292.570312 448.347656 C 292.515625 447.855469 292.40625 447.417969 292.242188 446.980469 C 291.75 445.554688 290.984375 444.242188 290.765625 442.757812 C 290.488281 441.390625 290.707031 439.90625 290.925781 438.539062 C 291.472656 434.972656 292.019531 431.359375 293.554688 428.132812 C 296.1875 422.652344 301.710938 418.65625 307.789062 417.886719 C 310.472656 417.5625 313.261719 417.832031 315.886719 417.0625 C 316.164062 417.007812 316.382812 416.898438 316.65625 416.789062 C 312.496094 413.886719 307.898438 411.527344 302.917969 410.707031 Z M 302.691406 410.707031 " fill-opacity="1" fill-rule="nonzero"/><path fill="#bbb3b0" d="M 407.625 232.878906 C 408.613281 232.929688 409.980469 233.476562 410.914062 233.476562 C 410.96875 233.476562 410.96875 233.476562 410.96875 233.476562 C 411.023438 233.476562 411.023438 233.535156 411.023438 233.535156 C 411.082031 233.535156 411.082031 233.535156 411.082031 233.535156 C 411.460938 233.753906 411.792969 233.808594 412.0625 233.699219 L 412.117188 233.699219 C 414.253906 233.371094 414.035156 227.179688 412.613281 225.261719 C 411.957031 224.328125 410.914062 223.566406 410.695312 222.464844 C 410.53125 221.703125 410.75 220.933594 410.695312 220.164062 C 410.53125 218.792969 409.273438 217.75 408.011719 217.207031 C 406.699219 216.65625 405.277344 216.4375 403.964844 215.894531 C 401.664062 214.847656 400.023438 212.660156 399.148438 210.300781 C 398.652344 209.039062 398.433594 207.671875 398.328125 206.363281 C 397.453125 207.511719 396.523438 208.605469 395.589844 209.652344 L 395.589844 209.976562 C 395.753906 212.222656 396.796875 214.25 397.785156 216.222656 C 398.109375 216.878906 398.441406 217.539062 398.878906 218.085938 C 400.300781 219.570312 402.601562 219.789062 404.351562 220.828125 C 407.6875 222.800781 407.46875 226.25 408.238281 229.261719 C 407.960938 229.15625 407.6875 229.101562 407.46875 229.042969 C 404.402344 228.4375 401.558594 231.839844 398.765625 230.738281 C 398.222656 230.519531 397.726562 230.136719 397.234375 229.914062 C 396.035156 229.476562 394.714844 229.914062 393.515625 230.410156 C 391.871094 231.007812 390.171875 231.671875 388.535156 232.273438 C 387.660156 232.597656 386.730469 232.984375 385.796875 232.929688 C 383.773438 232.929688 382.132812 231.339844 380.164062 230.796875 C 378.890625 230.46875 377.523438 230.578125 376.203125 230.578125 C 375.765625 230.578125 375.328125 230.519531 374.890625 230.46875 C 374.234375 231.402344 373.628906 232.382812 373.085938 233.371094 C 372.867188 233.753906 372.703125 234.085938 372.535156 234.464844 C 375.605469 236.222656 379.324219 236.929688 382.828125 237.480469 C 383.539062 237.59375 384.253906 237.699219 385.015625 237.753906 C 385.726562 237.8125 386.441406 237.863281 387.148438 237.863281 C 388.023438 237.863281 388.847656 237.804688 389.722656 237.644531 C 392.839844 237.09375 395.632812 235.285156 398.644531 234.191406 C 401.492188 233.097656 404.558594 232.660156 407.625 232.878906 Z M 407.625 232.878906 " fill-opacity="1" fill-rule="nonzero"/><path fill="#bbb3b0" d="M 514.800781 264.320312 C 511.132812 264.265625 507.519531 264.757812 503.851562 264.429688 C 502.644531 264.320312 501.441406 264.152344 500.460938 263.441406 C 499.695312 262.894531 499.148438 262.015625 498.273438 261.527344 C 497.398438 261.03125 496.355469 260.976562 495.316406 260.8125 C 491.921875 260.320312 488.855469 258.625 485.898438 256.816406 C 482.179688 254.570312 478.566406 252.101562 475.117188 249.476562 C 474.242188 248.820312 473.308594 248.160156 472.265625 248.210938 C 471.609375 248.269531 471.003906 248.59375 470.40625 248.925781 C 468.597656 249.96875 466.792969 251.0625 464.988281 252.101562 C 463.949219 252.707031 462.90625 253.308594 461.703125 253.308594 C 460.878906 253.253906 460.058594 252.984375 459.238281 252.871094 C 456.777344 252.546875 454.421875 254.183594 452.128906 254.898438 C 451.578125 255.0625 450.976562 255.171875 450.371094 255.335938 C 448.679688 253.910156 446.265625 252.433594 445.449219 253.746094 C 445.230469 254.023438 445.121094 254.402344 445.121094 254.898438 C 445.066406 255.722656 445.617188 256.652344 446.433594 257.636719 C 447.804688 259.394531 449.882812 261.25 450.484375 262.839844 C 451.195312 264.703125 451.472656 266.617188 451.691406 268.59375 C 451.910156 271 452.070312 273.472656 452.785156 275.765625 C 452.945312 276.375 453.222656 277.03125 453.828125 277.359375 C 454.207031 277.578125 454.757812 277.578125 455.195312 277.742188 C 456.5625 278.238281 456.839844 280.042969 457.109375 281.527344 C 457.601562 283.878906 458.800781 286.070312 460.5 287.710938 C 461.050781 287.546875 461.488281 287.109375 461.652344 286.5625 C 464.878906 289.738281 468.054688 292.914062 471.285156 296.09375 C 472.542969 297.355469 474.734375 298.554688 475.828125 297.136719 C 475.117188 298.667969 477.089844 299.988281 478.726562 300.425781 C 481.628906 301.25 484.472656 302.121094 487.375 302.945312 C 488.304688 303.21875 489.34375 303.488281 490.21875 303.164062 C 490.875 302.945312 491.425781 302.398438 492.082031 302.121094 C 492.84375 301.792969 493.722656 301.902344 494.542969 301.902344 C 496.515625 301.902344 498.484375 301.355469 500.234375 300.417969 C 500.234375 300.417969 500.234375 300.417969 500.292969 300.417969 C 500.398438 300.09375 500.511719 299.820312 500.621094 299.488281 C 501.167969 298.175781 501.714844 296.855469 502.371094 295.597656 C 501.992188 295.542969 501.546875 295.542969 501.222656 295.597656 C 501.117188 295.597656 501.003906 295.652344 500.898438 295.652344 C 497.066406 296.199219 493.125 296.480469 489.398438 295.378906 C 485.132812 294.066406 481.628906 290.941406 477.414062 289.464844 C 475.117188 288.695312 472.378906 288.257812 471.011719 286.230469 C 470.515625 285.40625 470.246094 284.421875 469.589844 283.765625 C 468.878906 283.054688 467.890625 282.835938 467.015625 282.394531 C 462.144531 279.933594 462.199219 272.039062 457.269531 269.796875 C 456.832031 269.632812 456.339844 269.46875 456.066406 269.082031 C 455.683594 268.644531 455.683594 268.039062 455.628906 267.550781 C 455.570312 266.015625 455.351562 264.480469 454.972656 263.003906 C 454.589844 261.46875 453.988281 260.046875 453.222656 258.675781 C 456.78125 259.277344 460.996094 259.277344 463.074219 258.894531 C 465.265625 258.511719 467.34375 257.6875 469.535156 257.46875 C 472.820312 257.195312 476.109375 258.292969 478.894531 260.046875 C 479.332031 260.265625 479.769531 260.589844 480.046875 260.976562 C 480.265625 261.308594 480.425781 261.746094 480.644531 262.019531 C 481.355469 262.894531 482.613281 262.894531 483.761719 262.953125 C 487.15625 263.226562 490.222656 265.035156 493.179688 266.675781 C 498.484375 269.632812 503.964844 272.207031 509.601562 274.402344 C 510.75 274.785156 511.949219 275.222656 513.101562 275.277344 C 513.320312 275.003906 513.480469 274.734375 513.699219 274.515625 C 515.675781 272.320312 518.082031 270.625 519.941406 268.378906 C 520.652344 267.503906 521.253906 266.515625 521.691406 265.527344 C 519.511719 264.707031 517.15625 264.378906 514.800781 264.320312 Z M 514.800781 264.320312 " fill-opacity="1" fill-rule="nonzero"/><path fill="#bbb3b0" d="M 461.59375 230.796875 C 460.882812 231.175781 460.28125 231.726562 459.570312 232.058594 C 457.050781 233.320312 453.820312 232.496094 451.464844 233.921875 C 450.703125 234.359375 450.152344 234.964844 449.554688 235.566406 C 449.445312 235.671875 449.277344 235.839844 449.167969 235.953125 C 446.921875 238.253906 444.730469 240.5 442.488281 242.800781 C 441.945312 243.40625 441.28125 244.390625 441.886719 245.046875 C 442.488281 245.703125 443.582031 244.988281 444.238281 244.390625 C 445.445312 243.238281 446.757812 242.257812 448.179688 241.429688 C 450.3125 240.117188 452.617188 239.1875 455.023438 238.636719 C 457.808594 237.980469 460.765625 237.816406 463.175781 236.285156 C 463.671875 235.957031 464.109375 235.570312 464.707031 235.515625 C 465.363281 235.457031 465.96875 235.902344 466.621094 236.171875 C 468.15625 236.773438 469.90625 236.226562 471.4375 235.566406 C 475.429688 233.871094 479.484375 231.238281 482.109375 227.679688 C 481.125 226.746094 480.304688 225.707031 479.59375 224.558594 C 479.265625 224.007812 478.71875 222.96875 478.222656 221.65625 C 475.597656 224.890625 472.636719 227.953125 468.480469 229.105469 C 466.191406 229.699219 463.675781 229.644531 461.59375 230.796875 Z M 461.59375 230.796875 " fill-opacity="1" fill-rule="nonzero"/><path fill="#bbb3b0" d="M 426.671875 234.191406 C 428.257812 233.257812 428.863281 231.175781 428.808594 229.3125 C 428.753906 227.449219 428.203125 225.644531 428.316406 223.78125 C 428.316406 223.558594 428.371094 223.285156 428.425781 223.066406 C 428.808594 219.503906 431.328125 216.488281 433.734375 213.75 C 435.375 211.941406 437.019531 210.078125 438.605469 208.269531 C 440.800781 205.808594 441.894531 202.847656 443.753906 200.273438 C 441.511719 200.660156 439.925781 199.671875 438.773438 198.027344 C 435.382812 199.890625 433.082031 204.601562 430.234375 206.683594 C 429.410156 207.339844 428.371094 207.777344 427.550781 208.488281 C 426.457031 209.421875 425.800781 210.734375 425.199219 212.050781 C 424.105469 214.351562 423.011719 216.707031 422.898438 219.277344 C 422.84375 220.8125 423.117188 222.292969 423.609375 223.769531 C 424.648438 227.238281 426.617188 230.578125 426.671875 234.191406 Z M 426.671875 234.191406 " fill-opacity="1" fill-rule="nonzero"/><path fill="#bbb3b0" d="M 457.050781 224.765625 C 457.488281 224.710938 457.378906 225.425781 457.050781 225.75 C 455.738281 227.011719 454.421875 228.269531 453.109375 229.476562 C 456.394531 228.601562 459.625 227.507812 462.527344 225.75 C 463.839844 224.984375 465.09375 224.054688 465.972656 222.792969 C 466.90625 221.476562 467.453125 219.777344 468.765625 218.847656 C 469.042969 218.625 469.421875 218.464844 469.699219 218.1875 C 470.574219 217.363281 470.464844 215.945312 470.410156 214.679688 C 470.410156 213.917969 470.410156 213.09375 470.574219 212.378906 C 468.710938 210.625 467.125 208.546875 467.453125 206.1875 C 466.855469 206.132812 466.191406 206.132812 465.59375 206.027344 C 465.375 207.289062 465.972656 208.707031 466.085938 210.078125 C 466.140625 211.121094 465.867188 212.210938 465.265625 213.148438 C 464.878906 213.804688 464.222656 214.519531 464.5 215.285156 C 464.554688 215.613281 464.824219 215.886719 464.878906 216.164062 C 465.15625 216.988281 464.441406 217.75 463.730469 218.136719 C 462.96875 218.519531 462.144531 218.851562 461.707031 219.558594 C 461.488281 219.890625 461.433594 220.328125 461.269531 220.652344 C 460.445312 222.523438 457.4375 222.796875 457.050781 224.765625 Z M 457.050781 224.765625 " fill-opacity="1" fill-rule="nonzero"/><path fill="#bbb3b0" d="M 447.847656 218.398438 C 447.519531 218.933594 447.230469 219.507812 446.8125 219.980469 C 446.265625 220.601562 445.53125 221.023438 444.859375 221.507812 C 442.992188 222.859375 441.550781 224.789062 440.792969 226.960938 C 441.644531 227.113281 442.433594 226.539062 443.109375 226.007812 C 445.890625 223.820312 448.804688 221.792969 451.816406 219.941406 C 453.304688 219.027344 454.820312 218.152344 456.09375 216.972656 C 457.371094 215.789062 458.410156 214.257812 458.632812 212.53125 C 458.683594 212.136719 458.675781 211.6875 458.410156 211.386719 C 456.480469 209.226562 448.714844 217.003906 447.847656 218.398438 Z M 447.847656 218.398438 " fill-opacity="1" fill-rule="nonzero"/><path fill="#bbb3b0" d="M 436.582031 217.863281 C 436.199219 218.574219 435.871094 219.34375 436.144531 220.058594 C 438.277344 219.671875 439.15625 217.207031 440.800781 215.785156 C 442.222656 214.523438 444.410156 213.867188 444.960938 212.003906 C 445.066406 211.621094 445.066406 211.238281 445.234375 210.851562 C 445.453125 210.414062 445.835938 210.089844 446.222656 209.8125 C 448.683594 207.949219 451.582031 206.855469 454.488281 205.761719 C 455.3125 205.433594 456.132812 205.105469 457.007812 204.828125 C 455.527344 204.503906 454.050781 204.171875 452.570312 203.734375 C 453.0625 203.078125 453.5 202.472656 453.9375 201.871094 C 452.953125 201.871094 451.914062 201.816406 450.925781 201.871094 C 450.433594 201.976562 449.941406 202.257812 449.445312 202.527344 C 447.089844 203.898438 445.121094 205.867188 443.375 208.007812 C 440.742188 211.019531 438.496094 214.359375 436.582031 217.863281 Z M 436.582031 217.863281 " fill-opacity="1" fill-rule="nonzero"/><path fill="#bbb3b0" d="M 427.035156 264.414062 C 427.695312 264.488281 428.332031 263.773438 428.304688 263.140625 C 428.269531 262.386719 427.746094 261.949219 427.035156 261.867188 C 426.984375 261.863281 426.976562 261.863281 426.960938 261.863281 C 426.945312 261.863281 426.953125 261.863281 426.910156 261.851562 C 426.800781 261.832031 426.6875 261.8125 426.574219 261.792969 C 426.351562 261.746094 426.128906 261.691406 425.90625 261.628906 C 425.699219 261.566406 425.496094 261.507812 425.300781 261.429688 C 425.191406 261.390625 425.085938 261.347656 424.980469 261.308594 C 424.847656 261.25 425.125 261.378906 424.914062 261.277344 C 424.496094 261.074219 424.089844 260.863281 423.695312 260.617188 C 423.519531 260.503906 423.34375 260.382812 423.171875 260.253906 C 423.125 260.222656 423.082031 260.1875 423.035156 260.152344 C 423.125 260.21875 423.136719 260.226562 423.066406 260.171875 C 422.972656 260.097656 422.886719 260.023438 422.800781 259.949219 C 422.46875 259.65625 422.15625 259.347656 421.859375 259.011719 C 421.785156 258.925781 421.710938 258.832031 421.636719 258.746094 C 421.457031 258.542969 421.722656 258.875 421.550781 258.640625 C 421.429688 258.464844 421.304688 258.296875 421.1875 258.117188 C 420.949219 257.742188 420.742188 257.355469 420.554688 256.953125 C 420.527344 256.902344 420.527344 256.902344 420.515625 256.886719 C 420.511719 256.875 420.511719 256.878906 420.496094 256.835938 C 420.457031 256.730469 420.414062 256.625 420.375 256.511719 C 420.34375 256.425781 420.324219 256.339844 420.292969 256.253906 C 420.308594 256.195312 420.277344 256.140625 420.289062 256.078125 C 420.371094 255.820312 420.4375 255.550781 420.539062 255.292969 C 420.605469 255.125 420.597656 255.199219 420.527344 255.316406 C 420.554688 255.269531 420.574219 255.207031 420.597656 255.15625 C 420.65625 255.039062 420.707031 254.917969 420.765625 254.800781 C 420.882812 254.566406 421.003906 254.332031 421.144531 254.109375 C 421.269531 253.894531 421.402344 253.6875 421.542969 253.480469 C 421.621094 253.375 421.699219 253.269531 421.773438 253.160156 C 421.792969 253.132812 421.917969 252.96875 421.808594 253.117188 C 421.691406 253.273438 421.84375 253.070312 421.875 253.039062 C 422.207031 252.632812 422.574219 252.253906 422.960938 251.898438 C 423.453125 251.449219 423.449219 250.550781 422.960938 250.101562 C 422.429688 249.613281 421.6875 249.625 421.160156 250.101562 C 419.738281 251.390625 418.757812 253.089844 418.105469 254.898438 C 417.828125 254.847656 417.722656 254.785156 417.445312 254.621094 C 416.855469 254.277344 416.308594 253.878906 415.679688 253.59375 C 414.265625 252.964844 412.707031 252.667969 411.15625 252.839844 C 410.5 252.910156 409.855469 253.371094 409.886719 254.113281 C 409.910156 254.738281 410.449219 255.46875 411.15625 255.386719 C 411.265625 255.375 411.371094 255.382812 411.472656 255.371094 C 411.097656 256.261719 410.71875 257.152344 410.34375 258.042969 C 409.828125 259.257812 409.128906 260.511719 408.8125 261.792969 C 408.121094 264.605469 411.320312 265.84375 413.289062 266.914062 C 415.496094 268.109375 417.933594 269.601562 420.546875 269.09375 C 422.746094 268.664062 424.386719 266.929688 425.789062 265.300781 C 426.113281 264.921875 426.117188 264.515625 426.011719 264.132812 C 426.367188 264.210938 426.683594 264.367188 427.035156 264.414062 Z M 420.207031 266.566406 C 418.367188 267.054688 416.382812 265.6875 414.835938 264.855469 C 413.902344 264.359375 412.976562 263.84375 412.066406 263.296875 C 411.84375 263.160156 411.402344 262.972656 411.289062 262.707031 C 411.175781 262.433594 411.433594 261.984375 411.539062 261.71875 C 412.363281 259.703125 413.234375 257.699219 414.082031 255.6875 C 414.433594 255.804688 414.765625 255.953125 415.128906 256.164062 C 415.8125 256.5625 416.417969 257.035156 417.179688 257.289062 C 417.476562 257.390625 417.800781 257.390625 418.117188 257.398438 C 419.164062 260.171875 421.261719 262.414062 423.941406 263.574219 C 422.921875 264.757812 421.773438 266.148438 420.207031 266.566406 Z M 420.207031 266.566406 " fill-opacity="1" fill-rule="nonzero"/><path fill="#bbb3b0" d="M 449.046875 271.039062 C 449.488281 271.5625 450.386719 271.496094 450.847656 271.039062 C 451.371094 270.511719 451.289062 269.765625 450.847656 269.234375 C 447.128906 264.8125 442.40625 261.242188 437.136719 258.878906 C 436.511719 258.597656 435.769531 258.699219 435.398438 259.335938 C 435.078125 259.882812 435.222656 260.796875 435.847656 261.078125 C 440.953125 263.371094 445.445312 266.753906 449.046875 271.039062 Z M 449.046875 271.039062 " fill-opacity="1" fill-rule="nonzero"/><path fill="#bbb3b0" d="M 434.683594 265.253906 C 437.273438 269.101562 439.242188 273.3125 440.507812 277.777344 C 440.957031 279.351562 443.410156 278.683594 442.960938 277.101562 C 441.636719 272.4375 439.589844 267.988281 436.882812 263.964844 C 435.972656 262.617188 433.769531 263.890625 434.683594 265.253906 Z M 434.683594 265.253906 " fill-opacity="1" fill-rule="nonzero"/><path fill="#bbb3b0" d="M 395.953125 235.859375 C 394.3125 235.859375 394.3125 238.40625 395.953125 238.40625 C 401.664062 238.40625 407.320312 240.363281 411.769531 243.972656 C 412.300781 244.40625 413.039062 244.484375 413.570312 243.972656 C 414.019531 243.527344 414.097656 242.601562 413.570312 242.167969 C 408.589844 238.125 402.378906 235.867188 395.953125 235.859375 Z M 395.953125 235.859375 " fill-opacity="1" fill-rule="nonzero"/><path fill="#bbb3b0" d="M 411.136719 247.125 C 411.300781 246.515625 410.929688 245.660156 410.246094 245.554688 C 404.316406 244.636719 398.265625 245.683594 393.027344 248.628906 C 391.597656 249.429688 392.878906 251.628906 394.308594 250.828125 C 398.914062 248.242188 404.347656 247.203125 409.570312 248.007812 C 410.25 248.109375 410.9375 247.835938 411.136719 247.125 Z M 411.136719 247.125 " fill-opacity="1" fill-rule="nonzero"/><path fill="#e2a4a1" d="M 426.289062 249.738281 C 425.035156 249.363281 424.5 248.773438 423.941406 247.53125 C 423.65625 246.894531 423.417969 246.21875 422.921875 245.734375 C 422.429688 245.25 421.574219 245.035156 421.046875 245.484375 C 420.679688 245.792969 420.574219 246.320312 420.617188 246.796875 C 420.664062 247.328125 420.785156 247.832031 420.898438 248.34375 C 420.941406 248.535156 420.980469 248.71875 420.964844 248.90625 C 420.945312 249.097656 420.867188 249.277344 420.78125 249.445312 C 420.359375 250.285156 419.707031 251.078125 419.730469 252.019531 C 419.734375 252.210938 419.765625 252.394531 419.816406 252.570312 C 419.890625 252.867188 420.011719 253.15625 420.246094 253.34375 C 420.511719 253.558594 420.882812 253.597656 421.214844 253.535156 C 421.542969 253.46875 421.851562 253.308594 422.15625 253.144531 C 422.867188 252.769531 423.527344 252.316406 424.363281 252.328125 C 424.835938 252.332031 425.304688 252.472656 425.777344 252.484375 C 426.269531 252.496094 426.785156 252.351562 427.144531 252.015625 C 428.179688 251.058594 427.289062 250.039062 426.289062 249.738281 Z M 426.289062 249.738281 " fill-opacity="1" fill-rule="nonzero"/><path fill="#e2a4a1" d="M 348.957031 245.234375 C 348.273438 244.625 347.453125 244.160156 346.851562 243.460938 C 346.027344 242.5 345.65625 241.019531 344.496094 240.378906 C 343.023438 239.5625 342.390625 241.023438 341.523438 241.925781 C 340.925781 242.539062 340.21875 243.03125 339.75 243.757812 C 338.449219 245.792969 338.480469 249.15625 341.09375 250.148438 C 341.679688 250.371094 342.316406 250.414062 342.921875 250.566406 C 344.09375 250.855469 345.132812 251.539062 346.261719 251.996094 C 347.386719 252.449219 348.738281 252.640625 349.761719 251.992188 C 351.152344 251.097656 351.257812 249.027344 350.601562 247.511719 C 350.230469 246.640625 349.664062 245.855469 348.957031 245.234375 Z M 348.957031 245.234375 " fill-opacity="1" fill-rule="nonzero"/><path fill="#e2a4a1" d="M 352.582031 235.898438 C 351.734375 235.808594 351.277344 236.648438 350.824219 237.230469 C 350.199219 238.03125 349.132812 238.855469 349.058594 239.9375 C 349.035156 240.320312 349.148438 240.699219 349.300781 241.050781 C 349.503906 241.496094 349.796875 241.933594 350.246094 242.140625 C 350.6875 242.34375 351.21875 242.28125 351.65625 242.074219 C 352.09375 241.863281 352.449219 241.511719 352.753906 241.136719 C 353.628906 240.0625 355.109375 236.152344 352.582031 235.898438 Z M 352.582031 235.898438 " fill-opacity="1" fill-rule="nonzero"/><path fill="#e2a4a1" d="M 346.40625 237.503906 C 346.59375 237.542969 346.769531 237.410156 346.914062 237.28125 C 347.96875 236.320312 348.644531 234.960938 348.78125 233.542969 C 348.816406 233.230469 348.820312 232.90625 348.71875 232.613281 C 348.578125 232.199219 348.242188 231.875 347.851562 231.675781 C 344.96875 230.199219 344.757812 235.886719 346.105469 237.300781 C 346.1875 237.394531 346.28125 237.480469 346.40625 237.503906 Z M 346.40625 237.503906 " fill-opacity="1" fill-rule="nonzero"/><path fill="#e2a4a1" d="M 340.285156 237.511719 C 340.484375 237.855469 340.820312 238.152344 341.214844 238.199219 C 341.742188 238.253906 342.230469 237.867188 342.441406 237.382812 C 342.65625 236.90625 342.640625 236.355469 342.574219 235.835938 C 342.507812 235.28125 342.398438 234.734375 342.234375 234.203125 C 341.933594 233.207031 340.722656 231.703125 339.828125 233.132812 C 339.3125 233.953125 339.808594 235.488281 339.945312 236.363281 C 340.015625 236.757812 340.09375 237.160156 340.285156 237.511719 Z M 340.285156 237.511719 " fill-opacity="1" fill-rule="nonzero"/></svg>